<?xml version="1.0" encoding="utf-8"?>
<!-- Generator: Adobe Illustrator 16.0.0, SVG Export Plug-In . SVG Version: 6.00 Build 0)  -->
<!DOCTYPE svg PUBLIC "-//W3C//DTD SVG 1.1//EN" "http://www.w3.org/Graphics/SVG/1.1/DTD/svg11.dtd">
<svg version="1.1" id="Layer_1" xmlns="http://www.w3.org/2000/svg" xmlns:xlink="http://www.w3.org/1999/xlink" x="0px" y="0px"
	 width="80px" height="159px" viewBox="0 0 80 159" enable-background="new 0 0 80 159" xml:space="preserve">
<path fill-rule="evenodd" clip-rule="evenodd" d="M40.875,159h-1v-40h1V159z"/>
<path fill-rule="evenodd" clip-rule="evenodd" d="M40.875,40h-1V0h1V40z"/>
<path fill="#231F20" d="M40,40.375c21.505,0,39,17.495,39,39s-17.495,39-39,39s-39-17.495-39-39S18.495,40.375,40,40.375 M40,39.375
	c-22.091,0-40,17.909-40,40c0,22.092,17.909,40,40,40c22.092,0,40-17.908,40-40C80,57.284,62.092,39.375,40,39.375L40,39.375z"/>
<path fill-rule="evenodd" clip-rule="evenodd" d="M64.723,90.354c0.328-0.746,0.617-1.512,0.879-2.291l10.342-10.344
	c0.027,0.453,0.039,0.909,0.049,1.367L64.723,90.354z M66.563,84.273l9.148-9.149c0.055,0.424,0.088,0.855,0.129,1.285l-9.672,9.673
	C66.316,85.484,66.453,84.885,66.563,84.273z M66.928,81.078l8.389-8.388c0.08,0.397,0.146,0.799,0.213,1.201l-8.713,8.712
	C66.875,82.102,66.898,81.59,66.928,81.078z M67.008,79.508c0-0.43-0.045-0.848-0.064-1.274l7.834-7.833
	c0.102,0.376,0.182,0.761,0.271,1.143l-8.045,8.044C67.004,79.561,67.008,79.535,67.008,79.508z M66.701,75.649l7.428-7.429
	c0.121,0.357,0.213,0.728,0.324,1.09l-7.578,7.578C66.834,76.469,66.76,76.062,66.701,75.649z M66.254,73.268l7.109-7.11
	c0.139,0.337,0.264,0.68,0.393,1.022l-7.242,7.243C66.439,74.032,66.344,73.651,66.254,73.268z M65.639,71.054l6.855-6.856
	c0.156,0.32,0.295,0.65,0.439,0.975l-6.969,6.97C65.861,71.777,65.756,71.413,65.639,71.054z M64.879,68.985l6.652-6.651
	c0.168,0.305,0.32,0.622,0.48,0.932l-6.752,6.753C65.131,69.675,65.021,69.322,64.879,68.985z M63.959,67.076l6.525-6.524
	c0.184,0.291,0.348,0.595,0.523,0.891L64.42,68.03C64.27,67.71,64.123,67.389,63.959,67.076z M62.926,65.282l6.434-6.435
	c0.197,0.277,0.373,0.57,0.563,0.852l-6.463,6.462C63.289,65.863,63.105,65.573,62.926,65.282z M61.785,63.594l6.373-6.374
	c0.211,0.263,0.396,0.545,0.602,0.813l-6.369,6.369C62.201,64.124,61.984,63.866,61.785,63.594z M60.545,62.006l6.32-6.32
	c0.223,0.249,0.436,0.506,0.652,0.761l-6.338,6.338C60.971,62.521,60.762,62.261,60.545,62.006z M59.197,60.524l6.293-6.293
	c0.236,0.235,0.463,0.481,0.691,0.723l-6.311,6.311C59.645,61.019,59.432,60.761,59.197,60.524z M57.727,59.167l6.313-6.313
	c0.248,0.222,0.486,0.456,0.729,0.685l-6.301,6.301C58.223,59.612,57.979,59.387,57.727,59.167z M56.158,57.907l6.348-6.348
	c0.262,0.209,0.512,0.432,0.768,0.647l-6.307,6.306C56.705,58.3,56.428,58.109,56.158,57.907z M54.49,56.746l6.404-6.404
	c0.275,0.196,0.537,0.406,0.805,0.609l-6.35,6.352C55.068,57.108,54.777,56.93,54.49,56.746z M52.719,55.689l6.486-6.486
	c0.287,0.182,0.563,0.38,0.844,0.569l-6.438,6.439C53.313,56.038,53.023,55.853,52.719,55.689z M50.811,54.77l6.623-6.624
	c0.301,0.167,0.59,0.354,0.885,0.529l-6.555,6.555C51.447,55.076,51.135,54.912,50.811,54.77z M48.764,53.988l6.813-6.813
	c0.316,0.152,0.619,0.326,0.93,0.486l-6.707,6.707C49.457,54.233,49.111,54.107,48.764,53.988z M46.576,53.346l7.053-7.053
	c0.332,0.135,0.648,0.296,0.975,0.441l-6.902,6.901C47.332,53.525,46.953,53.44,46.576,53.346z M44.225,52.869l7.361-7.36
	c0.348,0.118,0.68,0.264,1.021,0.392l-7.156,7.156C45.051,52.974,44.633,52.934,44.225,52.869z M41.674,52.591l7.762-7.761
	c0.365,0.099,0.715,0.229,1.076,0.339l-7.514,7.513C42.563,52.634,42.117,52.619,41.674,52.591z M40.008,52.507
	c-0.383,0-0.756,0.042-1.135,0.057l8.297-8.296c0.383,0.078,0.754,0.191,1.133,0.281l-7.975,7.975
	C40.221,52.522,40.115,52.507,40.008,52.507z M35.731,52.878l9.041-9.041c0.406,0.054,0.797,0.148,1.199,0.215l-8.587,8.587
	C36.825,52.694,36.279,52.791,35.731,52.878z M32.087,53.693L42.201,43.58c0.438,0.026,0.869,0.068,1.303,0.11l-9.513,9.513
	C33.35,53.35,32.71,53.502,32.087,53.693z M27.231,55.721l12.198-12.198c0.194-0.003,0.383-0.016,0.579-0.016
	c0.279,0,0.553,0.015,0.83,0.021L29.875,54.491C28.97,54.858,28.084,55.262,27.231,55.721z M19.077,62.461l-15,15
	c0.032-0.516,0.071-1.03,0.125-1.539l32.22-32.22c0.509-0.054,1.023-0.093,1.539-0.125l-15,15
	C21.539,59.737,20.237,61.039,19.077,62.461z M4.708,72.587l28.378-28.378c0.567-0.111,1.138-0.211,1.713-0.299L4.41,74.3
	C4.497,73.725,4.597,73.153,4.708,72.587z M5.635,68.832l23.697-23.697c0.637-0.198,1.289-0.363,1.941-0.527L5.108,70.773
	C5.272,70.121,5.437,69.469,5.635,68.832z M7.408,64.231l17.323-17.323c0.795-0.374,1.612-0.708,2.438-1.024L6.383,66.669
	C6.699,65.844,7.034,65.026,7.408,64.231z M12.396,56.415l4.519-4.519c1.499-1.255,3.105-2.382,4.796-3.382L9.014,61.211
	C10.014,59.52,11.141,57.913,12.396,56.415z M14.991,69.375L4.028,80.338c-0.006-0.277-0.021-0.551-0.021-0.83
	c0-0.195,0.013-0.385,0.016-0.578l12.197-12.198C15.762,67.584,15.358,68.47,14.991,69.375z M13.704,73.491L4.19,83.004
	c-0.042-0.432-0.084-0.865-0.11-1.303l10.113-10.114C14.002,72.211,13.85,72.85,13.704,73.491z M13.14,76.883l-8.587,8.587
	c-0.067-0.4-0.162-0.793-0.215-1.199l9.041-9.041C13.291,75.78,13.194,76.325,13.14,76.883z M13.007,79.508
	c0,0.107,0.015,0.213,0.016,0.32l-7.975,7.975c-0.089-0.379-0.203-0.748-0.281-1.133l8.296-8.297
	C13.049,78.751,13.007,79.125,13.007,79.508z M13.182,82.498l-7.513,7.514c-0.11-0.361-0.241-0.711-0.339-1.076l7.761-7.762
	C13.119,81.617,13.134,82.063,13.182,82.498z M13.557,84.953l-7.156,7.154c-0.128-0.342-0.274-0.674-0.392-1.021l7.36-7.361
	C13.434,84.135,13.474,84.551,13.557,84.953z M14.135,87.201l-6.901,6.902c-0.145-0.326-0.306-0.643-0.441-0.973l7.053-7.055
	C13.94,86.453,14.025,86.832,14.135,87.201z M14.866,89.299l-6.706,6.707C8,95.695,7.826,95.393,7.674,95.076l6.813-6.813
	C14.607,88.613,14.733,88.957,14.866,89.299z M15.73,91.264L9.175,97.82C9,97.523,8.813,97.234,8.646,96.934l6.624-6.623
	C15.412,90.635,15.576,90.947,15.73,91.264z M16.712,93.111l-6.439,6.439c-0.189-0.283-0.388-0.559-0.569-0.846l6.486-6.486
	C16.353,92.523,16.538,92.813,16.712,93.111z M17.802,94.85l-6.352,6.352c-0.203-0.27-0.414-0.531-0.609-0.807l6.404-6.404
	C17.43,94.279,17.608,94.568,17.802,94.85z M19.012,96.467l-6.306,6.307c-0.216-0.256-0.438-0.506-0.647-0.768l6.347-6.348
	C18.609,95.928,18.8,96.205,19.012,96.467z M20.341,97.967l-6.301,6.301c-0.229-0.242-0.463-0.48-0.685-0.729l6.313-6.313
	C19.887,97.479,20.112,97.725,20.341,97.967z M21.765,99.371l-6.312,6.313c-0.242-0.23-0.487-0.457-0.723-0.691l6.293-6.295
	C21.261,98.934,21.519,99.146,21.765,99.371z M23.285,100.68l-6.338,6.338c-0.254-0.215-0.512-0.43-0.76-0.652l6.32-6.32
	C22.761,100.262,23.021,100.473,23.285,100.68z M24.903,101.891l-6.369,6.369c-0.269-0.205-0.551-0.391-0.813-0.602l6.374-6.373
	C24.366,101.484,24.624,101.701,24.903,101.891z M26.662,102.959l-6.462,6.463c-0.282-0.189-0.575-0.365-0.852-0.563l6.434-6.434
	C26.073,102.607,26.363,102.789,26.662,102.959z M28.53,103.92l-6.588,6.588c-0.296-0.176-0.601-0.34-0.891-0.523l6.524-6.523
	C27.889,103.623,28.21,103.77,28.53,103.92z M30.519,104.76l-6.753,6.752c-0.311-0.16-0.627-0.313-0.932-0.48l6.651-6.652
	C29.821,104.521,30.175,104.631,30.519,104.76z M32.643,105.465l-6.97,6.969c-0.326-0.145-0.655-0.283-0.975-0.439l6.856-6.855
	C31.913,105.256,32.277,105.361,32.643,105.465z M34.922,106.014l-7.243,7.242c-0.342-0.129-0.685-0.254-1.021-0.393l7.11-7.109
	C34.151,105.844,34.532,105.939,34.922,106.014z M37.388,106.375l-7.578,7.578c-0.362-0.111-0.733-0.203-1.09-0.324l7.429-7.428
	C36.562,106.26,36.969,106.336,37.388,106.375z M40.008,106.508c0.027,0,0.053-0.004,0.08-0.004l-8.044,8.045
	c-0.381-0.09-0.766-0.17-1.143-0.271l7.834-7.834C39.16,106.463,39.578,106.508,40.008,106.508z M43.104,106.316l-8.712,8.713
	c-0.401-0.066-0.804-0.133-1.201-0.213l8.388-8.389C42.09,106.398,42.6,106.375,43.104,106.316z M46.58,105.668l-9.671,9.672
	c-0.429-0.041-0.86-0.074-1.285-0.129l9.149-9.148C45.385,105.953,45.984,105.818,46.58,105.668z M50.854,104.223l-11.268,11.27
	c-0.458-0.01-0.915-0.021-1.367-0.049l10.344-10.342C49.342,104.84,50.107,104.551,50.854,104.223z M63.184,93.309L75.982,80.51
	c-0.014,0.5-0.043,0.996-0.078,1.492L42.5,115.404c-0.494,0.035-0.99,0.064-1.49,0.078l12.799-12.799
	C57.66,100.383,60.883,97.16,63.184,93.309z M75.5,85.234L45.734,115c-0.559,0.09-1.109,0.197-1.676,0.262l31.703-31.703
	C75.697,84.125,75.59,84.676,75.5,85.234z M74.736,88.826l-25.41,25.41c-0.623,0.166-1.246,0.336-1.883,0.469l27.762-27.762
	C75.072,87.58,74.902,88.203,74.736,88.826z M73.281,93.111l-19.67,19.67c-0.742,0.303-1.494,0.588-2.26,0.844l22.773-22.771
	C73.869,91.619,73.584,92.369,73.281,93.111z M70.064,99.156l-10.41,10.408c-1.105,0.723-2.238,1.41-3.424,2.012L72.076,95.73
	C71.475,96.916,70.787,98.049,70.064,99.156z"/>
</svg>
