<?xml version="1.0" encoding="utf-8"?>
<!-- Generator: Adobe Illustrator 16.0.0, SVG Export Plug-In . SVG Version: 6.00 Build 0)  -->
<!DOCTYPE svg PUBLIC "-//W3C//DTD SVG 1.1//EN" "http://www.w3.org/Graphics/SVG/1.1/DTD/svg11.dtd">
<svg version="1.1" id="Layer_1" xmlns="http://www.w3.org/2000/svg" xmlns:xlink="http://www.w3.org/1999/xlink" x="0px" y="0px"
	 width="31.985px" height="56.995px" viewBox="0 0 31.985 56.995" enable-background="new 0 0 31.985 56.995" xml:space="preserve">
<g>
	<g>
		<path fill-rule="evenodd" clip-rule="evenodd" d="M20.717,27.206v-4.968l-4.933-0.993c-0.004-0.061-0.147-1.029,0.986-1.987
			c0.942-0.795,2.411-1.901,2.626-3.799l4.414,7.521l-0.948-8.501l6.285,5.159l-3.844-7.116l6.682-3.948l-7.166,0.401l2.467-4.393
			l-4.239,1.99L22.482,1.19l-2.72,4.676L18.021,0l-0.881,5.561l-5.483-3.413l3.507,6.592l-4.096-0.396l3.733,2.308l-6.653,4.217
			l7.126-1.319l-2.277,4.6l4.456-2.34c-0.356,1.565-1.628,2.071-2.656,3.45c-1.111,1.491-0.991,1.956-0.987,1.987l-3.946,0.993
			v4.968c-0.044,0.018-0.086,0.039-0.13,0.056c1.693,0.65,4.752,1.298,9.996,0.937C13.977,30.841,8.585,30.62,5.292,29.9
			C2.051,32.599,0,36.522,0,41.259c0,8.69,6.901,15.736,15.415,15.736S30.83,49.949,30.83,41.259
			C30.83,34.562,26.493,29.478,20.717,27.206z"/>
	</g>
</g>
</svg>
