<?xml version="1.0" encoding="utf-8"?>
<!-- Generator: Adobe Illustrator 16.0.0, SVG Export Plug-In . SVG Version: 6.00 Build 0)  -->
<!DOCTYPE svg PUBLIC "-//W3C//DTD SVG 1.1//EN" "http://www.w3.org/Graphics/SVG/1.1/DTD/svg11.dtd">
<svg version="1.1" id="Layer_1" xmlns="http://www.w3.org/2000/svg" xmlns:xlink="http://www.w3.org/1999/xlink" x="0px" y="0px"
	 width="35.032px" height="26.08px" viewBox="0 0 35.032 26.08" enable-background="new 0 0 35.032 26.08" xml:space="preserve">
<g>
	<g>
		<path fill-rule="evenodd" clip-rule="evenodd" d="M31.698,0.97c-0.269-0.092-0.559-0.133-0.86-0.101L3.302,3.856
			C3.181,3.869,3.064,3.896,2.952,3.93l15.909,8.814L31.698,0.97z M35.021,20.878L33.042,2.642
			c-0.019-0.175-0.066-0.338-0.127-0.496L19.073,14.704L1.66,5.127C1.548,5.416,1.494,5.731,1.529,6.06l1.978,18.236
			c0.119,1.098,1.105,1.892,2.204,1.772l27.536-2.987C34.346,22.962,35.14,21.976,35.021,20.878z"/>
	</g>
</g>
</svg>
