<?xml version="1.0" encoding="utf-8"?>
<!-- Generator: Adobe Illustrator 16.0.0, SVG Export Plug-In . SVG Version: 6.00 Build 0)  -->
<!DOCTYPE svg PUBLIC "-//W3C//DTD SVG 1.1//EN" "http://www.w3.org/Graphics/SVG/1.1/DTD/svg11.dtd">
<svg version="1.1" id="Layer_1" xmlns="http://www.w3.org/2000/svg" xmlns:xlink="http://www.w3.org/1999/xlink" x="0px" y="0px"
	 width="29.806px" height="29.925px" viewBox="0 0 29.806 29.925" enable-background="new 0 0 29.806 29.925" xml:space="preserve">
<path d="M14.903,0C6.672,0,0,6.699,0,14.962c0,8.264,6.672,14.963,14.903,14.963c8.231,0,14.903-6.699,14.903-14.963
	C29.806,6.699,23.134,0,14.903,0z M20.25,14.319h-3.125v9.481h-3.748v-9.481h-1.875v-2.964h1.875V9.578
	c0-2.599,0.566-4.148,3.748-4.148h3.125v2.962l-1.547-0.067c-1.238,0-1.578,0.421-1.578,1.253v1.778l3.2-0.009L20.25,14.319z"/>
</svg>
