<?xml version="1.0" encoding="utf-8"?>
<!-- Generator: Adobe Illustrator 16.0.0, SVG Export Plug-In . SVG Version: 6.00 Build 0)  -->
<!DOCTYPE svg PUBLIC "-//W3C//DTD SVG 1.1//EN" "http://www.w3.org/Graphics/SVG/1.1/DTD/svg11.dtd">
<svg version="1.1" id="Layer_1" xmlns="http://www.w3.org/2000/svg" xmlns:xlink="http://www.w3.org/1999/xlink" x="0px" y="0px"
	 width="29.807px" height="29.925px" viewBox="0 0 29.807 29.925" enable-background="new 0 0 29.807 29.925" xml:space="preserve">
<path d="M20.626,7.435H9.097c-1.125,0-2.04,0.908-2.04,2.024v2.904h2.896c0.983-1.681,2.813-2.816,4.908-2.816
	s3.925,1.136,4.908,2.816h2.896V9.459C22.666,8.343,21.751,7.435,20.626,7.435z M21.957,10.251c0,0.388-0.319,0.704-0.71,0.704
	h-1.419c-0.391,0-0.71-0.316-0.71-0.704V8.843c0-0.388,0.319-0.704,0.71-0.704h1.419c0.391,0,0.71,0.316,0.71,0.704V10.251z
	 M19.039,14.372c-0.048-0.241-0.117-0.476-0.205-0.7c-0.005-0.014-0.01-0.028-0.015-0.042c-0.092-0.229-0.202-0.447-0.331-0.654
	c-0.004-0.006-0.007-0.011-0.01-0.017c-0.133-0.211-0.283-0.41-0.449-0.595c-0.779-0.863-1.908-1.409-3.168-1.409
	s-2.388,0.546-3.168,1.408c-0.166,0.186-0.316,0.385-0.449,0.596c-0.003,0.006-0.007,0.011-0.01,0.017
	c-0.129,0.207-0.239,0.426-0.331,0.654c-0.005,0.014-0.01,0.028-0.015,0.042c-0.088,0.225-0.157,0.459-0.205,0.7
	c-0.003,0.017-0.005,0.033-0.008,0.05c-0.045,0.245-0.071,0.498-0.071,0.757c0,2.334,1.906,4.225,4.257,4.225
	s4.257-1.891,4.257-4.225c0-0.259-0.026-0.512-0.071-0.757C19.043,14.405,19.042,14.389,19.039,14.372z M14.861,17.863
	c-1.495,0-2.705-1.2-2.705-2.685c0-0.511,0.151-0.982,0.401-1.389c-0.04,0.126-0.067,0.258-0.067,0.397
	c0,0.751,0.613,1.36,1.371,1.36c0.759,0,1.372-0.609,1.372-1.36c0-0.752-0.613-1.361-1.372-1.361c-0.14,0-0.271,0.026-0.399,0.065
	c0.409-0.247,0.885-0.396,1.399-0.396c1.494,0,2.705,1.2,2.705,2.684C17.566,16.663,16.355,17.863,14.861,17.863z M14.903,0
	C6.673,0,0,6.699,0,14.963c0,8.263,6.673,14.962,14.903,14.962s14.903-6.699,14.903-14.962C29.807,6.699,23.134,0,14.903,0z
	 M24.085,20.899c0,1.896-1.548,3.433-3.459,3.433H9.097c-1.911,0-3.459-1.536-3.459-3.433V9.459c0-1.896,1.548-3.433,3.459-3.433
	h11.529c1.911,0,3.459,1.536,3.459,3.433V20.899z"/>
</svg>
