<?xml version="1.0" encoding="utf-8"?>
<!-- Generator: Adobe Illustrator 16.0.0, SVG Export Plug-In . SVG Version: 6.00 Build 0)  -->
<!DOCTYPE svg PUBLIC "-//W3C//DTD SVG 1.1//EN" "http://www.w3.org/Graphics/SVG/1.1/DTD/svg11.dtd">
<svg version="1.1" id="Layer_1" xmlns="http://www.w3.org/2000/svg" xmlns:xlink="http://www.w3.org/1999/xlink" x="0px" y="0px"
	 width="540.001px" height="226.001px" viewBox="0 0 540.001 226.001" enable-background="new 0 0 540.001 226.001"
	 xml:space="preserve">
<g>
	<g>
		<path d="M539.155,128.106c-0.188-0.295-0.055-0.776-0.143-1.155c-0.798-3.42-3.516-5.025-6.859-4.088
			c-0.442,0.123-0.923,0.195-1.38,0.171c-2.33-0.12-4.662-0.244-6.986-0.446c-0.822-0.072-1.37,0.093-2.097,0.598
			c-0.861,0.599-2.102,0.729-3.202,0.859c-0.348,0.042-0.775-0.567-1.159-0.887c-0.568-0.474-1.071-1.234-1.708-1.37
			c-1.118-0.239-2.317-0.128-3.481-0.1c-0.46,0.011-0.975,0.38-1.363,0.259c-1.236-0.387-2.26-0.379-3.103,0.789
			c-0.144,0.2-1,0.204-1.032,0.116c-0.645-1.758-1.662-2.207-3.244-1.075c-0.045,0.033-0.246-0.225-0.379-0.23
			c-0.646-0.025-1.46-0.261-1.912,0.038c-1.146,0.76-1.925,0.49-2.552-0.547c-0.511-0.845-1.255-1.124-2.156-1.198
			c-2.72-0.222-5.435-0.502-8.157-0.651c-1.123-0.062-2.462-0.189-3.342,0.329c-1.082,0.638-1.812,0.516-2.795,0.057
			c-0.799-0.371-1.634-0.934-2.579-0.063c-0.424,0.391-0.915,0.123-1.34-0.436c-0.628-0.826-1.224-0.189-1.204,0.45
			c0.025,0.811,0.469,1.603,0.682,2.417c0.069,0.263-0.022,0.567-0.041,0.854c-0.337-0.084-0.705-0.111-1-0.273
			c-0.165-0.09-0.243-0.393-0.305-0.614c-0.347-1.252-0.295-3.034-1.11-3.63c-0.985-0.719-2.699-0.435-4.098-0.588
			c-0.233-0.025-0.473-0.117-0.697-0.088c-0.607,0.076-1.298,0.048-1.791,0.341c-0.737,0.438-1.039,0.163-1.749-0.176
			c-1.046-0.5-2.493-0.487-3.683-0.251c-0.993,0.196-1.817,1.13-2.798,1.545c-0.746,0.316-1.633,0.496-2.434,0.434
			c-0.851-0.065-1.574-0.57-0.806-1.59c0.578-0.768,0.26-0.883-0.501-0.906c-0.615-0.02-1.225-0.223-1.841-0.258
			c-1.406-0.08-2.839-0.283-4.216-0.102c-1.183,0.156-2.22,0.418-3.271-0.428c-0.624-0.502-1.519-0.794-1.939,0.253
			c-0.472,1.171-0.952,0.608-1.575,0.204c-1.357-0.877-2.753-1.435-4.234-0.201c-0.615,0.512-1.358,0.668-1.871-0.031
			c-0.823-1.126-1.85-1.24-3.112-1.086c-0.754,0.094-1.548-0.174-2.327-0.24c-1.008-0.086-2.138-0.946-2.95,0.439
			c-0.051,0.088-0.411,0.043-0.608-0.012c-3.138-0.857-4.003-0.867-7.493-0.074c-0.146,0.033-0.328,0.016-0.463-0.045
			c-1.386-0.629-2.745,0.237-4.063,0.092c-1.447-0.16-2.828-0.859-4.261-1.233c-0.589-0.154-1.242-0.127-1.857-0.077
			c-0.352,0.029-0.941,0.215-0.985,0.424c-0.284,1.345-1.002,0.948-1.711,0.483c-0.623-0.408-1.184-1.41-1.296,0.402
			c-0.053,0.86-1.821,0.615-2.427-0.397c-0.897-1.501-1.313-1.76-2.423-0.871c-1.713,1.372-3.11,0.941-4.643-0.234
			c-0.516-0.396-1.265-0.624-1.925-0.668c-2.491-0.167-4.988-0.248-7.484-0.312c-0.535-0.014-1.074,0.248-1.612,0.256
			c-2.095,0.031-4.249,0.318-6.271-0.066c-2.581-0.491-5.086-0.78-7.668-0.254c-0.608,0.123-1.286,0.324-1.851,0.176
			c-3.55-0.93-7.206-0.914-10.779-0.779c-4.444,0.167-8.92-0.887-13.334,0.307c-0.218,0.059-0.478,0.046-0.699-0.007
			c-2.711-0.649-5.453-0.331-8.19-0.326c-2.897,0.005-5.835-0.475-8.683-0.137c-3.228,0.382-6.412-0.038-9.608,0.154
			c-1.632,0.098-2.917-0.431-3.688-1.969c-0.614-1.224-1.638-1.668-2.938-1.346c-0.819,0.203-1.621,0.5-2.401,0.827
			c-1.296,0.542-2.521,1.314-3.859,1.684c-4.397,1.217-8.883,1.9-13.466,1.745c-1.176,0.001-2.353,0.011-3.529-0.003
			c-0.548-0.006-1.108,0.007-1.641-0.099c-2.608-0.517-3.328-2.193-1.875-4.427c1.196-1.84,2.445-3.647,3.705-5.446
			c2.873-4.102,5.922-8.046,7.967-12.725c1.631-3.729,2.747-7.473,3.109-11.506c0.451-5.021-3.495-11.436-8.346-12.573
			c-3.92-0.919-7.762-1.604-11.825-1.421c-6.672,0.302-12.998,1.731-18.974,4.725c-2.171,1.087-4.305,2.278-6.553,3.174
			c-1.855,0.739-3.185,1.926-4.267,3.529c-1.521,2.253-1.285,4.415,0.602,6.373c1.658,1.721,3.477,2.613,5.985,2.667
			c2.209,0.047,3.842-0.792,5.296-2.088c2.886-2.572,6.316-3.965,9.852-5.333c2.461-0.952,5.011-1.168,7.512-1.757
			c2.766-0.651,5.417-0.416,8.073,0.578c1.06,0.396,1.654,1.042,1.542,2.063c-0.333,3.02-0.447,6.049-2.368,8.725
			c-2.559,3.564-4.964,7.212-7.861,10.546c-2.816,3.241-5.184,6.875-7.748,10.335c-0.898,1.212-1.035,1.217-2.244,0.403
			c-2.013-1.356-3.994-2.769-6.08-4.003c-4.155-2.458-6.163-6.792-9.135-10.283c-0.049-0.057-0.055-0.147-0.093-0.215
			c-0.872-1.578-1.647-3.22-2.643-4.716c-1.62-2.436-4.651-3.184-7.518-2.017c-1.92,0.782-3.397,3.876-3.083,6.318
			c0.585,4.538-1.99,10.291-6.375,12.808c-1.095,0.629-2.5,0.438-3.104-0.696c-1.359-2.551-2.81-5.121-3.653-7.86
			c-0.648-2.105-0.499-4.478-0.573-6.736c-0.079-2.423-0.535-4.874-1.995-6.665c-1.272-1.56-3.276-2.813-5.635-2.048
			c-2.35,0.762-4.44,1.979-4.486,4.796c-0.043,2.655-0.022,5.368,0.464,7.962c0.676,3.61,1.833,7.127,2.733,10.698
			c0.195,0.775,0.17,1.606,0.246,2.412c-0.903-0.124-1.809-0.233-2.708-0.383c-0.22-0.037-0.414-0.218-0.626-0.319
			c-3.603-1.732-7.188-3.5-10.816-5.178c-1.983-0.917-4.046-1.66-6.057-2.52c-1.853-0.792-2.055-1.78-0.704-3.198
			c1.298-1.362,2.626-2.696,3.887-4.092c2.354-2.609,4.861-5.109,6.951-7.92c2.752-3.7,5.248-7.601,7.699-11.513
			c3.539-5.646,7.161-11.26,10.301-17.128c1.537-2.873,2.792-5.893,4.586-8.657c1.478-2.277,1.766-5.142,3.348-7.426
			c0.569-0.821,0.847-1.851,1.225-2.798c0.667-1.673,1.059-3.521,2.019-4.999c1.536-2.366,2.385-4.926,3.096-7.593
			c0.321-1.204,0.695-2.419,1.246-3.53c1.494-3.013,2.086-6.009,0.753-9.282c-1.206-2.961-4.583-4.371-7.551-3.175
			c-2.272,0.916-3.382,2.868-3.708,4.842c-0.536,3.247-1.961,6.099-2.936,9.142c-1.181,3.689-2.906,7.11-4.354,10.665
			c-0.532,1.307-0.829,2.728-1.484,3.963c-1.392,2.625-3.066,5.106-3.603,8.114c-0.066,0.373-0.29,0.728-0.486,1.064
			c-1.218,2.098-2.465,4.177-3.669,6.282c-1.594,2.788-3.323,5.516-4.683,8.416c-1.112,2.37-2.266,4.652-4.025,6.602
			c-0.313,0.346-0.561,0.76-0.794,1.169c-2.147,3.767-4.861,7.116-7.65,10.407c-0.333,0.392-0.82,0.651-1.236,0.972
			c-0.279-0.517-0.66-1.007-0.809-1.56c-0.137-0.512-0.052-1.093-0.019-1.641c0.125-2.115,0.135-4.248,0.434-6.338
			c0.531-3.725,1.072-7.441,1.061-11.214c0-0.076,0.041-0.152,0.05-0.23c0.557-4.423,1.138-8.843,1.657-13.271
			c0.219-1.869,0.324-3.751,0.452-5.629c0.176-2.583,0.525-5.175,0.435-7.75c-0.126-3.596-0.766-7.175-0.851-10.769
			c-0.063-2.672-1.209-4.785-2.52-6.904c-1.936-3.131-6.675-3.47-8.795-1.182c-1.196,1.292-1.787,2.72-2.328,4.261
			c-0.679,1.936-0.37,3.841,0.969,5.288c1.257,1.359,1.648,2.915,1.541,4.542c-0.256,3.885,0.191,7.757-0.46,11.682
			c-0.571,3.44-0.424,7.011-1.017,10.52c-0.596,3.524-0.663,7.138-0.964,10.713c-0.093,1.096-0.086,2.213-0.309,3.282
			c-1.192,5.721-1.003,11.563-1.58,17.337c-0.078,0.776-0.143,1.553-0.199,2.33c-0.174,2.418-0.417,4.835-0.482,7.256
			c-0.043,1.595-0.424,2.544-1.871,2.787c-2.17,0.363-4.372,0.414-6.5-0.384c-1.06-0.397-1.674-1.154-1.776-2.276
			c-0.071-0.781-0.084-1.571-0.076-2.356c0.04-3.523,0.492-7.045-0.006-10.57c-0.099-0.699-0.216-1.413-0.176-2.112
			c0.263-4.694,0.433-9.381-0.241-14.062c-0.201-1.395-0.258-2.813-0.341-4.222c-0.207-3.517-0.285-7.045-0.646-10.544
			c-0.111-1.075-0.829-2.179-1.52-3.075c-0.705-0.914-1.691-1.624-2.604-2.36c-2.2-1.774-6.447-1.136-7.452,1.181
			c-1.368,3.154-2.969,6.25-3.07,9.813c-0.011,0.385-0.155,0.769-0.25,1.149c-1.019,4.1-2.109,8.184-3.032,12.306
			c-0.497,2.215-0.44,4.581-1.122,6.722c-0.667,2.098-0.674,4.159-0.722,6.271c-0.027,1.176,0.119,2.428-0.228,3.512
			c-0.739,2.311-0.706,4.648-0.707,7.005c-0.001,3.052,0.035,6.104-0.018,9.156c-0.022,1.25-0.241,2.496-0.361,3.745
			c-0.158,1.648-1.104,2.719-2.499,3.473c-2.299,1.242-3.544,3.49-4.976,5.497c-1.127,1.579-1.803,3.475-2.752,5.19
			c-1.101,1.988-2.656,2.024-3.859,0.027c-0.682-1.131-1.064-2.439-1.637-3.641c-0.292-0.614-0.569-1.407-1.09-1.709
			c-1.554-0.902-2.57-2.244-3.627-3.624c-0.806-1.052-1.777-2.011-2.806-2.849c-3.769-3.071-8.005-3.687-12.58-2.181
			c-4.007,1.319-7.012,4.066-9.854,7.03c-0.318,0.333-0.549,0.763-0.767,1.177c-1.566,2.979-3.129,5.959-4.662,8.954
			c-0.244,0.477-0.309,1.042-0.492,1.554c-0.529,1.476-1.034,2.963-1.647,4.402c-0.148,0.348-0.705,0.762-1.028,0.726
			c-0.32-0.035-0.759-0.562-0.838-0.938c-0.352-1.687-0.757-3.389-0.841-5.101c-0.183-3.754-0.203-7.518-0.251-11.277
			c-0.038-2.882-0.3-5.772,0.434-8.629c0.21-0.818,0.068-1.723,0.131-2.584c0.091-1.251,0.161-2.509,0.347-3.748
			c0.77-5.122,1.653-10.229,2.345-15.361c0.314-2.334,0.294-4.803-0.833-6.905c-0.847-1.58-0.517-2.64,0.467-3.815
			c1.661-1.986,3.295-3.994,4.969-5.969c1.673-1.975,3.287-4.013,5.094-5.858c4.109-4.193,8.263-8.345,12.51-12.396
			c2.945-2.809,5.973-5.552,9.151-8.088c3.423-2.731,7.067-5.184,10.609-7.766c1.646-1.199,3.277-2.417,4.917-3.624
			c1.51-1.111,2.985-2.274,4.543-3.313c2.212-1.475,4.482-2.861,6.734-4.275c1.256-0.789,2.56-1.506,3.78-2.346
			c2.703-1.861,5.234-4.025,8.099-5.578c1.603-0.869,2.598-2.21,3.888-3.294c1.198-1.006,1.588-3.999,0.911-5.062
			c-0.922-1.445-2.438-1.224-3.832-1.181c-0.688,0.021-1.422,0.145-2.042,0.429c-4.263,1.949-8.788,3.297-12.786,5.864
			c-2.943,1.89-6.259,3.157-9.042,5.346c-0.984,0.773-2.086,1.397-3.14,2.082c-3.874,2.517-7.918,4.808-11.586,7.597
			c-5.613,4.269-10.976,8.872-16.428,13.354c-1.75,1.438-3.497,2.89-5.151,4.438c-0.967,0.904-1.697,2.058-2.623,3.013
			c-2.232,2.303-4.583,4.493-6.763,6.844c-2.712,2.926-5.444,5.855-7.894,8.997c-1.829,2.345-3.553,4.744-5.567,6.963
			c-5.124,5.646-9.026,12.204-13.216,18.54c-1.682,2.544-3.3,5.131-4.94,7.703c-0.253,0.396-0.514,0.799-0.689,1.233
			c-1.122,2.78-2.443,5.438-4.389,7.752c-0.286,0.34-0.368,0.855-0.533,1.293c-0.745,1.981-1.477,3.967-2.229,5.945
			c-0.723,1.903-1.459,3.801-2.203,5.696c-0.658,1.677-1.318,3.353-2.009,5.015c-0.539,1.298-1.365,2.525-1.643,3.871
			c-0.746,3.605-2.555,6.864-3.212,10.492c-0.292,1.619-0.782,3.207-1.265,4.783c-0.382,1.247-0.83,1.323-1.786,0.387
			c-0.333-0.327-0.683-0.684-0.882-1.096c-0.957-1.977-1.967-3.937-2.766-5.979c-1.051-2.685-1.79-5.496-2.9-8.154
			c-1.784-4.268-3.556-8.517-4.917-12.958c-1.723-5.625-3.963-11.09-5.656-16.723c-1.464-4.873-2.5-9.876-3.675-14.834
			c-0.396-1.669-0.679-3.368-0.945-5.065c-0.254-1.626-0.327-3.285-0.643-4.897c-0.661-3.372-1.635-6.694-2.093-10.09
			c-0.419-3.099-3.571-5.85-7.165-4.872c-2.348,0.639-3.68,2.176-3.445,4.607c0.279,2.884,0.646,5.764,1.1,8.626
			c0.305,1.92,0.681,3.854,1.278,5.699c1.769,5.463,1.74,11.337,3.899,16.712c0.426,1.061,0.296,2.335,0.647,3.439
			c1.065,3.355,2.243,6.674,3.371,10.009c2.034,6.014,4.007,12.049,6.116,18.037c1.169,3.319,2.518,6.579,3.874,9.829
			c0.903,2.164,2,4.246,2.941,6.396c1.13,2.577,2.129,5.213,3.292,7.775c0.95,2.095,0.883,2.494-1.396,3.116
			c-2.555,0.696-5.149,1.248-7.731,1.841c-1.222,0.28-2.459,0.498-3.685,0.767c-2.215,0.485-4.454,0.891-6.63,1.518
			c-1.406,0.404-2.713,0.52-4.146,0.182c-1.118-0.264-2.34-0.422-3.46-0.254c-1.853,0.275-3.675,0.802-5.482,1.32
			c-1.048,0.301-2.092,0.699-3.047,1.221c-1.571,0.857-2.859,3.309-2.334,4.773c0.752,2.097,1.23,4.479,3.741,5.407
			c0.353,0.131,0.657,0.427,0.95,0.684c1.408,1.235,3.001,1.585,4.819,1.147c4.102-0.988,8.209-1.956,12.322-2.901
			c1.968-0.452,3.955-0.819,5.927-1.254c1.296-0.286,2.577-0.643,3.873-0.931c2.897-0.644,5.802-1.252,8.699-1.898
			c1.731-0.387,3.386-0.461,4.986,0.549c1.949,1.231,4.089,1.92,6.398,2.194c2.053,0.243,3.52-0.551,4.561-2.202
			c0.497-0.789,0.755-1.725,1.163-2.573c0.798-1.658,1.877-2.693,3.965-2.732c1.847-0.034,3.684-0.672,5.524-1.048
			c0.919-0.188,1.831-0.408,2.754-0.574c2.156-0.387,4.318-0.744,6.476-1.122c1.537-0.269,3.072-0.546,4.607-0.824
			c3.768-0.682,7.54-1.344,11.302-2.058c1.686-0.32,3.375-1.125,5.022-1.028c2.042,0.12,3.864-0.349,5.753-0.854
			c1.206-0.322,2.451-0.508,3.683-0.727c1.768-0.313,3.541-0.599,5.311-0.897c1.695-0.286,3.388-0.595,5.087-0.854
			c1.006-0.153,2.036-0.163,3.034-0.349c3.845-0.714,7.668-1.551,11.524-2.197c5.393-0.903,10.804-1.697,16.212-2.499
			c2.542-0.377,5.118-0.55,7.639-1.026c1.922-0.363,2.912,0.66,3.891,1.975c1.875,2.516,3.764,5.023,5.677,7.511
			c1.153,1.499,2.407,2.876,4.148,3.765c1.038,0.53,2.103,1.162,2.894,1.998c2.646,2.794,6.054,3.081,9.542,3.101
			c0.63,0.003,1.364-0.364,1.869-0.78c0.78-0.644,1.45-1.439,2.081-2.238c0.948-1.2,0.806-2.348-0.445-3.234
			c-0.827-0.584-1.754-1.038-2.668-1.486c-3.072-1.504-5.669-3.684-8.031-6.079c-1.335-1.354-2.25-3.145-3.251-4.801
			c-0.687-1.138-0.099-2.024,1.372-2.263c2.699-0.438,5.399-0.875,8.1-1.305c2.259-0.359,3.743,0.568,4.396,2.821
			c0.349,1.204,0.579,2.442,0.868,3.664c0.85,3.587,1.891,7.011,5.852,8.474c1.548,0.571,4.28,0.166,5.491-1.027
			c1.158-1.142,1.517-3.405,0.866-5.064c-0.741-1.889-1.55-3.766-2.114-5.709c-1.174-4.053-0.278-5.186,3.999-5.324
			c0.468-0.015,0.939,0.069,1.408,0.062c0.546-0.009,1.096-0.032,1.635-0.112c1.62-0.241,3.227-0.592,4.854-0.754
			c2.566-0.256,5.143-0.388,7.715-0.579c1.638-0.122,3.275-0.245,4.911-0.388c2.025-0.177,4.049-0.363,6.072-0.563
			c3.256-0.321,6.378-0.029,9.311,1.633c4.355,2.468,8.733,4.899,13.157,7.239c3.866,2.046,7.804,3.957,11.723,5.9
			c1.335,0.66,2.715,1.227,4.068,1.849c4.125,1.894,8.215,3.869,12.383,5.661c2.366,1.018,4.809,1.953,7.307,2.545
			c4.205,0.996,8.478,1.561,12.672-0.225c2.481-1.057,2.73-1.53,1.66-4.016c-0.284-0.658-0.876-1.354-1.506-1.658
			c-1.543-0.745-3.177-1.314-4.802-1.873c-2.146-0.737-4.381-1.25-6.471-2.119c-4.112-1.712-8.166-3.57-12.215-5.432
			c-2.348-1.078-4.661-2.237-6.949-3.438c-1.865-0.978-3.68-2.053-5.499-3.115c-2.025-1.184-4.041-2.384-6.029-3.629
			c-0.27-0.168-0.533-0.674-0.474-0.954c0.062-0.288,0.499-0.657,0.812-0.7c0.844-0.114,1.713-0.029,2.564-0.102
			c4.911-0.416,9.818-0.871,14.729-1.279c2.171-0.18,4.37-0.134,6.516-0.457c2.114-0.32,4.166-0.557,6.298-0.127
			c1.372,0.277,2.814,0.398,4.211,0.324c4.829-0.256,9.65-0.654,14.479-0.947c4.218-0.255,8.439-0.433,12.659-0.658
			c1.56-0.084,3.116-0.282,4.676-0.295c3.659-0.029,7.32,0.011,10.979,0.045c2.969,0.027,5.937,0.09,8.905,0.129
			c1.016,0.014,2.032,0.006,3.049-0.002c1.866-0.012,3.732-0.029,5.599-0.047c0.623-0.006,1.246-0.018,1.869-0.027
			c2.658-0.041,5.32-0.189,7.974-0.098c4.459,0.152,8.912,0.486,13.37,0.682c1.161,0.051,2.332-0.192,3.497-0.182
			c2.503,0.022,5.006,0.123,7.508,0.191c0.696,0.02,1.396-0.002,2.088,0.07c1.238,0.129,2.479,0.498,3.703,0.441
			c3.595-0.163,7.176,0.697,10.777,0.084c0.668-0.114,1.396,0.127,2.097,0.194c0.466,0.045,1.018,0.253,1.386,0.079
			c1.911-0.908,3.813-0.011,5.696,0.016c4.891,0.068,9.776,0.48,14.664,0.736c2.263,0.118,4.543,0.406,6.786,0.237
			c3.102-0.234,6.154-0.407,9.211,0.345c0.737,0.182,1.67,0.331,2.291,0.031c0.869-0.42,1.488-1.931,2.41-0.09
			c0.016,0.032,0.35-0.008,0.386-0.084c0.634-1.332,1.162-0.268,1.8,0.012c0.833,0.366,1.734,0.76,2.617,0.787
			c1.693,0.053,3.394-0.209,5.092-0.212c0.912-0.001,1.974,0.024,2.701,0.474c0.979,0.604,1.695,0.531,2.588,0.003
			c0.457-0.271,1.011-0.403,1.539-0.503c0.121-0.023,0.316,0.34,0.478,0.525c-0.576,0.402-0.636,0.69,0.185,0.689
			c2.298-0.004,4.63-0.365,6.795,0.818c0.235,0.129,0.615-0.008,0.928-0.021c5.106-0.211,10.146,0.534,15.203,1.052
			c5.057,0.519,10.127,0.92,15.175,1.514c2.372,0.279,4.794,0.053,7.13,0.801c0.98,0.314,2.013,0.125,2.834-0.693
			c0.636-0.635,1.523-0.793,2.119-0.158c1.652,1.76,3.766,1.518,5.858,1.753c2.867,0.321,5.769,0.771,8.316,2.294
			c1.066,0.639,2.026,1.109,3.368,1.267c1.923,0.225,3.393-0.099,5.066-1.029c1.658-0.922,3.317-1.49,2.847-3.854
			c-0.013-0.061,0.045-0.168,0.102-0.203C540.637,130.771,540.025,129.476,539.155,128.106z M82.562,138.184
			c-1.696,0.286-3.411,0.46-5.103,0.763c-1.462,0.263-2.896,0.687-4.358,0.951c-3.08,0.559-6.17,1.063-9.258,1.58
			c-0.385,0.064-0.779,0.105-1.169,0.111c-2.12,0.029-2.814-0.868-2.318-2.977c0.593-2.517,0.763-5.242,1.874-7.505
			c1.812-3.692,1.75-7.987,4.083-11.478c0.71-1.063,0.803-2.521,1.321-3.738c1.685-3.958,3.238-7.99,5.215-11.798
			c2.018-3.888,4.474-7.546,6.747-11.3c0.161-0.266,0.347-0.568,0.601-0.714c0.371-0.213,0.912-0.514,1.2-0.382
			c0.313,0.144,0.521,0.725,0.586,1.145c0.069,0.449-0.083,0.933-0.139,1.401l0.265,0.021c-0.238,3.589-0.643,7.177-0.67,10.769
			c-0.032,4.137,0.152,8.285,0.457,12.412c0.294,3.977,0.843,7.937,1.328,11.897c0.094,0.768,0.396,1.513,0.632,2.259
			c0.332,1.05,0.766,2.072,1.022,3.138C85.399,136.91,84.781,137.809,82.562,138.184z M98.297,134.628
			c-0.809,0.471-1.592,0.139-1.966-0.623c-0.504-1.027-0.809-2.152-1.252-3.381c0.296-0.434,0.575-0.842,0.854-1.25
			c0.324,0.267,0.74,0.474,0.953,0.811c0.536,0.846,1.002,1.738,1.451,2.635C98.634,133.414,99.191,134.109,98.297,134.628z
			 M122.394,115.392c-0.714,1.87-0.945,3.911-2.431,5.514c-1.959,2.113-3.654,4.491-6.211,5.951
			c-1.056,0.603-2.275,1.51-3.447,0.538c-1.079-0.894-0.957-2.374-0.489-3.517c0.943-2.3,2.047-4.547,3.258-6.718
			c0.75-1.345,1.708-2.619,2.786-3.714c0.649-0.659,1.708-0.911,2.601-1.355c1.116,0.404,2.1,0.653,2.976,1.109
			C122.26,113.63,122.727,114.518,122.394,115.392z M179.647,122.26c-1.899,0.411-3.813,0.759-5.72,1.136
			c-0.024-0.128-0.048-0.256-0.072-0.385c-0.99,0.16-1.977,0.344-2.971,0.473c-0.695,0.091-1.406,0.195-2.098,0.139
			c-1.378-0.113-1.586-0.5-1.219-1.822c0.546-1.965,1.009-3.956,1.614-5.903c0.343-1.106,0.9-2.145,1.354-3.217
			c0.387-0.913,1.129-1.147,2.049-1.299c1.692-0.281,3.359-0.716,5.033-1.102c0.609-0.141,1.2-0.38,1.815-0.474
			c1.583-0.242,2.418,0.416,2.487,1.981c0.106,2.416,0.159,4.833,0.238,7.251C182.232,121.259,181.851,121.784,179.647,122.26z
			 M207.475,119.23c-1.136,0.28-2.3,0.492-3.465,0.6c-2.489,0.228-4.986,0.371-8.421,0.617c-1.793,0.086-2-0.07-2.33-2.748
			c-0.115-0.932-0.189-1.875-0.185-2.813c0.009-2.044,1.039-2.846,3.057-2.277c1.577,0.444,3.13,1.006,4.645,1.637
			c1.948,0.811,3.848,1.742,5.765,2.626c0.426,0.196,0.878,0.368,1.247,0.646c0.285,0.215,0.707,0.698,0.633,0.851
			C208.245,118.734,207.852,119.137,207.475,119.23z M256.207,115.199c-0.36,0.141-0.746,0.257-1.129,0.293
			c-2.167,0.203-4.336,0.379-6.505,0.563c-0.003-0.047-0.006-0.094-0.009-0.141c-1.164,0.06-2.334,0.224-3.491,0.155
			c-1.938-0.114-2.304-0.948-1.177-2.563c1.027-1.471,2.06-2.945,3.194-4.333c0.982-1.203,1.591-1.199,2.769-0.317
			c1.863,1.397,3.737,2.78,5.61,4.163c0.313,0.231,0.677,0.401,0.965,0.658C257.198,114.356,257.124,114.841,256.207,115.199z
			 M317.813,103.66c0.793,3.202,3.121,5.054,5.961,6.103c2.578,0.952,5.286-0.377,6.51-2.857c0.865-1.755,1.488-3.628,2.275-5.423
			c1.07-2.44,2.101-4.907,3.33-7.266c0.809-1.551,2.197-1.495,2.708,0.122c0.569,1.803,1.797,3.09,2.784,4.577
			c1.845,2.778,7.719,4.696,10.544,1.534c0.36-0.404,0.835-0.711,1.274-1.039c1.146-0.851,1.681-0.821,2.624,0.178
			c0.321,0.34,0.506,0.838,0.868,1.107c1.651,1.22,3.071,3.035,5.54,2.3c2.539-0.755,4.081-2.907,3.932-5.712
			c-0.24-4.523,0.259-9.09-0.798-13.569c-0.102-0.434,0.029-0.935,0.102-1.397c0.703-4.54-1.593-7.987-6.06-9.076
			c-1.823-0.444-3.388-0.008-4.74,1.316c-1.319,1.292-2.204,2.818-2.835,4.549c-0.184,0.502-0.778,1.172-1.215,1.196
			c-0.928,0.05-0.9-0.876-0.99-1.565c-0.031-0.233-0.039-0.471-0.039-0.706c-0.002-3.355-0.001-6.711-0.001-10.067
			c0.1-0.026,0.2-0.052,0.3-0.078c-0.454-1.804-0.969-3.596-1.345-5.416c-0.355-1.729-1.452-2.741-2.966-3.366
			c-0.865-0.357-1.793-0.571-2.702-0.809c-1.722-0.45-3.188,0.159-4.152,1.512c-0.799,1.12-1.437,2.448-1.782,3.779
			c-0.592,2.275-1.094,4.529-2.364,6.579c-0.727,1.173-1.048,2.595-1.586,3.89c-0.479,1.151-0.964,2.303-1.534,3.409
			c-0.142,0.274-0.667,0.56-0.938,0.498c-0.259-0.06-0.564-0.551-0.593-0.876c-0.119-1.324-0.29-2.672-0.164-3.984
			c0.284-2.959,0.703-5.907,1.135-8.849c0.133-0.906,0.582-1.764,0.723-2.669c0.603-3.86,1.148-7.729,1.698-11.598
			c0.044-0.304,0.016-0.641-0.07-0.937c-0.553-1.912-1.657-3.492-3.586-4.006c-1.398-0.373-2.95-0.218-4.433-0.21
			c-1.137,0.006-1.941,0.625-2.268,1.725c-0.557,1.874-1.209,3.738-1.543,5.654c-0.388,2.229-0.365,4.528-0.717,6.766
			c-0.63,4.018-1.58,7.991-2.077,12.022c-0.634,5.13-0.586,10.367-1.518,15.431c-0.77,4.188,0.584,8.314-0.356,12.419
			c-0.064,0.284,0.064,0.621,0.136,0.925C317.187,101.072,317.492,102.368,317.813,103.66z M376.549,107.858
			c0.294,0.043,0.559,0.276,0.844,0.406c2.04,0.934,3.886,0.436,5.042-1.501c0.514-0.862,0.841-1.855,1.134-2.825
			c0.476-1.572,0.903-3.163,1.252-4.768c0.232-1.066,0.275-2.172,0.432-3.256c0.223-1.55,0.327-3.137,0.742-4.636
			c0.648-2.335,1.357-4.681,2.34-6.887c0.719-1.614,1.894-3.031,2.935-4.486c0.161-0.225,0.71-0.277,1.049-0.222
			c0.159,0.026,0.354,0.497,0.351,0.765c-0.03,2.894-0.166,5.789-0.13,8.682c0.027,2.159-0.229,4.356,1.116,6.356
			c1.187,1.763,2.801,2.981,4.555,3.976c1.646,0.933,3.464,0.691,4.759-0.716c1.901-2.068,3.759-4.212,5.355-6.519
			c2.99-4.321,5.75-8.801,8.667-13.174c1.26-1.887,2.448-1.772,3.436,0.252c0.754,1.548,1.427,3.136,2.137,4.705
			c0.549,1.212,1.151,2.402,1.639,3.638c1.293,3.274,2.718,6.476,4.64,9.441c0.844,1.302,1.54,2.699,2.373,4.008
			c1.302,2.045,2.467,4.201,4.568,5.609c0.972,0.652,1.924,0.904,3.097,0.609c2.557-0.642,3.383-1.465,3.77-4.242
			c0.137-0.98,0.402-2.145,0.029-2.958c-1.532-3.337-3.302-6.563-4.956-9.844c-1.162-2.305-2.352-4.601-3.394-6.96
			c-0.817-1.851-1.376-3.815-2.153-5.687c-0.388-0.934-1.05-1.749-1.51-2.658c-1.022-2.018-1.867-4.139-3.019-6.078
			c-2.187-3.685-5.388-5.506-9.799-5.047c-1.605,0.167-2.896,0.797-3.9,1.919c-1.619,1.81-3.106,3.74-4.634,5.632
			c-0.642,0.794-1.177,1.686-1.888,2.404c-0.319,0.323-1.057,0.571-1.418,0.416c-0.36-0.154-0.669-0.851-0.679-1.317
			c-0.02-0.852,0.198-1.709,0.367-2.923c-0.351-1.597-0.662-3.54-1.213-5.413c-0.839-2.85-5.232-4.744-7.91-3.474
			c-2.025,0.96-3.432,2.43-3.691,4.801c-0.209,1.906-0.892,3.642-1.984,5.233c-0.983,1.432-1.605,1.457-2.459-0.111
			c-0.712-1.308-1.271-2.699-1.968-4.017c-0.771-1.458-1.648-1.616-2.742-0.479c-2.812,2.924-5.043,6.191-5.958,10.243
			c-0.258,1.14-0.716,2.235-1.088,3.349c-0.67,2.003-1.504,3.967-1.984,6.015c-0.892,3.8-2.474,7.444-2.628,11.415
			c-0.006,0.151-0.074,0.308-0.146,0.445c-1.044,2.004-0.547,3.902,0.164,5.906C372.878,106.112,374.185,107.51,376.549,107.858z
			 M385.097,52.594c1.427-0.744,2.563-2.035,3.962-2.847c2.014-1.169,2.612-3.468,4.214-4.947c0.222-0.206,0.207-0.739,0.196-1.117
			c-0.065-2.221-2.139-5.114-4.154-5.843c-2.2-0.796-5.25-0.006-6.855,1.806c-2.248,2.537-3.84,5.347-3.545,7.915
			C378.764,52.413,381.679,54.375,385.097,52.594z M24.549,208.853c-1.801,1.892-2.701,4.404-2.701,7.54
			c0,2.856,0.831,5.173,2.493,6.946c1.662,1.775,3.809,2.662,6.443,2.662c1.693,0,3.319-0.323,4.877-0.971v-1.293
			c-1.406,0.691-2.997,1.037-4.77,1.037c-2.222,0-4.056-0.762-5.502-2.283c-1.447-1.523-2.17-3.602-2.17-6.233
			c0-2.731,0.757-4.919,2.271-6.563c1.514-1.645,3.48-2.466,5.899-2.466c1.496,0,2.92,0.305,4.273,0.916v-1.415
			c-1.353-0.476-2.768-0.714-4.246-0.714C28.639,206.017,26.35,206.962,24.549,208.853z M68.822,215.18H57.79v-8.84h-1.331v19.324
			h1.331v-9.271h11.032v9.271h1.317V206.34h-1.317V215.18z M99.887,206.017c-2.875,0-5.145,0.928-6.806,2.782
			c-1.662,1.855-2.493,4.323-2.493,7.405c0,2.902,0.809,5.26,2.426,7.074c1.617,1.815,3.787,2.723,6.51,2.723
			c2.759,0,4.963-0.916,6.611-2.749c1.648-1.833,2.473-4.349,2.473-7.546c0-2.894-0.804-5.231-2.412-7.015
			C104.588,206.908,102.485,206.017,99.887,206.017z M105.155,222.437c-1.389,1.559-3.274,2.338-5.657,2.338
			c-2.284,0-4.112-0.788-5.482-2.365c-1.371-1.576-2.056-3.694-2.056-6.354c0-2.633,0.723-4.762,2.17-6.388s3.29-2.438,5.529-2.438
			c2.338,0,4.186,0.766,5.543,2.297c1.357,1.532,2.036,3.664,2.036,6.395C107.238,218.707,106.543,220.878,105.155,222.437z
			 M135.332,216.716v-0.054c1.434-0.27,2.548-0.872,3.346-1.806c0.797-0.935,1.196-2.098,1.196-3.49c0-1.51-0.486-2.725-1.458-3.646
			s-2.309-1.381-4.011-1.381h-5.348v19.324h1.331v-8.61h2.392c0.797,0,1.46,0.199,1.989,0.6c0.528,0.399,1.057,1.184,1.585,2.351
			l2.567,5.66h1.505l-2.862-6.158C136.837,217.952,136.094,217.022,135.332,216.716z M133.706,215.841h-3.319v-8.275h3.601
			c1.451,0,2.566,0.349,3.346,1.045c0.779,0.696,1.169,1.66,1.169,2.891c0,1.348-0.432,2.408-1.297,3.18
			C136.342,215.455,135.175,215.841,133.706,215.841z M162.178,216.528h7.122v-1.213h-7.122v-7.749h7.673v-1.226h-9.003v19.324
			h9.446v-1.213h-8.116V216.528z M199.41,206.017c-2.875,0-5.144,0.928-6.806,2.782c-1.662,1.855-2.493,4.323-2.493,7.405
			c0,2.902,0.809,5.26,2.426,7.074c1.617,1.815,3.787,2.723,6.51,2.723c2.759,0,4.963-0.916,6.611-2.749s2.472-4.349,2.472-7.546
			c0-2.894-0.804-5.231-2.412-7.015C204.11,206.908,202.007,206.017,199.41,206.017z M204.677,222.437
			c-1.389,1.559-3.274,2.338-5.657,2.338c-2.284,0-4.112-0.788-5.482-2.365c-1.371-1.576-2.056-3.694-2.056-6.354
			c0-2.633,0.723-4.762,2.17-6.388s3.29-2.438,5.529-2.438c2.338,0,4.186,0.766,5.543,2.297c1.357,1.532,2.036,3.664,2.036,6.395
			C206.76,218.707,206.066,220.878,204.677,222.437z M236.642,217.269h4.542v6.374c-1.308,0.755-2.831,1.132-4.569,1.132
			c-2.347,0-4.212-0.77-5.597-2.311c-1.384-1.541-2.076-3.668-2.076-6.381c0-2.578,0.737-4.699,2.21-6.361
			c1.474-1.662,3.425-2.492,5.852-2.492c1.666,0,3.373,0.422,5.12,1.266v-1.455c-1.595-0.683-3.239-1.023-4.932-1.023
			c-2.921,0-5.254,0.979-7.001,2.938c-1.747,1.959-2.621,4.402-2.621,7.33c0,2.902,0.811,5.248,2.432,7.035
			c1.622,1.787,3.745,2.682,6.37,2.682c2.105,0,4.152-0.562,6.141-1.685v-8.261h-5.872V217.269z M269.749,216.716v-0.054
			c1.434-0.27,2.549-0.872,3.346-1.806c0.797-0.935,1.196-2.098,1.196-3.49c0-1.51-0.487-2.725-1.459-3.646
			s-2.309-1.381-4.011-1.381h-5.348v19.324h1.33v-8.61h2.392c0.798,0,1.461,0.199,1.989,0.6c0.528,0.399,1.057,1.184,1.586,2.351
			l2.566,5.66h1.505l-2.862-6.158C271.253,217.952,270.51,217.022,269.749,216.716z M268.123,215.841h-3.319v-8.275h3.602
			c1.451,0,2.566,0.349,3.346,1.045s1.169,1.66,1.169,2.891c0,1.348-0.433,2.408-1.298,3.18
			C270.757,215.455,269.591,215.841,268.123,215.841z M300.854,206.34l-7.27,19.324h1.465l2.204-6.011h8.357l2.204,6.011h1.491
			l-7.188-19.324H300.854z M297.723,218.428l3.238-8.962c0.144-0.368,0.292-0.849,0.444-1.441h0.054
			c0.071,0.225,0.139,0.449,0.201,0.674c0.063,0.26,0.144,0.525,0.242,0.795l3.252,8.935H297.723z M333.733,206.34h-4.649v19.324
			h1.33v-7.749h2.769c2.105,0,3.743-0.576,4.91-1.731c1.171-1.154,1.754-2.63,1.754-4.427c0-1.77-0.523-3.115-1.571-4.036
			C337.226,206.8,335.712,206.34,333.733,206.34z M337.119,215.443c-0.904,0.831-2.226,1.247-3.964,1.247h-2.741v-9.124h3.077
			c3.323,0,4.985,1.451,4.985,4.354C338.476,213.437,338.024,214.612,337.119,215.443z M372.926,215.18h-11.031v-8.84h-1.331v19.324
			h1.331v-9.271h11.031v9.271h1.317V206.34h-1.317V215.18z M397.03,216.528h7.122v-1.213h-7.122v-7.749h7.673v-1.226H395.7v19.324
			h9.446v-1.213h-8.116V216.528z M432.247,216.716v-0.054c1.434-0.27,2.549-0.872,3.346-1.806c0.798-0.935,1.196-2.098,1.196-3.49
			c0-1.51-0.487-2.725-1.459-3.646s-2.308-1.381-4.01-1.381h-5.349v19.324h1.33v-8.61h2.393c0.797,0,1.46,0.199,1.988,0.6
			c0.528,0.399,1.058,1.184,1.586,2.351l2.566,5.66h1.505l-2.862-6.158C433.751,217.952,433.008,217.022,432.247,216.716z
			 M430.621,215.841h-3.319v-8.275h3.602c1.451,0,2.566,0.349,3.346,1.045s1.17,1.66,1.17,2.891c0,1.348-0.434,2.408-1.298,3.18
			C433.256,215.455,432.089,215.841,430.621,215.841z"/>
	</g>
</g>
</svg>
