<?xml version="1.0" encoding="utf-8"?>
<!-- Generator: Adobe Illustrator 16.0.0, SVG Export Plug-In . SVG Version: 6.00 Build 0)  -->
<!DOCTYPE svg PUBLIC "-//W3C//DTD SVG 1.1//EN" "http://www.w3.org/Graphics/SVG/1.1/DTD/svg11.dtd">
<svg version="1.1" id="Layer_1" xmlns="http://www.w3.org/2000/svg" xmlns:xlink="http://www.w3.org/1999/xlink" x="0px" y="0px"
	 width="80px" height="114px" viewBox="0 0 80 114" enable-background="new 0 0 80 114" xml:space="preserve">
<path fill-rule="evenodd" clip-rule="evenodd" d="M39.534,100L0,110V0h4h1h2h1h2h1h2h1h2h1h2h1h2h1h2h1h2h1h2h1h2h1h2h1h2h1h2h1h2h1
	h2h1h2h1h2h1h2h1h2h1h2h1h2h1h2h1h2h1h2h1h3v110L39.534,100z M78,2h-1v8h-1V2h-2v8h-1V2h-2v8h-1V2h-2v8h-1V2h-2v8h-1V2h-2v8h-1V2h-2
	v8h-1V2h-2v8h-1V2h-2v8h-1V2h-2v8h-1V2h-2v8h-1V2h-2v8h-1V2h-2v8h-1V2h-2v8h-1V2h-2v8h-1V2h-2v8h-1V2h-2v8h-1V2h-2v8h-1V2h-2v8h-1V2
	h-2v8h-1V2h-2v8h-1V2h-2v8h-1V2h-2v8h-1V2H8v8H7V2H5v8H4V2H2v103l38-7l38,7V2z M40,102l23,9l-19-6l7,7l-10-7l-1,9l-1-9l-10,7l7-7
	l-19,6L40,102z"/>
</svg>
