<?xml version="1.0" encoding="utf-8"?>
<!-- Generator: Adobe Illustrator 16.0.0, SVG Export Plug-In . SVG Version: 6.00 Build 0)  -->
<!DOCTYPE svg PUBLIC "-//W3C//DTD SVG 1.1//EN" "http://www.w3.org/Graphics/SVG/1.1/DTD/svg11.dtd">
<svg version="1.1" id="Layer_1" xmlns="http://www.w3.org/2000/svg" xmlns:xlink="http://www.w3.org/1999/xlink" x="0px" y="0px"
	 width="35.007px" height="37.016px" viewBox="0 0 35.007 37.016" enable-background="new 0 0 35.007 37.016" xml:space="preserve">
<g>
	<g>
		<path fill-rule="evenodd" clip-rule="evenodd" d="M10.946,15.809c0.363-1.437-1.715-3.646-1.187-4.568
			c0.528-0.923,3.219-2.84,6.368-4.306c3.18-1.48,7.429-2.296,8.313-1.558s0.652,4.168,2.187,4.245s7.013-0.176,7.851-1.633
			c0.839-1.458-0.484-4.038-1.502-5.592c-1.018-1.554-2.124-2.836-4.871-2.253S18.625,1.67,14.255,3.713
			C9.886,5.756,3.46,9.821,1.667,11.377c-1.794,1.555-2.002,3.144-1.276,5.138c0.727,1.994,1.871,4.748,3.113,4.396
			S10.582,17.245,10.946,15.809z M32.604,19.994c-0.819-0.999-8.138-5.04-8.235-6.32s-0.599-2.973-0.599-2.973l-1.862-0.227
			l0.543,3.449l-7.725,1.475l-0.543-3.449l-1.563,1.259c0,0,0.075,2.033,0.133,2.916s-5.506,6.951-5.298,9.021
			c0.208,2.07,0.767,11.633,1.873,11.832c2.589,0.465,25.518-3.508,25.67-4.611C35.153,31.247,33.422,20.993,32.604,19.994z
			 M25.72,26.405c-0.336,2.895-2.902,4.963-5.73,4.618c-2.828-0.345-4.848-2.972-4.511-5.866c0.337-2.896,2.902-4.963,5.73-4.619
			C24.037,20.884,26.057,23.51,25.72,26.405z"/>
	</g>
</g>
</svg>
