<?xml version="1.0" encoding="utf-8"?>
<!-- Generator: Adobe Illustrator 16.0.0, SVG Export Plug-In . SVG Version: 6.00 Build 0)  -->
<!DOCTYPE svg PUBLIC "-//W3C//DTD SVG 1.1//EN" "http://www.w3.org/Graphics/SVG/1.1/DTD/svg11.dtd">
<svg version="1.1" id="Layer_1" xmlns="http://www.w3.org/2000/svg" xmlns:xlink="http://www.w3.org/1999/xlink" x="0px" y="0px"
	 width="32.313px" height="35px" viewBox="0 0 32.313 35" enable-background="new 0 0 32.313 35" xml:space="preserve">
<path fill-rule="evenodd" clip-rule="evenodd" d="M0,35V0h32.313v35H0z M3.029,29h9.376l5.77-5l-3.029-5L3.029,25.462V29z M29.283,3
	H3.029v19.5L16.156,16l4.039,6l9.088-7V3z M29.283,17.823L15.579,29h13.704V17.823z M16.156,11c0-2.762,2.261-5,5.049-5
	c2.789,0,5.049,2.238,5.049,5s-2.26,5-5.049,5C18.417,16,16.156,13.762,16.156,11z M21.205,14c1.674,0,3.029-1.343,3.029-3
	s-1.355-3-3.029-3c-1.673,0-3.029,1.343-3.029,3S19.532,14,21.205,14z"/>
</svg>
