<?xml version="1.0" encoding="utf-8"?>
<!-- Generator: Adobe Illustrator 16.0.0, SVG Export Plug-In . SVG Version: 6.00 Build 0)  -->
<!DOCTYPE svg PUBLIC "-//W3C//DTD SVG 1.1//EN" "http://www.w3.org/Graphics/SVG/1.1/DTD/svg11.dtd">
<svg version="1.1" id="Layer_1" xmlns="http://www.w3.org/2000/svg" xmlns:xlink="http://www.w3.org/1999/xlink" x="0px" y="0px"
	 width="60.032px" height="36.273px" viewBox="0 0 60.032 36.273" enable-background="new 0 0 60.032 36.273" xml:space="preserve">
<g>
	<g>
		<path fill-rule="evenodd" clip-rule="evenodd" d="M58.82,27.936c-3.319,1.263-5.202,2.218-12.668,2.771
			c-7.465,0.554-18.965-1.122-25.938-1.643c-6.975-0.521-15.688-0.193-19.605-2.258c0,0-0.768,0.797-0.578,4.376
			c1.844,0.42,8.008,1.666,18,2c9.992,0.335,21.081,0.625,29,0s13-3,13-3S60.126,29.095,58.82,27.936z M25.93,34.964
			c-7.513-0.214-15.816-0.432-20.294-0.767c-4.479-0.335-5.53-1.026-5.53-1.026s-1.08,2.258,5.027,2.258
			c3.458,0.319,15.291,0.637,20.897,0.754s14.871,0.295,23.742-0.754c8.87-1.049,10.054-4.003,10.054-4.003
			s-4.411,2.427-9.753,2.771C44.771,34.54,33.429,35.177,25.93,34.964z M41.03,24.183c-0.183,1.667-4,5-4,5
			c0.003-0.013,8.337,0.495,13.529-0.341c5.218-0.84,7.471-1.659,7.471-1.659s0.376-2.733-1.924-3.147
			c-2.301-0.414-8.076-0.853-8.076-0.853v3C48.03,26.183,41.841,25.343,41.03,24.183z M15.03,27.183c1.887,0.087,6.995,0.35,11,1
			s9,1,9,1s1.999-2.196,3-4c0.579-1.043,1-2,1-2c-2.553-2.036-3.895-2.138-5-3s-1.813-3.561-6-4s-5.171-1.72-5-3s1.058-4.187,0-7
			s0.489-3.547,2-4c-1.153-2.927-2.908-2.642-6.827-0.73S7.577,4.658,5.937,4.84C4.296,5.022,2.563,5.403,2.619,7.098
			c0.056,1.696-0.774,5.687-1.206,8.314C0.98,18.041,1.03,22.806,1.03,25.183C3.338,27.394,13.144,27.096,15.03,27.183z
			 M24.336,4.019c-0.473,1.1,1.695,2.018,1.005,5.234c-0.69,3.218-0.169,4.421,0.503,5.235s4.422,0.794,5.73,1.232
			c1.31,0.438,2.722,2.018,3.52,2.874c0.796,0.855,2.865,1.239,4.222,1.95c1.357,0.71,1.608,1.25,2.614,2.155
			c1.007,0.906,3.604,1.135,4.625,1.335c-0.162-1.235-0.703-1.95-0.703-1.95l-0.402-0.206c0,0,0.164,1.249-0.604,0.821
			s-1.206-1.643-1.206-1.643l-0.704-0.308c0,0-0.933,0.97-1.81,0.308c-0.878-0.662-0.101-1.334-0.101-1.334l-1.106-0.821
			c0,0-0.744,0.997-1.81,0.308c-1.065-0.688,0.101-1.539,0.101-1.539l-1.508-0.821c0,0-1.557,1.143-2.212,0.308
			c-0.656-0.835,0.604-1.643,0.604-1.643l-1.509-1.334c0,0-1.338,0.784-2.111,0.205c-0.772-0.578,0.302-1.643,0.302-1.643
			l-1.709-0.924c0,0-2.386,1.05-2.514-0.205c-0.127-1.255,1.509-1.438,1.509-1.438l-0.604-1.539c0,0-1.146,0.703-1.709-0.411
			c-0.564-1.113,0.804-1.539,0.804-1.539l-0.302-0.719c0,0-1.519,0.265-1.81-1.026c-0.159-0.708,1.207-0.821,1.207-0.821
			s-0.134-0.312-0.201-0.616C25.986,2.684,24.808,2.919,24.336,4.019z M26.146,5.148c0.204,0.421,0.532,0.473,1.307,0.308
			c0.775-0.164,0.06-1.101-0.402-0.924C26.689,4.67,25.941,4.727,26.146,5.148z M27.251,7.817c0.076,0.436,0.375,0.791,1.207,0.514
			c0.831-0.278,0.264-1.574-0.503-1.335C27.622,7.099,27.176,7.38,27.251,7.817z M27.955,11.102c-0.17,0.428,0.042,0.978,1.005,0.82
			c0.964-0.156,1.639-1.178,0.201-1.539C28.682,10.262,28.125,10.673,27.955,11.102z M31.775,14.181
			c0.458,0.354,1.343,0.031,1.608-0.411c0.267-0.441-0.573-1.45-1.407-0.82C31.503,13.307,31.317,13.828,31.775,14.181z
			 M34.792,17.055c0.361,0.27,0.969,0.191,1.608-0.41s-0.722-1.351-1.206-0.924C34.808,16.06,34.431,16.786,34.792,17.055z
			 M38.311,19.005c0.425,0.291,1.126,0.108,1.407-0.308c0.282-0.416-0.561-1.132-1.105-0.719
			C38.169,18.314,37.886,18.715,38.311,19.005z M41.528,20.956c0.468,0.172,0.697-0.055,1.005-0.308s-0.696-1.43-1.206-0.719
			C41.099,20.248,41.06,20.784,41.528,20.956z M44.745,22.393c0.434,0.228,0.635-0.177,0.402-0.514
			c-0.232-0.336-1.141-1.197-1.106-0.513C44.06,21.724,44.312,22.166,44.745,22.393z"/>
	</g>
</g>
</svg>
