<?xml version="1.0" encoding="utf-8"?>
<!-- Generator: Adobe Illustrator 16.0.0, SVG Export Plug-In . SVG Version: 6.00 Build 0)  -->
<!DOCTYPE svg PUBLIC "-//W3C//DTD SVG 1.1//EN" "http://www.w3.org/Graphics/SVG/1.1/DTD/svg11.dtd">
<svg version="1.1" id="Layer_1" xmlns="http://www.w3.org/2000/svg" xmlns:xlink="http://www.w3.org/1999/xlink" x="0px" y="0px"
	 width="39.17px" height="39px" viewBox="0 0 39.17 39" enable-background="new 0 0 39.17 39" xml:space="preserve">
<g>
	<g>
		<path fill-rule="evenodd" clip-rule="evenodd" d="M19.585,0C8.769,0,0,8.73,0,19.5S8.769,39,19.585,39S39.17,30.27,39.17,19.5
			S30.401,0,19.585,0z M6.265,20.125c-2.787-1.121-4.143-4.304-3.029-7.108c1.114-2.804,4.276-4.169,7.063-3.048
			c2.787,1.122,4.143,4.305,3.029,7.108C12.213,19.882,9.051,21.246,6.265,20.125z M19.99,32.716
			c-1.114,2.804-4.276,4.169-7.063,3.048c-2.787-1.122-4.143-4.305-3.028-7.108c1.114-2.805,4.276-4.169,7.063-3.048
			S21.104,29.911,19.99,32.716z M21.442,20.343c-0.446,1.122-1.711,1.668-2.826,1.219c-1.115-0.448-1.657-1.722-1.211-2.843
			c0.445-1.122,1.71-1.668,2.825-1.22C21.345,17.948,21.888,19.221,21.442,20.343z M21.802,13.42
			c-2.786-1.121-4.142-4.304-3.028-7.108c1.114-2.804,4.276-4.169,7.063-3.048c2.786,1.122,4.143,4.305,3.028,7.108
			C27.751,13.177,24.589,14.541,21.802,13.42z M28.465,29.059c-2.786-1.121-4.142-4.304-3.028-7.108s4.275-4.169,7.063-3.048
			s4.143,4.304,3.028,7.108S31.251,30.18,28.465,29.059z"/>
	</g>
</g>
</svg>
