<?xml version="1.0" encoding="utf-8"?>
<!-- Generator: Adobe Illustrator 16.0.0, SVG Export Plug-In . SVG Version: 6.00 Build 0)  -->
<!DOCTYPE svg PUBLIC "-//W3C//DTD SVG 1.1//EN" "http://www.w3.org/Graphics/SVG/1.1/DTD/svg11.dtd">
<svg version="1.1" id="Layer_1" xmlns="http://www.w3.org/2000/svg" xmlns:xlink="http://www.w3.org/1999/xlink" x="0px" y="0px"
	 width="29.807px" height="29.925px" viewBox="0 0 29.807 29.925" enable-background="new 0 0 29.807 29.925" xml:space="preserve">
<path d="M14.903,0C6.673,0,0,6.699,0,14.962c0,8.264,6.673,14.963,14.903,14.963s14.903-6.699,14.903-14.963
	C29.807,6.699,23.134,0,14.903,0z M22.465,11.218c0.008,0.17,0.012,0.343,0.012,0.516c0,5.261-3.925,11.33-11.101,11.33
	c-2.203,0-4.255-0.659-5.98-1.789C5.7,21.312,6.01,21.33,6.326,21.33c1.828,0,3.511-0.636,4.845-1.704
	c-1.707-0.032-3.147-1.186-3.645-2.767c0.238,0.047,0.482,0.072,0.734,0.072c0.355,0,0.7-0.049,1.027-0.14
	c-1.784-0.368-3.129-1.976-3.129-3.906v-0.05c0.526,0.298,1.127,0.478,1.768,0.498C6.879,12.619,6.191,11.4,6.191,10.02
	c0-0.73,0.191-1.414,0.527-2.004c1.925,2.41,4.8,3.996,8.042,4.162c-0.066-0.292-0.102-0.596-0.102-0.907
	c0-2.199,1.747-3.982,3.902-3.982c1.122,0,2.135,0.482,2.847,1.258c0.888-0.179,1.724-0.511,2.478-0.966
	c-0.291,0.929-0.909,1.709-1.716,2.202c0.79-0.097,1.541-0.31,2.241-0.627C23.89,9.954,23.228,10.656,22.465,11.218z"/>
</svg>
