<?xml version="1.0" encoding="utf-8"?>
<!-- Generator: Adobe Illustrator 16.0.0, SVG Export Plug-In . SVG Version: 6.00 Build 0)  -->
<!DOCTYPE svg PUBLIC "-//W3C//DTD SVG 1.1//EN" "http://www.w3.org/Graphics/SVG/1.1/DTD/svg11.dtd">
<svg version="1.1" id="Layer_1" xmlns="http://www.w3.org/2000/svg" xmlns:xlink="http://www.w3.org/1999/xlink" x="0px" y="0px"
	 width="51px" height="35px" viewBox="0 0 51 35" enable-background="new 0 0 51 35" xml:space="preserve">
<g>
	<g>
		<path fill-rule="evenodd" clip-rule="evenodd" d="M50,2V0H0v2h3v3H0v2h9v21H0v2h3v3H0v2h50v-2h-2v-3h2v-2h-8V7h8V5h-2V2H50z M9,33
			H6v-3h3V33z M30,2h3v3h-3V2z M24,2h3v3h-3V2z M18,2h3v3h-3V2z M12,2h3v3h-3V2z M9,5H6V2h3V5z M15,33h-3v-3h3V33z M21,33h-3v-3h3
			V33z M27,33h-3v-3h3V33z M33,33h-3v-3h3V33z M39,33h-3v-3h3V33z M39,28H12V7h27V28z M39,5h-3V2h3V5z M45,30v3h-3v-3H45z M45,5h-3
			V2h3V5z"/>
	</g>
</g>
</svg>
