<?xml version="1.0" encoding="utf-8"?>
<!-- Generator: Adobe Illustrator 16.0.0, SVG Export Plug-In . SVG Version: 6.00 Build 0)  -->
<!DOCTYPE svg PUBLIC "-//W3C//DTD SVG 1.1//EN" "http://www.w3.org/Graphics/SVG/1.1/DTD/svg11.dtd">
<svg version="1.1" id="Layer_1" xmlns="http://www.w3.org/2000/svg" xmlns:xlink="http://www.w3.org/1999/xlink" x="0px" y="0px"
	 width="481px" height="439.021px" viewBox="0 0 481 439.021" enable-background="new 0 0 481 439.021" xml:space="preserve">
<path fill="#231F20" stroke="#000000" stroke-miterlimit="10" d="M480.5,65.06c0-8.394,0-16.298,0-23.558
	c0-18.84-6.303-38.891-32.227-40.961v269.123c0,0,25.074,2.199,25.074,22.12c-0.001,0-0.002,0.001-0.002,0.001
	c1.124,5.865,1.947,16.725-1.936,32.422c1.62-13.965-2.34-22.226-5.818-26.654c-7.997,4.239-18.365,6.552-23.923,7.754
	c0-71.536,0-269.436,0-269.436C314.958,77.645,187.574,27.755,61.452,58.142C50.11,60.875,33.799,65.407,23.3,71.337
	C11.549,77.976,0.5,86.095,0.5,97.184c0,4.1,0,8.738,0,12.838c0-5.012,2.413-9.244,5.745-13.28c0,5.982,0,11.964,0,17.946
	C2.65,119.058,0.5,125.321,0.5,127.968c0,4.902,0,12.618,0,17.52c0-13.308,10.729-26.105,26.956-32.123
	c3.764-1.396,7.528-2.706,11.292-3.936c0,75.66,0,148.919,0,224.58c-3.765,1.23-7.53,2.541-11.294,3.937
	C11.228,343.961,0.5,357.163,0.5,370.067c0,4.902,0,9.804,0,14.705c0-4.901,2.076-10.076,5.306-15.044
	c0,5.981-0.263,11.417-0.263,17.399C2.65,392.05,0.5,399.842,0.5,405.567c0,4.071,0,5.293,0,9.364
	c0,17.015,23.98,28.982,42.391,21.123c0-14.588,0-49.063,0-49.063c-7.997-0.253-14.491,0.357-19.791,1.573c0,6.725,0,11.6,0,17.027
	c-11.4,0-17.09-7.009-15.939-8.917c0.19-0.315,0.453-0.675,0.764-1.062c2.199-2.931,4.879-5.322,8.153-7.402
	c2.084-1.503,4.065-2.646,5.389-2.923c1.848-0.862,3.836-1.683,5.994-2.479c145.379-53.691,287.269,20.978,432.697-39.337
	c6.337-3.668,13.803-8.016,18.185-21.199c0.741-2.23,2.157-11.949,2.157-14.571c0-15.101,0-33.694,0-54.224
	c0-15.001-16.703-22.201-16.703-22.201V47.659C479.32,53.059,480.5,65.06,480.5,65.06z M463.797,19.456
	c10.948,5.701,10.9,14.401,10.9,14.401s0,5.768,0,10.801c-4.041-6.18-10.9-7.8-10.9-7.8V19.456z M38.749,94.724
	c-6.904,1.165-13.567,4.792-17.893,7.671c0-5.982,0-11.964,0-17.946c4.851-3.381,11.865-6.998,17.893-7.671
	C38.749,82.759,38.749,88.741,38.749,94.724z M20.856,373.131c0-5.982,0-11.964,0-17.946c5.377-4.068,12.034-6.465,17.826-7.72
	c0,5.982,0.067,11.782,0.066,17.764C32.164,366.989,26.233,369.406,20.856,373.131z M357.506,63.913
	c5.965-0.436,11.929-0.989,17.893-1.678c0,5.982,0,11.964,0,17.946c-5.964,0.689-11.928,1.243-17.893,1.679
	C357.506,75.877,357.506,69.896,357.506,63.913z M315.425,65.268c5.964,0.019,11.929-0.039,17.893-0.188c0,5.982,0,11.964,0,17.945
	c-5.964,0.15-11.929,0.208-17.893,0.189C315.425,77.232,315.425,71.25,315.425,65.268z M417.417,87.552c0,75.66,0,148.919,0,224.58
	c-118.109,28.239-236.218-13.319-354.327,15.005c0-75.66,0-148.919,0-224.58C181.199,74.232,299.308,115.791,417.417,87.552z
	 M273.344,64.118c5.964,0.274,11.929,0.515,17.893,0.705c0,5.982,0,11.964,0,17.946c-5.964-0.19-11.929-0.431-17.893-0.705
	C273.344,76.082,273.344,70.1,273.344,64.118z M231.262,61.868c5.964,0.33,11.928,0.67,17.893,1.001c0,5.982,0,11.964,0,17.946
	c-5.965-0.331-11.929-0.671-17.893-1.001C231.262,73.832,231.262,67.85,231.262,61.868z M189.181,59.921
	c5.964,0.188,11.929,0.428,17.893,0.7c0,5.982,0,11.964,0,17.946c-5.964-0.273-11.928-0.512-17.893-0.701
	C189.181,71.885,189.181,65.903,189.181,59.921z M147.1,59.682c5.964-0.153,11.929-0.213,17.893-0.197c0,5.982,0,11.963,0,17.946
	c-5.964-0.016-11.929,0.043-17.893,0.197C147.1,71.646,147.1,65.664,147.1,59.682z M105.019,62.555
	c5.964-0.694,11.928-1.252,17.893-1.692c0,5.982,0,11.964,0,17.946c-5.964,0.439-11.929,0.997-17.893,1.691
	C105.019,74.518,105.019,68.536,105.019,62.555z M62.938,69.942c5.964-1.433,11.928-2.688,17.893-3.783c0,5.982,0,11.964,0,17.946
	c-5.964,1.095-11.929,2.35-17.893,3.783C62.938,81.906,62.938,75.924,62.938,69.942z M80.83,356.042
	c-5.964,1.094-11.929,2.35-17.893,3.783c0-5.982,0-11.965,0-17.946c5.964-1.434,11.928-2.688,17.893-3.783
	C80.83,344.078,80.83,350.059,80.83,356.042z M122.911,350.745c-5.964,0.44-11.929,0.998-17.893,1.692c0-5.982,0-11.964,0-17.946
	c5.964-0.693,11.928-1.252,17.893-1.691C122.911,338.781,122.911,344.763,122.911,350.745z M164.993,349.368
	c-5.964-0.017-11.929,0.043-17.893,0.196c0-5.981,0-11.964,0-17.945c5.964-0.153,11.929-0.213,17.893-0.197
	C164.993,337.403,164.993,343.385,164.993,349.368z M207.074,350.504c-5.964-0.273-11.928-0.513-17.893-0.701
	c0-5.981,0-11.964,0-17.945c5.964,0.188,11.929,0.427,17.893,0.7C207.074,338.541,207.074,344.522,207.074,350.504z
	 M249.155,352.751c-5.965-0.331-11.929-0.671-17.893-1.002c0-5.981,0-11.963,0-17.945c5.964,0.331,11.928,0.671,17.893,1.001
	C249.155,340.788,249.155,346.769,249.155,352.751z M291.236,354.706c-5.964-0.19-11.929-0.432-17.893-0.705
	c0-5.982,0-11.964,0-17.946c5.964,0.274,11.929,0.516,17.893,0.705C291.236,342.741,291.236,348.723,291.236,354.706z
	 M333.317,354.961c-5.964,0.15-11.929,0.207-17.893,0.188c0-5.981,0-11.964,0-17.945c5.964,0.019,11.929-0.038,17.893-0.188
	C333.317,342.998,333.317,348.98,333.317,354.961z M375.398,352.117c-5.964,0.689-11.928,1.243-17.893,1.679
	c0-5.981,0-11.964,0-17.945c5.965-0.436,11.929-0.989,17.893-1.679C375.398,340.153,375.398,346.135,375.398,352.117z
	 M417.48,344.767c-5.964,1.428-11.929,2.677-17.893,3.766c0-5.981,0-11.964,0-17.945c5.964-1.089,11.929-2.338,17.893-3.766
	C417.48,332.803,417.48,338.786,417.48,344.767z M417.48,72.831c-5.964,1.427-11.929,2.677-17.893,3.766c0-5.982,0-11.964,0-17.946
	c5.964-1.089,11.929-2.338,17.893-3.766C417.48,60.867,417.48,66.849,417.48,72.831z M459.562,331.509
	c-5.965,2.364-11.929,4.508-17.893,6.449c0-5.981,0-11.964,0-17.945c5.964-1.941,11.928-4.086,17.893-6.45
	C459.562,319.545,459.562,325.527,459.562,331.509z M474.697,258.278c0,0,0,5.768,0,10.801c-4.041-6.181-10.9-7.801-10.9-7.801
	v-17.401C474.745,249.577,474.697,258.278,474.697,258.278z"/>
</svg>
