<?xml version="1.0" encoding="utf-8"?>
<!-- Generator: Adobe Illustrator 16.0.0, SVG Export Plug-In . SVG Version: 6.00 Build 0)  -->
<!DOCTYPE svg PUBLIC "-//W3C//DTD SVG 1.1//EN" "http://www.w3.org/Graphics/SVG/1.1/DTD/svg11.dtd">
<svg version="1.1" id="Layer_1" xmlns="http://www.w3.org/2000/svg" xmlns:xlink="http://www.w3.org/1999/xlink" x="0px" y="0px"
	 width="29.806px" height="29.925px" viewBox="0 0 29.806 29.925" enable-background="new 0 0 29.806 29.925" xml:space="preserve">
<path d="M15.146,13.06c0.266-0.014,0.505-0.143,0.787-0.27c0.305-0.143,0.521-0.345,0.637-0.596c0.117-0.256,0.178-0.55,0.178-0.882
	c0-0.248-0.064-0.499-0.191-0.76c-0.126-0.258-0.322-0.448-0.596-0.563c-0.255-0.112-0.464-0.043-0.812-0.055
	c-0.351-0.009-0.573,0-1.258,0h-0.629v3.126h0.629C14.547,13.06,14.883,13.073,15.146,13.06z M16.556,15.803
	c-0.23-0.095-0.373-0.232-0.78-0.242c-0.408-0.009-1.202,0-1.886,0H13.26v3.753h0.629c1.003,0,1.503,0.015,1.886,0
	s0.531,0.02,0.929-0.151c0.35-0.153,0.604-0.371,0.767-0.66c0.16-0.291,0.24-0.622,0.24-0.989c0-0.47-0.093-0.838-0.286-1.105
	C17.231,16.137,16.942,15.939,16.556,15.803z M14.903,0C6.672,0,0,6.699,0,14.962c0,8.264,6.672,14.963,14.903,14.963
	c8.231,0,14.903-6.699,14.903-14.963C29.806,6.699,23.134,0,14.903,0z M21.25,19.586c-0.288,0.574-0.676,1.046-1.163,1.426
	c-0.578,0.449-1.214,0.77-1.906,0.96c-0.691,0.191-1.338,0.467-2.405,0.467H9.488V6.81h5.03c1.126,0,2.291,0.228,2.872,0.314
	c0.581,0.084,1.127,0.262,1.633,0.535c0.55,0.295,0.963,0.69,1.23,1.18c0.27,0.492,0.409,1.06,0.409,1.703
	c0,0.745-0.187,1.406-0.563,1.987c-0.375,0.583-0.889,1.011-1.549,1.285v0.081c0.947,0.199,1.707,0.602,2.277,1.216
	c0.569,0.612,0.855,1.438,0.855,2.474C21.684,18.343,21.54,19.009,21.25,19.586z"/>
</svg>
