<?xml version="1.0" encoding="utf-8"?>
<!-- Generator: Adobe Illustrator 16.0.0, SVG Export Plug-In . SVG Version: 6.00 Build 0)  -->
<!DOCTYPE svg PUBLIC "-//W3C//DTD SVG 1.1//EN" "http://www.w3.org/Graphics/SVG/1.1/DTD/svg11.dtd">
<svg version="1.1" id="Layer_1" xmlns="http://www.w3.org/2000/svg" xmlns:xlink="http://www.w3.org/1999/xlink" x="0px" y="0px"
	 width="48.602px" height="38.006px" viewBox="0 0 48.602 38.006" enable-background="new 0 0 48.602 38.006" xml:space="preserve">
<g>
	<g>
		<path fill-rule="evenodd" clip-rule="evenodd" d="M48.582,32.655l-11.915-6.712c3.393-8.609,0.091-18.629-8.164-23.395
			C19.416-2.698,7.795,0.415,2.549,9.503c-5.247,9.088-2.133,20.708,6.954,25.954c9.088,5.247,20.708,2.134,25.954-6.954
			c0.104-0.179,0.183-0.365,0.279-0.546l1.262,5.046l8.584,4.848c0,0,1.685-0.58,2.416-1.848
			C48.766,34.674,48.582,32.655,48.582,32.655z M31.801,26.392c-4.08,7.068-13.119,9.49-20.187,5.409
			c-7.068-4.081-9.49-13.118-5.409-20.187c4.081-7.068,13.119-9.49,20.188-5.409C33.46,10.286,35.882,19.323,31.801,26.392z
			 M21.02,11.012h-4v6h-6v4h6v6h4v-6h6v-4h-6V11.012z"/>
	</g>
</g>
</svg>
