<svg xmlns="http://www.w3.org/2000/svg" width="80" height="159" viewBox="0 0 80 159"><path fill-rule="evenodd" clip-rule="evenodd" d="M40.875 159h-1v-40h1v40zM40.875 40h-1V0h1v40z"/><path fill="#231F20" d="M40 40.375c21.505 0 39 17.495 39 39s-17.495 39-39 39-39-17.495-39-39 17.495-39 39-39m0-1c-22.09 0-40 17.91-40 40 0 22.092 17.91 40 40 40 22.092 0 40-17.908 40-40 0-22.09-17.908-40-40-40z"/><path fill-rule="evenodd" clip-rule="evenodd" d="M64.723 90.354c.328-.746.617-1.512.88-2.29l10.34-10.345c.028.452.04.908.05 1.366l-11.27 11.268zm1.84-6.08l9.148-9.15c.056.424.09.855.13 1.285l-9.672 9.672c.148-.598.285-1.197.395-1.81zm.365-3.196l8.39-8.388c.08.397.145.8.212 1.2l-8.713 8.713c.058-.5.08-1.013.11-1.525zm.08-1.57c0-.43-.045-.848-.064-1.274l7.834-7.833c.102.377.182.762.27 1.144l-8.044 8.044c0-.027.004-.053.004-.08zm-.307-3.86l7.43-7.428c.12.357.212.728.323 1.09l-7.578 7.578c-.04-.42-.115-.826-.174-1.24zm-.446-2.38l7.11-7.11c.138.337.263.68.392 1.022l-7.242 7.243c-.075-.39-.17-.772-.26-1.155zm-.615-2.214l6.854-6.856c.156.32.295.65.44.975l-6.97 6.97c-.103-.366-.208-.73-.325-1.09zm-.76-2.07l6.65-6.65c.17.305.32.622.48.932l-6.75 6.753c-.13-.345-.24-.698-.38-1.035zm-.92-1.908l6.524-6.524c.184.29.348.595.523.89L64.42 68.03c-.15-.32-.297-.64-.46-.954zm-1.034-1.794l6.434-6.435c.197.277.373.57.563.852l-6.463 6.46c-.17-.297-.355-.587-.534-.878zm-1.14-1.688l6.372-6.374c.21.263.396.545.602.813l-6.37 6.37c-.19-.28-.406-.537-.605-.81zm-1.24-1.588l6.32-6.32c.222.25.435.506.65.76l-6.337 6.34c-.21-.265-.418-.525-.635-.78zm-1.35-1.482l6.294-6.293c.236.236.463.482.69.724l-6.31 6.31c-.225-.245-.438-.503-.673-.74zm-1.47-1.357l6.314-6.313c.248.222.486.456.73.685l-6.302 6.3c-.245-.228-.49-.453-.74-.673zm-1.568-1.26l6.348-6.348c.262.208.512.43.768.646l-6.307 6.306c-.262-.212-.54-.403-.81-.605zm-1.668-1.16l6.404-6.405c.275.196.537.406.805.61l-6.35 6.35c-.282-.194-.573-.372-.86-.556zm-1.77-1.058l6.485-6.487c.287.182.563.38.844.57l-6.44 6.438c-.297-.172-.587-.357-.89-.52zm-1.91-.92l6.624-6.624c.3.167.59.354.885.53l-6.556 6.554c-.317-.154-.63-.318-.953-.46zm-2.046-.782l6.813-6.813c.316.152.62.326.93.486L49.8 54.37c-.343-.135-.69-.26-1.036-.38zm-2.188-.642l7.053-7.053c.33.135.647.296.974.44l-6.902 6.902c-.37-.11-.75-.195-1.126-.29zm-2.35-.477l7.36-7.36c.348.117.68.263 1.02.39l-7.155 7.157c-.4-.083-.817-.123-1.225-.188zm-2.552-.28l7.762-7.76c.365.1.715.23 1.076.34l-7.514 7.512c-.435-.048-.88-.063-1.324-.09zm-1.666-.083c-.383 0-.756.042-1.135.057l8.297-8.296c.383.078.754.19 1.133.28l-7.975 7.976c-.107-.002-.213-.017-.32-.017zm-4.277.37l9.042-9.04c.406.054.797.148 1.2.215l-8.588 8.587c-.56.054-1.105.15-1.653.238zm-3.643.816L42.2 43.58c.44.026.87.068 1.304.11l-9.513 9.513c-.64.147-1.28.3-1.903.49zM27.23 55.72l12.2-12.197c.193-.003.382-.016.578-.016.28 0 .553.015.83.02L29.875 54.492c-.905.368-1.79.772-2.644 1.23zm-8.153 6.74l-15 15c.032-.515.07-1.03.125-1.538l32.22-32.22c.51-.054 1.023-.093 1.54-.125l-15 15c-1.423 1.16-2.725 2.462-3.885 3.884zM4.707 72.588l28.38-28.378c.566-.112 1.137-.212 1.712-.3L4.41 74.3c.087-.575.187-1.147.298-1.713zm.928-3.755l23.697-23.697c.637-.198 1.29-.363 1.94-.527L5.11 70.773c.164-.652.33-1.304.527-1.94zm1.773-4.6L24.73 46.907c.796-.374 1.613-.708 2.44-1.024L6.382 66.67c.316-.826.65-1.644 1.025-2.44zm4.988-7.817l4.52-4.52c1.498-1.254 3.104-2.38 4.795-3.38L9.015 61.21c1-1.69 2.127-3.297 3.382-4.795zm2.595 12.96L4.03 80.338c-.006-.277-.02-.55-.02-.83 0-.195.012-.385.015-.578L16.22 66.732c-.458.852-.862 1.738-1.23 2.643zm-1.286 4.116L4.19 83.005c-.042-.432-.084-.865-.11-1.303l10.113-10.113c-.19.624-.343 1.263-.49 1.904zm-.564 3.393L4.553 85.47c-.067-.4-.162-.793-.215-1.2l9.04-9.04c-.087.55-.184 1.095-.238 1.653zm-.133 2.625c0 .107.015.213.016.32l-7.975 7.975c-.09-.38-.203-.748-.28-1.133l8.295-8.297c-.014.378-.056.752-.056 1.135zm.175 2.99L5.67 90.012c-.11-.36-.242-.71-.34-1.076l7.76-7.762c.03.443.044.89.092 1.324zm.375 2.455L6.4 92.107c-.127-.342-.273-.674-.39-1.02l7.36-7.362c.064.41.104.826.187 1.228zm.578 2.248l-6.9 6.903c-.146-.326-.307-.643-.442-.973l7.053-7.055c.094.378.18.757.29 1.126zm.73 2.1L8.16 96.005c-.16-.31-.334-.613-.486-.93l6.813-6.813c.12.35.246.694.38 1.036zm.865 1.964L9.175 97.82c-.175-.297-.362-.586-.53-.886l6.625-6.623c.142.325.306.637.46.954zm.982 1.847l-6.44 6.44c-.188-.283-.387-.56-.568-.846l6.486-6.486c.163.305.348.595.522.893zm1.09 1.74l-6.352 6.352c-.203-.27-.414-.53-.61-.807l6.405-6.404c.185.29.363.578.557.86zm1.21 1.617l-6.306 6.307c-.216-.256-.438-.506-.647-.768l6.346-6.348c.203.27.394.547.606.81zm1.33 1.5l-6.302 6.3c-.23-.24-.463-.48-.685-.728l6.313-6.314c.22.253.444.5.673.74zm1.423 1.404l-6.312 6.314c-.242-.23-.487-.457-.723-.69l6.293-6.296c.238.236.496.448.742.673zm1.52 1.31l-6.338 6.338c-.254-.215-.512-.43-.76-.652l6.32-6.32c.254.216.514.427.778.634zm1.618 1.21l-6.37 6.37c-.268-.205-.55-.39-.812-.602l6.375-6.373c.27.2.53.416.808.606zm1.76 1.07L20.2 109.42c-.282-.19-.575-.365-.852-.563l6.434-6.435c.29.182.58.364.88.534zm1.867.96l-6.588 6.588c-.296-.176-.6-.34-.89-.523l6.523-6.523c.314.16.635.308.955.458zm1.99.84l-6.754 6.752c-.31-.16-.627-.313-.932-.48l6.65-6.652c.337.14.69.25 1.035.38zm2.123.705l-6.97 6.97c-.326-.146-.655-.284-.975-.44l6.856-6.855c.36.116.723.22 1.09.325zm2.28.55l-7.244 7.24c-.343-.128-.686-.253-1.022-.392l7.11-7.11c.383.09.764.186 1.154.26zm2.465.36l-7.578 7.578c-.362-.11-.733-.203-1.09-.324l7.43-7.43c.412.06.82.136 1.238.175zm2.62.133c.027 0 .053-.004.08-.004l-8.044 8.045c-.38-.09-.766-.17-1.143-.272l7.835-7.834c.425.02.843.064 1.273.064zm3.096-.192l-8.712 8.713c-.4-.067-.804-.134-1.2-.214l8.387-8.39c.51-.028 1.02-.05 1.524-.11zm3.476-.648l-9.67 9.672c-.43-.04-.86-.074-1.286-.13l9.15-9.147c.61-.11 1.21-.245 1.806-.395zm4.274-1.445l-11.268 11.27c-.458-.01-.915-.02-1.367-.05l10.343-10.34c.78-.263 1.544-.552 2.29-.88zm12.33-10.914l12.798-12.8c-.014.5-.043.996-.078 1.492L42.5 115.404c-.494.035-.99.064-1.49.078l12.8-12.8c3.85-2.3 7.073-5.522 9.374-9.373zM75.5 85.233L45.734 115c-.56.09-1.11.197-1.676.262L75.76 83.56c-.063.565-.17 1.116-.26 1.674zm-.764 3.592l-25.41 25.41c-.623.166-1.246.336-1.883.47l27.762-27.763c-.133.637-.303 1.26-.47 1.883zM73.28 93.11l-19.67 19.67c-.74.304-1.493.59-2.26.845l22.774-22.77c-.255.764-.54 1.514-.843 2.256zm-3.216 6.046l-10.41 10.408c-1.105.723-2.238 1.41-3.424 2.012L72.076 95.73c-.6 1.186-1.29 2.32-2.012 3.426z"/></svg>