<svg xmlns="http://www.w3.org/2000/svg" width="31.985" height="56.995" viewBox="0 0 31.985 56.995"><path fill-rule="evenodd" clip-rule="evenodd" d="M20.717 27.206v-4.968l-4.933-.993c-.004-.06-.147-1.03.986-1.987.942-.795 2.41-1.9 2.626-3.8l4.414 7.522-.948-8.5 6.285 5.158-3.844-7.116 6.682-3.948-7.166.4 2.466-4.392-4.24 1.99-.564-5.382-2.72 4.676L18.022 0l-.882 5.56-5.483-3.412 3.507 6.592-4.096-.396 3.733 2.308L8.15 14.87l7.126-1.32-2.277 4.6 4.456-2.34c-.356 1.565-1.628 2.07-2.656 3.45-1.11 1.49-.99 1.956-.987 1.987l-3.946.993v4.968c-.044.018-.086.04-.13.056 1.693.65 4.752 1.298 9.996.937-5.753 2.64-11.145 2.42-14.438 1.7C2.052 32.6 0 36.522 0 41.26c0 8.69 6.9 15.735 15.415 15.735S30.83 49.95 30.83 41.26c0-6.698-4.337-11.782-10.113-14.054z"/></svg>