<svg xmlns="http://www.w3.org/2000/svg" width="940" height="1" viewBox="0 0 940 1"><path fill="#231F20" d="M1.5 1h-2V0h2v.5h-1 1zM935.503.5h-2.994V0h2.993v.5zm-5.987 0h-2.993V0h2.993v.5zm-5.988 0h-2.993V0h2.993v.5zm-5.987 0h-2.992V0h2.993v.5zm-5.986 0h-2.993V0h2.994v.5zm-5.987 0h-2.994V0h2.994v.5zm-5.987 0h-2.994V0h2.994v.5zm-5.987 0H890.6V0h2.993v.5zm-5.988 0h-2.994V0h2.995v.5zm-5.987 0h-2.993V0h2.993v.5zm-5.987 0h-2.992V0h2.993v.5zm-5.986 0h-2.993V0h2.994v.5zm-5.988 0h-2.993V0h2.993v.5zm-5.986 0h-2.994V0h2.994v.5zm-5.987 0h-2.994V0h2.993v.5zm-5.988 0H842.7V0h2.995v.5zm-5.987 0h-2.993V0h2.993v.5zm-5.987 0h-2.992V0h2.993v.5zm-5.987 0h-2.993V0h2.993v.5zm-5.987 0h-2.993V0h2.993v.5zm-5.986 0h-2.994V0h2.994v.5zm-5.988 0h-2.994V0h2.994v.5zm-5.987 0h-2.994V0h2.995v.5zm-5.987 0h-2.993V0h2.993v.5zm-5.987 0h-2.992V0h2.993v.5zm-5.987 0h-2.993V0h2.993v.5zm-5.987 0h-2.993V0h2.993v.5zm-5.986 0h-2.994V0h2.994v.5zm-5.988 0h-2.994V0h2.994v.5zm-5.987 0h-2.994V0h2.995v.5zm-5.987 0h-2.993V0h2.993v.5zM749.9.5h-2.993V0h2.993v.5zm-5.987 0h-2.993V0h2.993v.5zm-5.987 0h-2.993V0h2.993v.5zm-5.987 0h-2.995V0h2.994v.5zm-5.988 0h-2.994V0h2.994v.5zm-5.987 0h-2.994V0h2.995v.5zm-5.987 0h-2.993V0h2.993v.5zm-5.988 0h-2.993V0h2.993v.5zm-5.987 0h-2.993V0h2.993v.5zm-5.987 0h-2.993V0h2.993v.5zm-5.987 0h-2.995V0h2.994v.5zm-5.988 0h-2.994V0h2.994v.5zm-5.987 0h-2.994V0h2.995v.5zm-5.988 0h-2.993V0h2.993v.5zm-5.987 0h-2.993V0h2.993v.5zm-5.987 0H657.1V0h2.993v.5zm-5.988 0h-2.993V0h2.993v.5zm-5.986 0h-2.995V0h2.994v.5zm-5.988 0h-2.994V0h2.994v.5zm-5.987 0h-2.994V0h2.995v.5zm-5.988 0h-2.993V0h2.993v.5zm-5.987 0h-2.993V0h2.993v.5zm-5.987 0h-2.993V0h2.993v.5zm-5.988 0h-2.993V0h2.993v.5zm-5.987 0h-2.993V0h2.993v.5zm-5.986 0h-2.994V0h2.994v.5zm-5.988 0h-2.994V0h2.994v.5zm-5.987 0h-2.994V0h2.994v.5zm-5.987 0h-2.993V0h2.993v.5zm-5.988 0h-2.993V0h2.992v.5zm-5.987 0h-2.993V0h2.993v.5zm-5.987 0h-2.993V0h2.993v.5zm-5.986 0h-2.994V0h2.994v.5zm-5.988 0h-2.994V0h2.994v.5zm-5.987 0h-2.994V0h2.994v.5zm-5.987 0h-2.993V0h2.993v.5zm-5.988 0h-2.993V0h2.992v.5zm-5.987 0h-2.993V0h2.993v.5zm-5.987 0h-2.993V0h2.993v.5zM516.4.5h-2.993V0h2.994v.5zm-5.986 0h-2.994V0h2.994v.5zm-5.987 0h-2.994V0h2.994v.5zm-5.988 0h-2.994V0h2.993v.5zm-5.988 0h-2.993V0h2.992v.5zm-5.987 0h-2.993V0h2.993v.5zm-5.987 0h-2.993V0h2.993v.5zm-5.988 0h-2.993V0h2.993v.5zm-5.987 0h-2.994V0h2.993v.5zm-5.987 0h-2.994V0h2.994v.5zm-5.987 0h-2.995V0h2.994v.5zm-5.988 0h-2.994V0h2.994v.5zm-5.987 0h-2.994V0h2.995v.5zm-5.988 0h-2.994V0h2.994v.5zm-5.987 0h-2.994V0h2.994v.5zm-5.987 0H423.6V0h2.993v.5zm-5.987 0h-2.994V0h2.994v.5zm-5.987 0h-2.995V0h2.994v.5zm-5.99 0h-2.993V0h2.994v.5zm-5.986 0h-2.994V0h2.994v.5zm-5.987 0h-2.994V0h2.994v.5zm-5.988 0h-2.995V0h2.994v.5zm-5.987 0h-2.994V0h2.993v.5zm-5.988 0H375.7V0h2.995v.5zm-5.987 0h-2.994V0h2.994v.5zm-5.987 0h-2.993V0h2.994v.5zm-5.987 0h-2.994V0h2.993v.5zm-5.987 0h-2.994V0h2.994v.5zm-5.987 0h-2.994V0h2.993v.5zm-5.988 0h-2.994V0h2.994v.5zm-5.987 0h-2.994V0h2.995v.5zm-5.988 0h-2.994V0h2.994v.5zm-5.987 0h-2.994V0h2.994v.5zm-5.987 0h-2.994V0h2.993v.5zm-5.987 0h-2.994V0h2.994v.5zm-5.987 0h-2.995V0h2.994v.5zm-5.99 0h-2.993V0h2.994v.5zm-5.986 0h-2.994V0h2.994v.5zm-5.987 0h-2.994V0h2.994v.5zM282.9.5h-2.995V0h2.994v.5zm-5.988 0h-2.993V0h2.992v.5zm-5.987 0h-2.994V0h2.995v.5zm-5.987 0h-2.994V0h2.994v.5zm-5.987 0h-2.993V0h2.994v.5zm-5.987 0h-2.994V0h2.993v.5zm-5.987 0h-2.994V0h2.994v.5zm-5.987 0h-2.994V0h2.993v.5zM235 .5h-2.994V0h2.994v.5zm-5.987 0h-2.994V0h2.995v.5zm-5.988 0h-2.994V0h2.994v.5zm-5.987 0h-2.994V0h2.994v.5zm-5.987 0h-2.994V0h2.993v.5zm-5.988 0h-2.993V0h2.993v.5zm-5.986 0h-2.995V0h2.994v.5zm-5.99 0h-2.993V0h2.994v.5zm-5.986 0h-2.994V0h2.994v.5zm-5.987 0h-2.994V0h2.994v.5zm-5.988 0h-2.995V0h2.994v.5zm-5.988 0h-2.994V0h2.994v.5zm-5.987 0h-2.994V0h2.995v.5zm-5.987 0h-2.994V0h2.994v.5zm-5.987 0h-2.993V0h2.994v.5zm-5.987 0H142.2V0h2.994v.5zm-5.987 0h-2.994V0h2.994v.5zm-5.987 0h-2.995V0h2.994v.5zm-5.988 0h-2.994V0h2.994v.5zm-5.987 0h-2.994V0h2.995v.5zm-5.988 0h-2.994V0h2.994v.5zm-5.987 0h-2.994V0h2.994v.5zm-5.987 0h-2.994V0h2.993v.5zm-5.988 0H94.3V0h2.995v.5zM91.31.5h-2.995V0h2.994v.5zm-5.99 0h-2.993V0h2.994v.5zm-5.986 0H76.34V0h2.994v.5zm-5.987 0h-2.994V0h2.994v.5zM67.36.5h-2.995V0h2.994v.5zM61.37.5h-2.994V0h2.994v.5zm-5.987 0H52.39V0h2.995v.5zm-5.987 0h-2.994V0h2.994v.5zM43.41.5h-2.993V0h2.994v.5zm-5.987 0H34.43V0h2.994v.5zm-5.987 0h-2.994V0h2.994v.5zM25.45.5h-2.995V0h2.994v.5zM19.46.5h-2.994V0h2.994v.5zm-5.987 0H10.48V0h2.995v.5zM7.487.5H4.494V0h2.994v.5zM940.5 1h-2V.5h1-1V0h2zM935.507 1h-2.993V.5h2.993V1zm-5.987 0h-2.993V.5h2.993V1zm-5.988 0h-2.993V.5h2.992V1zm-5.987 0h-2.993V.5h2.993V1zm-5.987 0h-2.993V.5h2.993V1zm-5.988 0h-2.993V.5h2.993V1zm-5.986 0h-2.994V.5h2.994V1zm-5.987 0h-2.994V.5h2.994V1zm-5.988 0h-2.995V.5h2.994V1zm-5.988 0h-2.994V.5h2.994V1zm-5.987 0h-2.994V.5h2.995V1zm-5.988 0h-2.993V.5h2.993V1zm-5.987 0h-2.993V.5h2.993V1zm-5.987 0h-2.993V.5h2.993V1zm-5.987 0h-2.993V.5h2.993V1zm-5.988 0h-2.993V.5h2.993V1zm-5.987 0h-2.992V.5h2.993V1zm-5.985 0h-2.994V.5h2.995V1zm-5.988 0h-2.994V.5h2.994V1zm-5.987 0h-2.994V.5h2.994V1zm-5.987 0h-2.994V.5h2.993V1zm-5.988 0h-2.994V.5h2.995V1zm-5.987 0h-2.994V.5h2.994V1zM797.8 1h-2.992V.5h2.993V1zm-5.987 0h-2.993V.5h2.993V1zm-5.987 0h-2.993V.5h2.993V1zm-5.987 0h-2.994V.5h2.993V1zm-5.988 0h-2.993V.5h2.992V1zm-5.988 0h-2.993V.5h2.994V1zm-5.987 0h-2.993V.5h2.993V1zm-5.986 0h-2.993V.5h2.994V1zm-5.987 0h-2.994V.5h2.993V1zm-5.987 0h-2.994V.5h2.994V1zm-5.987 0h-2.995V.5h2.994V1zm-5.99 0h-2.993V.5h2.994V1zm-5.986 0h-2.994V.5h2.994V1zm-5.987 0h-2.994V.5h2.994V1zm-5.988 0h-2.994V.5h2.993V1zm-5.988 0H705V.5h2.992V1zm-5.987 0h-2.993V.5h2.993V1zm-5.987 0h-2.993V.5h2.993V1zm-5.988 0h-2.993V.5h2.993V1zm-5.987 0h-2.993V.5h2.993V1zm-5.986 0h-2.994V.5h2.994V1zm-5.988 0h-2.995V.5h2.994V1zm-5.988 0h-2.994V.5h2.994V1zm-5.987 0H657.1V.5h2.995V1zm-5.988 0h-2.994V.5h2.994V1zm-5.987 0h-2.994V.5h2.994V1zm-5.987 0h-2.994V.5h2.993V1zm-5.987 0h-2.993V.5h2.993V1zm-5.988 0h-2.993V.5h2.993V1zm-5.987 0h-2.992V.5h2.993V1zm-5.986 0h-2.993V.5h2.994V1zm-5.988 0h-2.993V.5h2.993V1zm-5.987 0h-2.994V.5h2.993V1zm-5.988 0h-2.993V.5h2.992V1zm-5.987 0h-2.994V.5h2.995V1zm-5.987 0h-2.994V.5h2.994V1zm-5.987 0h-2.993V.5h2.994V1zm-5.987 0h-2.994V.5h2.993V1zm-5.987 0h-2.994V.5h2.994V1zM564.3 1h-2.995V.5h2.994V1zm-5.988 0h-2.993V.5h2.992V1zm-5.988 0h-2.993V.5h2.994V1zm-5.987 0h-2.993V.5h2.993V1zm-5.987 0h-2.993V.5h2.993V1zm-5.988 0h-2.993V.5h2.992V1zm-5.987 0h-2.993V.5h2.993V1zm-5.987 0h-2.993V.5h2.993V1zM516.4 1h-2.993V.5h2.994V1zm-5.986 0h-2.994V.5h2.994V1zm-5.987 0h-2.994V.5h2.994V1zm-5.988 0h-2.995V.5h2.994V1zm-5.988 0h-2.994V.5h2.994V1zm-5.987 0h-2.994V.5h2.995V1zm-5.987 0h-2.993V.5h2.993V1zm-5.988 0h-2.993V.5h2.993V1zm-5.987 0h-2.994V.5h2.993V1zm-5.987 0h-2.994V.5h2.994V1zm-5.987 0h-2.995V.5h2.994V1zm-5.988 0h-2.994V.5h2.994V1zm-5.988 0h-2.994V.5h2.994V1zm-5.987 0h-2.994V.5h2.994V1zm-5.987 0h-2.994V.5h2.994V1zm-5.987 0H423.6V.5h2.993V1zm-5.988 0h-2.993V.5h2.993V1zm-5.986 0h-2.995V.5h2.994V1zm-5.99 0h-2.993V.5h2.994V1zm-5.986 0h-2.994V.5h2.994V1zm-5.987 0h-2.994V.5h2.994V1zm-5.987 0h-2.994V.5h2.994V1zm-5.987 0h-2.994V.5h2.993V1zm-5.988 0H375.7V.5h2.995V1zm-5.987 0h-2.993V.5h2.993V1zm-5.987 0h-2.993V.5h2.994V1zm-5.986 0h-2.994V.5h2.994V1zm-5.987 0h-2.994V.5h2.994V1zm-5.987 0h-2.994V.5h2.994V1zm-5.988 0h-2.994V.5h2.994V1zm-5.987 0h-2.994V.5h2.995V1zm-5.987 0h-2.993V.5h2.993V1zm-5.987 0h-2.993V.5h2.994V1zm-5.986 0h-2.994V.5h2.994V1zm-5.988 0h-2.994V.5h2.994V1zm-5.987 0h-2.994V.5h2.993V1zm-5.988 0h-2.994V.5h2.994V1zm-5.987 0h-2.994V.5h2.995V1zm-5.987 0h-2.994V.5h2.994V1zM282.9 1h-2.993V.5h2.993V1zm-5.986 0h-2.994V.5h2.994V1zm-5.988 0h-2.994V.5h2.994V1zm-5.987 0h-2.995V.5h2.994V1zm-5.988 0h-2.994V.5h2.994V1zm-5.987 0h-2.994V.5h2.995V1zm-5.987 0h-2.994V.5h2.994V1zm-5.988 0h-2.993V.5h2.993V1zm-5.987 0h-2.994V.5h2.993V1zm-5.987 0h-2.994V.5h2.994V1zm-5.987 0h-2.995V.5h2.994V1zm-5.988 0h-2.994V.5h2.994V1zm-5.987 0h-2.994V.5h2.995V1zm-5.988 0h-2.994V.5h2.994V1zm-5.987 0h-2.994V.5h2.994V1zm-5.987 0H190.1V.5h2.993V1zm-5.987 0h-2.994V.5h2.994V1zm-5.987 0h-2.995V.5h2.994V1zm-5.99 0h-2.993V.5h2.994V1zm-5.985 0h-2.994V.5h2.995V1zm-5.988 0h-2.994V.5h2.994V1zm-5.987 0h-2.994V.5h2.994V1zm-5.987 0h-2.994V.5h2.993V1zm-5.987 0h-2.994V.5h2.994V1zm-5.988 0h-2.994V.5h2.994V1zm-5.987 0h-2.993V.5h2.994V1zm-5.986 0h-2.994V.5h2.994V1zm-5.987 0h-2.994V.5h2.994V1zm-5.987 0h-2.994V.5h2.994V1zm-5.988 0h-2.994V.5h2.994V1zm-5.987 0h-2.993V.5h2.993V1zm-5.987 0h-2.994V.5h2.994V1zM91.31 1h-2.993V.5h2.994V1zm-5.986 0H82.33V.5h2.994V1zm-5.987 0h-2.994V.5h2.994V1zM73.35 1h-2.994V.5h2.994V1zm-5.988 0h-2.994V.5h2.994V1zm-5.987 0H58.38V.5h2.995V1zm-5.987 0h-2.993V.5h2.993V1zM49.4 1h-2.993V.5H49.4V1zm-5.986 0H40.42V.5h2.994V1zm-5.988 0h-2.994V.5h2.994V1zM31.44 1h-2.995V.5h2.994V1zM25.45 1h-2.994V.5h2.994V1zm-5.987 0H16.47V.5h2.995V1zm-5.987 0h-2.993V.5h2.993V1zM7.49 1H4.498V.5H7.49V1z"/></svg>