<svg xmlns="http://www.w3.org/2000/svg" width="26.5" height="22.994" viewBox="0 0 26.5 22.994"><path fill-rule="evenodd" clip-rule="evenodd" d="M21.85 11.88L20.19 21s-.767.447-1.924.918L19.192 14c.157-1.104-.558-2-1.598-2H15.19c-1.04 0-1.84.896-2 2l.005 8.994C9.695 22.93 6.19 21 6.19 21l-1.68-9.243C1.826 10.985 0 10.19 0 10.19L13.19 0 26.5 10.19s-1.89.882-4.65 1.69zm-10.007 4.058l-.27-1.97C11.423 12.882 10.507 12 9.525 12h-.89c-.98 0-1.656.88-1.506 1.97l.27 1.968c.148 1.088 1.065 1.97 2.047 1.97h.89c.172 0 .33-.037.482-.088l.66-.455c.293-.36.44-.864.363-1.427z"/></svg>