<svg xmlns="http://www.w3.org/2000/svg" width="29.807" height="29.925" viewBox="0 0 29.807 29.925"><path d="M20.626 7.435H9.096c-1.124 0-2.04.908-2.04 2.024v2.903h2.897c.983-1.68 2.813-2.816 4.908-2.816s3.926 1.136 4.91 2.816h2.895V9.46c0-1.117-.914-2.025-2.04-2.025zm1.33 2.816c0 .39-.318.705-.71.705H19.83c-.39 0-.71-.316-.71-.704V8.844c0-.388.32-.704.71-.704h1.42c.39 0 .71.315.71.703v1.408zm-2.917 4.122c-.05-.24-.118-.476-.206-.7l-.015-.042c-.093-.23-.203-.447-.332-.654l-.01-.017c-.133-.212-.283-.41-.45-.596-.778-.863-1.907-1.41-3.167-1.41s-2.387.547-3.167 1.41c-.166.185-.316.384-.45.595l-.01.016c-.128.207-.238.426-.33.654l-.015.042c-.088.225-.157.46-.205.7l-.008.05c-.045.245-.07.498-.07.757 0 2.333 1.905 4.224 4.256 4.224s4.258-1.89 4.258-4.225c0-.26-.026-.513-.07-.758-.005-.017-.006-.033-.01-.05zm-4.18 3.49c-1.494 0-2.704-1.2-2.704-2.684 0-.51.15-.982.4-1.39-.04.127-.066.26-.066.398 0 .75.613 1.36 1.37 1.36.76 0 1.373-.61 1.373-1.36 0-.752-.613-1.36-1.372-1.36-.14 0-.27.025-.398.064.41-.247.885-.396 1.4-.396 1.493 0 2.704 1.2 2.704 2.684 0 1.485-1.21 2.685-2.705 2.685zM14.904 0C6.673 0 0 6.7 0 14.963c0 8.263 6.673 14.962 14.903 14.962s14.903-6.7 14.903-14.962C29.806 6.7 23.134 0 14.903 0zm9.182 20.9c0 1.895-1.548 3.432-3.46 3.432H9.098c-1.91 0-3.46-1.536-3.46-3.433V9.46c0-1.897 1.55-3.434 3.46-3.434h11.53c1.91 0 3.458 1.536 3.458 3.433V20.9z"/></svg>