<svg xmlns="http://www.w3.org/2000/svg" width="540.001" height="226.001" viewBox="0 0 540.001 226.001"><path d="M539.155 128.106c-.188-.295-.055-.776-.143-1.155-.798-3.42-3.516-5.024-6.86-4.087-.44.123-.922.195-1.38.17-2.33-.12-4.66-.243-6.985-.445-.822-.072-1.37.093-2.097.598-.86.6-2.102.73-3.202.86-.348.04-.775-.568-1.16-.888-.567-.474-1.07-1.234-1.707-1.37-1.117-.24-2.316-.128-3.48-.1-.46.01-.975.38-1.363.26-1.236-.388-2.26-.38-3.103.788-.144.2-1 .204-1.032.116-.645-1.758-1.662-2.207-3.244-1.075-.045.033-.246-.225-.38-.23-.645-.025-1.46-.26-1.91.038-1.147.76-1.926.49-2.553-.547-.51-.845-1.255-1.124-2.156-1.198-2.72-.222-5.436-.502-8.158-.65-1.123-.063-2.462-.19-3.342.328-1.082.638-1.812.516-2.795.057-.8-.37-1.634-.934-2.58-.063-.423.39-.914.123-1.34-.436-.627-.826-1.223-.19-1.203.45.025.81.47 1.603.682 2.417.07.263-.022.567-.04.854-.338-.084-.706-.11-1-.273-.166-.09-.244-.393-.306-.614-.347-1.252-.295-3.034-1.11-3.63-.985-.72-2.7-.435-4.098-.588-.233-.025-.473-.117-.697-.088-.607.076-1.298.048-1.79.34-.738.44-1.04.164-1.75-.175-1.046-.5-2.493-.488-3.683-.252-.993.196-1.817 1.13-2.798 1.545-.746.316-1.633.496-2.434.434-.85-.065-1.574-.57-.806-1.59.578-.768.26-.883-.5-.906-.616-.02-1.226-.222-1.842-.257-1.406-.08-2.84-.283-4.216-.102-1.183.157-2.22.42-3.27-.427-.625-.502-1.52-.794-1.94.253-.472 1.17-.952.608-1.575.204-1.358-.877-2.754-1.435-4.235-.2-.615.51-1.358.667-1.87-.032-.824-1.126-1.85-1.24-3.113-1.086-.754.094-1.548-.174-2.327-.24-1.008-.086-2.138-.946-2.95.44-.05.087-.41.042-.608-.013-3.138-.858-4.003-.868-7.493-.075-.146.033-.328.016-.463-.045-1.385-.63-2.744.237-4.062.092-1.447-.16-2.828-.86-4.26-1.233-.59-.155-1.243-.128-1.858-.078-.352.03-.94.215-.985.424-.284 1.345-1.002.948-1.71.483-.624-.41-1.185-1.41-1.297.4-.053.86-1.82.616-2.427-.396-.896-1.5-1.312-1.76-2.422-.87-1.713 1.37-3.11.94-4.643-.235-.516-.397-1.265-.625-1.925-.67-2.49-.166-4.988-.247-7.484-.31-.535-.015-1.074.247-1.612.255-2.095.03-4.25.318-6.27-.066-2.582-.492-5.087-.78-7.67-.255-.607.123-1.285.324-1.85.176-3.55-.93-7.206-.913-10.78-.778-4.443.167-8.92-.887-13.333.307-.217.058-.477.045-.698-.008-2.71-.65-5.453-.33-8.19-.326-2.897.005-5.835-.475-8.683-.137-3.23.38-6.413-.04-9.61.153-1.63.098-2.916-.43-3.687-1.97-.614-1.223-1.638-1.667-2.938-1.345-.82.203-1.62.5-2.4.827-1.297.542-2.522 1.314-3.86 1.684-4.397 1.216-8.883 1.9-13.466 1.744-1.177 0-2.354.01-3.53-.003-.548-.005-1.108.008-1.64-.098-2.61-.517-3.33-2.193-1.876-4.427 1.196-1.84 2.445-3.647 3.705-5.446 2.872-4.103 5.92-8.047 7.966-12.726 1.63-3.73 2.747-7.473 3.11-11.506.45-5.02-3.496-11.436-8.347-12.573-3.92-.92-7.763-1.604-11.826-1.42-6.672.3-12.998 1.73-18.974 4.724-2.17 1.086-4.305 2.277-6.553 3.173-1.855.74-3.185 1.926-4.267 3.53-1.52 2.252-1.285 4.414.602 6.372 1.658 1.72 3.477 2.613 5.985 2.667 2.21.047 3.842-.792 5.296-2.088 2.886-2.572 6.316-3.965 9.852-5.333 2.46-.95 5.01-1.167 7.512-1.756 2.766-.65 5.417-.416 8.073.578 1.06.396 1.654 1.042 1.542 2.063-.333 3.02-.447 6.05-2.368 8.725-2.56 3.564-4.964 7.212-7.86 10.546-2.817 3.24-5.185 6.875-7.75 10.335-.897 1.213-1.034 1.218-2.243.404-2.012-1.356-3.993-2.77-6.08-4.003-4.154-2.457-6.162-6.79-9.134-10.282-.05-.057-.055-.147-.093-.215-.872-1.578-1.647-3.22-2.643-4.716-1.62-2.436-4.65-3.184-7.518-2.017-1.92.782-3.397 3.876-3.083 6.318.584 4.538-1.99 10.29-6.376 12.808-1.095.63-2.5.438-3.104-.696-1.36-2.55-2.81-5.12-3.653-7.86-.648-2.105-.5-4.478-.573-6.736-.08-2.423-.535-4.874-1.995-6.665-1.273-1.56-3.277-2.814-5.636-2.05-2.35.763-4.44 1.98-4.486 4.797-.043 2.655-.022 5.368.464 7.962.676 3.61 1.833 7.126 2.733 10.697.195.775.17 1.606.246 2.412-.902-.125-1.808-.234-2.707-.384-.22-.037-.414-.218-.626-.32-3.603-1.73-7.188-3.5-10.816-5.177-1.982-.918-4.045-1.66-6.056-2.52-1.853-.793-2.055-1.78-.704-3.2 1.298-1.36 2.626-2.695 3.887-4.09 2.354-2.61 4.86-5.11 6.95-7.92 2.753-3.7 5.25-7.602 7.7-11.514 3.54-5.646 7.16-11.26 10.3-17.128 1.538-2.873 2.793-5.893 4.587-8.657 1.478-2.276 1.766-5.14 3.348-7.425.57-.82.847-1.85 1.225-2.798.667-1.673 1.06-3.52 2.02-5 1.535-2.365 2.384-4.925 3.095-7.592.32-1.204.695-2.42 1.246-3.53 1.494-3.013 2.086-6.01.753-9.282-1.205-2.96-4.582-4.37-7.55-3.175-2.272.916-3.382 2.868-3.708 4.842-.536 3.247-1.96 6.1-2.936 9.142-1.18 3.69-2.906 7.11-4.354 10.665-.532 1.307-.83 2.728-1.484 3.963-1.392 2.625-3.066 5.106-3.603 8.114-.066.373-.29.728-.486 1.064-1.22 2.098-2.466 4.177-3.67 6.282-1.594 2.788-3.323 5.516-4.683 8.416-1.112 2.37-2.266 4.652-4.025 6.602-.313.346-.56.76-.794 1.17-2.147 3.766-4.86 7.115-7.65 10.406-.333.392-.82.65-1.236.972-.28-.517-.66-1.007-.81-1.56-.136-.512-.05-1.093-.018-1.64.125-2.116.135-4.25.434-6.34.53-3.724 1.072-7.44 1.06-11.213 0-.076.042-.152.05-.23.558-4.423 1.14-8.843 1.658-13.27.22-1.87.324-3.752.452-5.63.176-2.583.525-5.175.435-7.75-.126-3.596-.766-7.175-.85-10.77-.064-2.67-1.21-4.784-2.52-6.903-1.937-3.13-6.676-3.47-8.796-1.182-1.196 1.292-1.787 2.72-2.328 4.26-.68 1.937-.37 3.842.968 5.29 1.257 1.358 1.648 2.914 1.54 4.54-.255 3.886.192 7.758-.46 11.683-.57 3.44-.423 7.012-1.016 10.52-.596 3.525-.663 7.14-.964 10.714-.093 1.096-.086 2.213-.31 3.282-1.19 5.72-1.002 11.563-1.58 17.337-.077.776-.142 1.553-.198 2.33-.174 2.418-.417 4.835-.482 7.256-.043 1.594-.424 2.543-1.87 2.786-2.17.363-4.373.414-6.5-.384-1.06-.397-1.675-1.154-1.777-2.276-.07-.78-.083-1.57-.075-2.356.04-3.523.492-7.045-.006-10.57-.1-.7-.217-1.413-.177-2.112.263-4.694.433-9.38-.24-14.062-.202-1.395-.26-2.813-.342-4.222-.206-3.517-.284-7.045-.645-10.544-.11-1.075-.83-2.18-1.52-3.075-.705-.914-1.69-1.624-2.604-2.36-2.2-1.774-6.446-1.136-7.45 1.18-1.37 3.155-2.97 6.25-3.07 9.814-.012.384-.156.768-.25 1.148-1.02 4.1-2.11 8.184-3.033 12.306-.497 2.215-.44 4.58-1.122 6.722-.667 2.098-.674 4.16-.722 6.27-.027 1.177.12 2.43-.228 3.513-.74 2.31-.706 4.647-.707 7.004 0 3.052.035 6.104-.018 9.156-.022 1.25-.24 2.496-.36 3.745-.16 1.648-1.105 2.72-2.5 3.473-2.3 1.242-3.544 3.49-4.976 5.497-1.127 1.58-1.803 3.475-2.752 5.19-1.1 1.988-2.656 2.024-3.86.027-.68-1.13-1.063-2.44-1.636-3.64-.292-.615-.57-1.408-1.09-1.71-1.554-.902-2.57-2.244-3.627-3.624-.807-1.052-1.778-2.01-2.807-2.85-3.77-3.07-8.005-3.686-12.58-2.18-4.007 1.32-7.012 4.066-9.854 7.03-.32.333-.55.763-.768 1.177-1.566 2.98-3.13 5.96-4.662 8.954-.244.476-.31 1.04-.492 1.553-.53 1.476-1.034 2.963-1.647 4.402-.147.348-.704.762-1.027.726-.32-.034-.76-.56-.838-.937-.352-1.687-.757-3.39-.84-5.1-.184-3.755-.204-7.52-.252-11.278-.038-2.882-.3-5.772.434-8.63.21-.817.068-1.722.13-2.583.092-1.25.162-2.51.348-3.748.77-5.122 1.653-10.23 2.345-15.36.314-2.335.294-4.804-.833-6.906-.847-1.58-.517-2.64.467-3.815 1.66-1.986 3.295-3.994 4.97-5.97 1.672-1.974 3.286-4.012 5.093-5.857 4.11-4.193 8.263-8.345 12.51-12.396 2.945-2.81 5.973-5.552 9.15-8.088 3.424-2.73 7.068-5.184 10.61-7.766 1.646-1.2 3.277-2.417 4.917-3.624 1.51-1.11 2.985-2.274 4.543-3.313 2.212-1.476 4.482-2.862 6.734-4.276 1.257-.79 2.56-1.506 3.78-2.346 2.704-1.86 5.235-4.025 8.1-5.578 1.603-.87 2.598-2.21 3.888-3.294 1.198-1.006 1.588-4 .91-5.062-.92-1.445-2.437-1.224-3.83-1.18-.69.02-1.423.144-2.043.428-4.263 1.95-8.788 3.297-12.786 5.864-2.944 1.89-6.26 3.157-9.043 5.346-.984.773-2.086 1.397-3.14 2.082-3.874 2.517-7.918 4.808-11.586 7.597-5.612 4.27-10.975 8.873-16.427 13.355-1.75 1.438-3.497 2.89-5.15 4.438-.968.904-1.698 2.058-2.624 3.013-2.233 2.303-4.584 4.493-6.764 6.844-2.712 2.926-5.444 5.855-7.894 8.997-1.83 2.345-3.553 4.744-5.567 6.963C79.59 70.616 75.69 77.174 71.5 83.51c-1.683 2.544-3.3 5.13-4.94 7.703-.254.396-.515.8-.69 1.233-1.122 2.78-2.443 5.438-4.39 7.752-.285.34-.367.855-.532 1.293-.745 1.982-1.477 3.968-2.23 5.946-.722 1.903-1.458 3.8-2.202 5.696-.658 1.677-1.318 3.353-2.01 5.015-.538 1.298-1.364 2.525-1.642 3.87-.746 3.606-2.555 6.865-3.212 10.493-.292 1.62-.782 3.207-1.265 4.783-.382 1.247-.83 1.323-1.786.387-.332-.327-.682-.684-.88-1.096-.958-1.977-1.968-3.937-2.767-5.98-1.05-2.684-1.79-5.495-2.9-8.153-1.784-4.267-3.556-8.516-4.917-12.957-1.723-5.625-3.963-11.09-5.656-16.723-1.464-4.873-2.5-9.876-3.675-14.834-.396-1.67-.68-3.368-.945-5.065-.254-1.625-.327-3.284-.643-4.896-.66-3.372-1.635-6.694-2.093-10.09-.42-3.1-3.57-5.85-7.165-4.872-2.35.64-3.68 2.176-3.446 4.607.28 2.883.646 5.763 1.1 8.625.305 1.92.68 3.854 1.278 5.7 1.77 5.462 1.74 11.336 3.9 16.71.425 1.062.295 2.336.646 3.44 1.065 3.355 2.243 6.674 3.37 10.01 2.035 6.013 4.008 12.048 6.117 18.036 1.17 3.32 2.518 6.58 3.874 9.83.902 2.164 2 4.246 2.94 6.396 1.13 2.577 2.13 5.213 3.292 7.775.95 2.096.883 2.495-1.396 3.117-2.555.696-5.15 1.248-7.73 1.84-1.223.28-2.46.5-3.686.768-2.215.485-4.454.89-6.63 1.518-1.406.404-2.713.52-4.146.182-1.118-.264-2.34-.422-3.46-.254-1.853.276-3.675.803-5.482 1.32-1.048.302-2.092.7-3.047 1.222-1.57.857-2.86 3.31-2.334 4.773.753 2.097 1.23 4.48 3.742 5.407.353.13.657.427.95.684 1.408 1.235 3 1.585 4.82 1.147 4.1-.988 8.208-1.956 12.32-2.9 1.97-.453 3.956-.82 5.928-1.255 1.296-.286 2.577-.643 3.873-.93 2.897-.645 5.802-1.253 8.7-1.9 1.73-.386 3.385-.46 4.985.55 1.95 1.23 4.09 1.92 6.398 2.194 2.053.243 3.52-.55 4.56-2.202.498-.79.756-1.725 1.164-2.573.798-1.658 1.877-2.693 3.965-2.732 1.847-.034 3.684-.672 5.524-1.048.918-.188 1.83-.408 2.753-.574 2.156-.387 4.318-.744 6.476-1.122 1.536-.268 3.07-.545 4.606-.823 3.768-.682 7.54-1.344 11.302-2.058 1.686-.32 3.375-1.126 5.022-1.03 2.042.12 3.864-.348 5.753-.853 1.206-.322 2.45-.508 3.683-.727 1.768-.313 3.54-.6 5.31-.897 1.696-.286 3.39-.595 5.088-.854 1.006-.154 2.036-.164 3.034-.35 3.845-.714 7.668-1.55 11.524-2.197 5.393-.903 10.804-1.697 16.212-2.5 2.542-.376 5.118-.55 7.64-1.025 1.92-.363 2.91.66 3.89 1.975 1.875 2.516 3.764 5.023 5.677 7.51 1.154 1.5 2.408 2.877 4.15 3.766 1.037.53 2.102 1.16 2.893 1.997 2.646 2.794 6.054 3.08 9.542 3.1.63.004 1.364-.363 1.87-.78.78-.643 1.45-1.438 2.08-2.237.948-1.2.806-2.348-.445-3.234-.827-.584-1.754-1.038-2.668-1.486-3.072-1.504-5.67-3.684-8.03-6.08-1.336-1.353-2.25-3.144-3.252-4.8-.687-1.138-.1-2.024 1.372-2.263 2.7-.438 5.4-.875 8.1-1.305 2.26-.36 3.743.568 4.396 2.82.35 1.205.58 2.443.868 3.665.85 3.587 1.89 7.01 5.852 8.474 1.548.572 4.28.167 5.49-1.026 1.16-1.142 1.518-3.405.867-5.064-.74-1.89-1.55-3.766-2.114-5.71-1.173-4.052-.277-5.185 4-5.323.468-.015.94.07 1.408.062.546-.01 1.096-.033 1.635-.113 1.62-.24 3.227-.592 4.854-.754 2.566-.256 5.143-.388 7.715-.58 1.638-.12 3.275-.244 4.91-.387 2.026-.177 4.05-.363 6.073-.563 3.256-.32 6.378-.03 9.31 1.633 4.356 2.468 8.734 4.9 13.158 7.24 3.866 2.045 7.804 3.956 11.723 5.9 1.335.66 2.715 1.226 4.068 1.848 4.125 1.894 8.215 3.87 12.383 5.66 2.366 1.02 4.81 1.954 7.307 2.546 4.205.996 8.478 1.56 12.672-.225 2.48-1.057 2.73-1.53 1.66-4.016-.284-.66-.876-1.355-1.506-1.66-1.543-.744-3.177-1.313-4.802-1.872-2.146-.737-4.38-1.25-6.47-2.12-4.113-1.71-8.167-3.57-12.216-5.43-2.348-1.08-4.66-2.238-6.95-3.44-1.864-.977-3.68-2.052-5.498-3.114-2.025-1.184-4.04-2.384-6.03-3.63-.27-.167-.532-.673-.473-.953.063-.287.5-.656.813-.7.844-.113 1.713-.028 2.564-.1 4.91-.417 9.818-.872 14.73-1.28 2.17-.18 4.37-.134 6.515-.457 2.114-.32 4.166-.557 6.298-.127 1.372.277 2.814.398 4.21.324 4.83-.256 9.65-.654 14.48-.947 4.218-.255 8.44-.433 12.66-.658 1.56-.084 3.115-.282 4.675-.295 3.66-.03 7.32.01 10.98.045 2.968.027 5.936.09 8.904.13 1.015.013 2.03.005 3.048-.003 1.866-.012 3.732-.03 5.6-.047.622-.006 1.245-.018 1.868-.027 2.658-.04 5.32-.19 7.974-.098 4.46.152 8.912.486 13.37.682 1.16.05 2.332-.192 3.497-.182 2.503.022 5.006.123 7.508.19.696.02 1.396 0 2.088.07 1.238.13 2.48.5 3.703.442 3.595-.163 7.176.697 10.777.084.668-.114 1.396.127 2.097.194.466.045 1.018.253 1.386.08 1.91-.91 3.813-.012 5.696.015 4.89.068 9.776.48 14.664.736 2.263.12 4.543.407 6.786.238 3.102-.234 6.154-.407 9.21.345.738.182 1.67.33 2.292.03.87-.42 1.488-1.93 2.41-.09.016.033.35-.007.386-.083.634-1.332 1.162-.268 1.8.012.833.366 1.734.76 2.617.787 1.693.052 3.394-.21 5.092-.213.91 0 1.973.024 2.7.474.98.605 1.695.532 2.588.004.457-.27 1.01-.403 1.54-.503.12-.022.315.34.477.526-.576.402-.636.69.185.69 2.298-.005 4.63-.366 6.795.817.235.13.615-.008.928-.02 5.106-.212 10.146.533 15.203 1.05 5.057.52 10.127.92 15.175 1.515 2.373.28 4.795.053 7.13.8.98.315 2.014.126 2.835-.692.636-.635 1.523-.793 2.12-.158 1.65 1.76 3.765 1.518 5.857 1.753 2.867.322 5.77.772 8.316 2.295 1.066.64 2.026 1.11 3.368 1.267 1.923.225 3.393-.1 5.066-1.03 1.658-.92 3.317-1.49 2.847-3.853-.014-.062.044-.17.1-.204 1.787-1.145 1.175-2.44.305-3.81zM82.562 138.184c-1.696.286-3.41.46-5.103.763-1.463.263-2.897.687-4.36.95-3.08.56-6.17 1.064-9.257 1.58-.385.065-.78.106-1.17.112-2.12.028-2.813-.87-2.317-2.978.593-2.517.763-5.242 1.874-7.505 1.812-3.692 1.75-7.987 4.083-11.478.71-1.064.803-2.522 1.32-3.74 1.686-3.957 3.24-7.99 5.216-11.797 2.017-3.888 4.473-7.546 6.746-11.3.16-.266.347-.568.6-.714.372-.214.913-.515 1.2-.383.314.144.522.725.587 1.145.07.45-.083.933-.14 1.4l.266.022c-.24 3.59-.644 7.177-.67 10.77-.033 4.136.15 8.284.456 12.41.294 3.978.843 7.938 1.328 11.898.094.768.396 1.513.632 2.26.332 1.05.766 2.07 1.022 3.137.52 2.17-.097 3.07-2.316 3.444zm15.735-3.556c-.81.47-1.592.14-1.966-.623-.503-1.027-.808-2.152-1.25-3.38.295-.435.574-.843.853-1.25.324.266.74.473.953.81.536.846 1.002 1.738 1.45 2.635.298.594.855 1.29-.04 1.808zm24.097-19.236c-.714 1.87-.945 3.91-2.43 5.514-1.96 2.113-3.655 4.49-6.212 5.95-1.056.604-2.275 1.51-3.447.54-1.08-.895-.957-2.375-.49-3.518.944-2.3 2.048-4.547 3.26-6.718.75-1.345 1.707-2.62 2.785-3.714.65-.66 1.708-.91 2.6-1.355 1.117.405 2.1.654 2.977 1.11.823.43 1.29 1.318.957 2.192zm57.253 6.868c-1.9.41-3.813.76-5.72 1.136l-.072-.385c-.99.16-1.977.345-2.97.474-.696.09-1.407.195-2.1.14-1.377-.114-1.585-.5-1.218-1.823.546-1.964 1.01-3.955 1.614-5.902.344-1.106.9-2.145 1.355-3.217.387-.912 1.13-1.146 2.05-1.298 1.69-.28 3.358-.716 5.032-1.102.61-.14 1.2-.38 1.815-.474 1.583-.242 2.418.416 2.487 1.98.105 2.417.158 4.834.237 7.252.075 2.22-.306 2.746-2.51 3.222zm27.828-3.03c-1.136.28-2.3.492-3.465.6-2.49.228-4.986.37-8.42.617-1.794.086-2-.07-2.33-2.748-.116-.933-.19-1.876-.186-2.814.01-2.044 1.04-2.846 3.057-2.277 1.578.443 3.13 1.005 4.646 1.636 1.948.81 3.848 1.742 5.765 2.626.427.196.88.368 1.248.646.285.215.707.698.633.85-.175.366-.568.77-.945.862zm48.732-4.03c-.36.14-.746.256-1.13.292-2.166.203-4.335.38-6.504.563l-.01-.14c-1.163.06-2.333.223-3.49.154-1.938-.115-2.304-.95-1.177-2.564 1.027-1.47 2.06-2.945 3.194-4.333.982-1.203 1.59-1.2 2.77-.317 1.862 1.397 3.736 2.78 5.61 4.163.312.23.676.4.964.657.764.68.69 1.164-.227 1.522zm61.606-11.54c.793 3.202 3.12 5.054 5.96 6.103 2.58.952 5.287-.377 6.51-2.857.866-1.755 1.49-3.628 2.276-5.423 1.07-2.44 2.1-4.907 3.33-7.266.808-1.55 2.196-1.495 2.707.122.57 1.802 1.797 3.09 2.784 4.576 1.846 2.778 7.72 4.696 10.545 1.534.36-.404.835-.71 1.274-1.04 1.145-.85 1.68-.82 2.623.18.32.34.506.837.868 1.106 1.652 1.22 3.072 3.035 5.54 2.3 2.54-.755 4.082-2.907 3.933-5.712-.24-4.523.26-9.09-.798-13.57-.102-.433.03-.934.102-1.396.703-4.54-1.593-7.987-6.06-9.076-1.823-.444-3.388-.008-4.74 1.316-1.32 1.292-2.204 2.818-2.835 4.55-.184.5-.778 1.17-1.215 1.195-.928.05-.9-.876-.99-1.565-.03-.233-.04-.47-.04-.706V67.965l.3-.078c-.454-1.804-.97-3.596-1.345-5.416-.355-1.728-1.452-2.74-2.966-3.365-.865-.357-1.793-.57-2.702-.81-1.722-.45-3.188.16-4.152 1.513-.8 1.12-1.437 2.448-1.782 3.78-.592 2.274-1.094 4.528-2.364 6.578-.727 1.173-1.048 2.595-1.586 3.89-.48 1.15-.964 2.303-1.534 3.41-.142.273-.667.56-.938.497-.26-.06-.564-.55-.593-.876-.12-1.324-.29-2.672-.164-3.984.285-2.96.704-5.907 1.136-8.85.133-.905.582-1.763.723-2.668.602-3.86 1.147-7.73 1.697-11.598.044-.304.016-.64-.07-.937-.553-1.912-1.657-3.492-3.586-4.006-1.397-.373-2.95-.218-4.432-.21-1.137.006-1.94.625-2.268 1.725-.557 1.873-1.21 3.737-1.543 5.653-.388 2.23-.365 4.528-.717 6.766-.63 4.017-1.58 7.99-2.077 12.02-.634 5.13-.586 10.368-1.518 15.432-.77 4.188.584 8.314-.356 12.42-.065.283.063.62.135.924.302 1.296.607 2.592.928 3.884zm58.736 4.198c.293.043.558.276.843.406 2.04.934 3.886.436 5.042-1.5.514-.863.84-1.856 1.134-2.826.475-1.572.902-3.163 1.25-4.768.233-1.066.276-2.172.433-3.256.223-1.55.327-3.137.742-4.636.648-2.335 1.357-4.68 2.34-6.887.72-1.613 1.894-3.03 2.935-4.485.16-.225.71-.277 1.05-.222.158.026.353.497.35.765-.03 2.894-.166 5.79-.13 8.682.027 2.16-.23 4.356 1.116 6.356 1.187 1.763 2.8 2.98 4.555 3.976 1.647.933 3.465.69 4.76-.716 1.9-2.068 3.76-4.212 5.355-6.52 2.99-4.32 5.75-8.8 8.667-13.173 1.26-1.887 2.448-1.772 3.436.252.754 1.548 1.427 3.136 2.137 4.705.55 1.212 1.15 2.402 1.64 3.638 1.292 3.274 2.717 6.476 4.64 9.44.843 1.303 1.54 2.7 2.372 4.01 1.302 2.044 2.467 4.2 4.568 5.608.972.652 1.924.904 3.097.61 2.557-.643 3.383-1.466 3.77-4.243.137-.98.402-2.145.03-2.958-1.533-3.337-3.303-6.563-4.957-9.844-1.162-2.304-2.352-4.6-3.394-6.96-.816-1.85-1.375-3.814-2.152-5.686-.388-.934-1.05-1.75-1.51-2.658-1.022-2.018-1.867-4.14-3.02-6.078-2.186-3.685-5.387-5.506-9.798-5.047-1.605.168-2.896.798-3.9 1.92-1.62 1.81-3.106 3.74-4.634 5.632-.642.794-1.177 1.686-1.888 2.404-.32.323-1.057.57-1.418.416-.36-.154-.67-.85-.68-1.317-.02-.852.2-1.71.368-2.923-.35-1.597-.662-3.54-1.213-5.413-.84-2.85-5.232-4.745-7.91-3.475-2.025.96-3.432 2.43-3.69 4.8-.21 1.907-.893 3.643-1.985 5.234-.983 1.43-1.605 1.456-2.46-.112-.71-1.308-1.27-2.7-1.967-4.017-.77-1.457-1.648-1.615-2.742-.478-2.81 2.924-5.042 6.19-5.957 10.243-.258 1.14-.716 2.235-1.088 3.35-.67 2.002-1.504 3.966-1.984 6.014-.89 3.8-2.473 7.443-2.627 11.414-.006.15-.074.308-.146.445-1.044 2.003-.547 3.9.164 5.905.788 2.227 2.095 3.625 4.46 3.973zm8.547-55.264c1.427-.744 2.563-2.035 3.962-2.847 2.013-1.17 2.61-3.468 4.213-4.947.222-.206.207-.74.196-1.117-.066-2.22-2.14-5.114-4.155-5.843-2.2-.796-5.25-.006-6.855 1.806-2.248 2.537-3.84 5.347-3.545 7.915-.15 4.853 2.764 6.815 6.182 5.034zM24.55 208.854c-1.802 1.89-2.702 4.403-2.702 7.54 0 2.855.83 5.172 2.493 6.945 1.663 1.774 3.81 2.66 6.444 2.66 1.693 0 3.32-.322 4.877-.97v-1.293c-1.405.69-2.996 1.037-4.77 1.037-2.22 0-4.055-.762-5.5-2.283-1.448-1.522-2.17-3.6-2.17-6.232 0-2.73.756-4.92 2.27-6.563 1.514-1.645 3.48-2.466 5.9-2.466 1.495 0 2.92.304 4.272.915v-1.415c-1.353-.476-2.768-.714-4.246-.714-2.777 0-5.066.946-6.867 2.837zm44.272 6.326H57.79v-8.84h-1.33v19.324h1.33v-9.27h11.032v9.27h1.317V206.34H68.82v8.84zm31.065-9.163c-2.875 0-5.145.928-6.806 2.782-1.66 1.854-2.492 4.322-2.492 7.404 0 2.902.81 5.26 2.426 7.074C94.63 225.093 96.8 226 99.524 226c2.76 0 4.963-.915 6.61-2.748 1.65-1.833 2.474-4.35 2.474-7.546 0-2.894-.804-5.23-2.412-7.015-1.608-1.782-3.71-2.673-6.31-2.673zm5.268 16.42c-1.39 1.56-3.274 2.338-5.657 2.338-2.284 0-4.112-.788-5.482-2.365-1.37-1.576-2.056-3.694-2.056-6.354 0-2.633.723-4.762 2.17-6.388s3.29-2.438 5.53-2.438c2.337 0 4.185.766 5.542 2.297 1.357 1.532 2.036 3.664 2.036 6.395 0 2.785-.695 4.956-2.083 6.515zm30.177-5.72v-.055c1.434-.27 2.548-.872 3.346-1.806.797-.935 1.196-2.098 1.196-3.49 0-1.51-.486-2.725-1.458-3.646s-2.31-1.38-4.01-1.38h-5.35v19.323h1.332v-8.61h2.392c.797 0 1.46.2 1.99.6.527.4 1.056 1.184 1.584 2.35l2.567 5.66h1.506l-2.862-6.157c-.727-1.554-1.47-2.484-2.232-2.79zm-1.626-.876h-3.32v-8.274h3.602c1.45 0 2.566.35 3.346 1.045.78.697 1.17 1.66 1.17 2.892 0 1.348-.433 2.408-1.298 3.18-.864.773-2.03 1.16-3.5 1.16zm28.472.688h7.122v-1.213h-7.122v-7.75h7.673v-1.225h-9.002v19.324h9.446v-1.213h-8.116v-7.922zm37.232-10.51c-2.875 0-5.144.927-6.806 2.78-1.662 1.856-2.493 4.324-2.493 7.406 0 2.902.81 5.26 2.427 7.074 1.617 1.815 3.787 2.723 6.51 2.723 2.76 0 4.963-.915 6.61-2.748s2.473-4.35 2.473-7.546c0-2.894-.804-5.23-2.412-7.015-1.608-1.782-3.71-2.673-6.308-2.673zm5.267 16.42c-1.39 1.558-3.274 2.337-5.657 2.337-2.284 0-4.112-.788-5.482-2.365-1.37-1.576-2.056-3.694-2.056-6.354 0-2.633.723-4.762 2.17-6.388s3.29-2.438 5.53-2.438c2.337 0 4.185.766 5.542 2.297 1.357 1.532 2.036 3.664 2.036 6.395 0 2.785-.694 4.956-2.083 6.515zm31.965-5.17h4.542v6.375c-1.308.755-2.83 1.132-4.57 1.132-2.346 0-4.21-.77-5.596-2.31-1.384-1.542-2.076-3.67-2.076-6.382 0-2.578.737-4.7 2.21-6.36 1.474-1.663 3.425-2.493 5.852-2.493 1.666 0 3.373.422 5.12 1.266v-1.455c-1.595-.682-3.24-1.022-4.932-1.022-2.92 0-5.254.98-7 2.938-1.748 1.96-2.622 4.402-2.622 7.33 0 2.902.81 5.248 2.432 7.035 1.622 1.788 3.745 2.683 6.37 2.683 2.105 0 4.152-.562 6.14-1.685v-8.26h-5.87v1.21zm33.107-.552v-.054c1.433-.27 2.548-.872 3.345-1.806.797-.935 1.196-2.098 1.196-3.49 0-1.51-.486-2.725-1.458-3.646s-2.31-1.38-4.01-1.38h-5.35v19.323h1.33v-8.61h2.393c.798 0 1.46.2 1.99.6.527.4 1.056 1.184 1.585 2.35l2.566 5.66h1.505l-2.86-6.157c-.727-1.554-1.47-2.484-2.23-2.79zm-1.627-.875h-3.32v-8.274h3.603c1.45 0 2.566.35 3.346 1.045s1.17 1.66 1.17 2.892c0 1.348-.434 2.408-1.3 3.18-.865.773-2.03 1.16-3.5 1.16zm32.73-9.5l-7.27 19.324h1.466l2.203-6.01h8.357l2.204 6.01h1.49l-7.187-19.324h-1.263zm-3.13 12.088l3.238-8.962c.145-.368.293-.85.445-1.44h.054c.07.224.138.448.2.673.063.26.144.524.242.794l3.252 8.935h-7.43zm36.01-12.088h-4.65v19.324h1.33v-7.75h2.77c2.105 0 3.743-.575 4.91-1.73 1.17-1.154 1.754-2.63 1.754-4.427 0-1.77-.523-3.115-1.57-4.036-1.05-.92-2.565-1.38-4.544-1.38zm3.386 9.103c-.905.83-2.227 1.247-3.965 1.247h-2.74v-9.124h3.076c3.324 0 4.986 1.45 4.986 4.354 0 1.517-.452 2.692-1.357 3.523zm35.806-.263h-11.03v-8.84h-1.332v19.324h1.33v-9.27h11.032v9.27h1.317V206.34h-1.317v8.84zm24.104 1.348h7.122v-1.213h-7.122v-7.75h7.673v-1.225H395.7v19.324h9.446v-1.213h-8.116v-7.922zm35.217.188v-.054c1.434-.27 2.55-.872 3.346-1.806.798-.935 1.196-2.098 1.196-3.49 0-1.51-.488-2.725-1.46-3.646s-2.308-1.38-4.01-1.38h-5.35v19.323h1.33v-8.61h2.394c.797 0 1.46.2 1.988.6.528.4 1.058 1.184 1.586 2.35l2.566 5.66h1.505l-2.863-6.157c-.726-1.554-1.47-2.484-2.23-2.79zm-1.626-.875h-3.318v-8.274h3.602c1.45 0 2.566.35 3.346 1.045s1.17 1.66 1.17 2.892c0 1.348-.434 2.408-1.298 3.18-.866.773-2.033 1.16-3.5 1.16z"/></svg>