<svg xmlns="http://www.w3.org/2000/svg" width="590" height="226" viewBox="0 0 590 226"><path d="M589.15 128.1c-.187-.294-.054-.774-.142-1.153-.8-3.42-3.516-5.025-6.86-4.088-.44.12-.92.193-1.378.17-2.33-.12-4.662-.245-6.986-.446-.822-.072-1.37.093-2.098.598-.86.6-2.102.73-3.2.86-.35.04-.776-.568-1.16-.888-.57-.475-1.07-1.234-1.708-1.37-1.12-.24-2.318-.128-3.482-.1-.46.01-.975.38-1.36.26-1.237-.39-2.263-.38-3.105.787-.144.2-1 .205-1.032.117-.645-1.758-1.662-2.207-3.242-1.075-.047.033-.246-.226-.38-.23-.646-.024-1.46-.26-1.91.038-1.147.76-1.927.49-2.554-.547-.512-.845-1.256-1.123-2.156-1.197-2.72-.223-5.436-.502-8.156-.65-1.123-.063-2.463-.19-3.342.328-1.082.64-1.813.516-2.797.057-.798-.37-1.632-.933-2.577-.062-.424.39-.914.123-1.34-.436-.63-.826-1.225-.19-1.205.45.025.81.47 1.603.684 2.416.068.263-.023.567-.04.854-.34-.084-.706-.11-1-.273-.167-.09-.245-.394-.306-.614-.348-1.252-.297-3.035-1.11-3.63-.985-.72-2.7-.436-4.1-.59-.23-.024-.472-.116-.696-.087-.607.075-1.297.047-1.79.34-.737.438-1.04.163-1.75-.176-1.046-.5-2.493-.487-3.683-.25-.992.194-1.816 1.13-2.8 1.544-.745.316-1.632.496-2.433.434-.85-.064-1.574-.57-.805-1.59.577-.768.26-.883-.503-.906-.615-.02-1.225-.223-1.842-.258-1.404-.08-2.838-.283-4.215-.102-1.184.156-2.22.418-3.27-.428-.624-.502-1.52-.795-1.94.252-.47 1.172-.95.61-1.574.205-1.357-.877-2.754-1.436-4.234-.2-.615.51-1.357.667-1.87-.032-.823-1.126-1.85-1.24-3.112-1.086-.754.094-1.55-.174-2.328-.24-1.008-.086-2.137-.945-2.95.44-.05.087-.41.042-.606-.013-3.14-.857-4.004-.867-7.494-.074-.145.033-.328.016-.463-.045-1.386-.63-2.745.236-4.064.092-1.447-.16-2.828-.86-4.262-1.232-.588-.154-1.242-.128-1.855-.078-.355.03-.942.215-.987.424-.283 1.347-1.002.95-1.71.484-.624-.407-1.185-1.41-1.296.402-.053.86-1.822.614-2.428-.397-.897-1.5-1.314-1.76-2.425-.872-1.713 1.373-3.11.94-4.643-.234-.516-.395-1.264-.624-1.924-.667-2.492-.167-4.988-.248-7.484-.312-.535-.014-1.074.248-1.61.256-2.097.032-4.25.32-6.272-.065-2.582-.49-5.086-.78-7.668-.254-.61.124-1.287.325-1.852.177-3.55-.93-7.205-.914-10.78-.78-4.442.168-8.92-.886-13.333.308-.218.06-.48.046-.7-.007-2.71-.65-5.453-.33-8.19-.326-2.895.005-5.835-.475-8.683-.137-3.227.382-6.412-.038-9.607.154-1.633.097-2.918-.432-3.688-1.97-.615-1.224-1.64-1.668-2.94-1.346-.817.203-1.618.5-2.4.827-1.294.543-2.52 1.315-3.858 1.685-4.396 1.217-8.883 1.9-13.465 1.745-1.177 0-2.355.01-3.53-.003-.55-.006-1.107.007-1.64-.1-2.608-.516-3.33-2.192-1.876-4.426 1.195-1.84 2.445-3.646 3.705-5.445 2.872-4.102 5.92-8.046 7.966-12.725 1.63-3.73 2.746-7.473 3.11-11.506.45-5.02-3.497-11.436-8.347-12.573-3.92-.918-7.765-1.603-11.827-1.42-6.672.302-12.997 1.73-18.974 4.725-2.17 1.087-4.306 2.278-6.554 3.174-1.854.738-3.185 1.925-4.267 3.528-1.522 2.253-1.286 4.415.602 6.373 1.658 1.722 3.477 2.614 5.984 2.668 2.21.047 3.842-.792 5.296-2.088 2.886-2.572 6.316-3.965 9.852-5.333 2.46-.952 5.012-1.168 7.512-1.757 2.766-.65 5.418-.416 8.072.578 1.06.396 1.654 1.042 1.543 2.063-.333 3.02-.446 6.05-2.366 8.726-2.56 3.564-4.965 7.212-7.86 10.546-2.817 3.24-5.185 6.875-7.75 10.335-.896 1.212-1.033 1.217-2.242.403-2.014-1.356-3.994-2.77-6.08-4.003-4.155-2.458-6.164-6.792-9.135-10.283-.05-.057-.056-.147-.094-.215-.872-1.58-1.646-3.22-2.643-4.717-1.62-2.436-4.65-3.184-7.52-2.017-1.92.782-3.396 3.876-3.082 6.318.585 4.538-1.99 10.29-6.375 12.808-1.095.63-2.5.438-3.104-.696-1.36-2.55-2.81-5.12-3.654-7.86-.648-2.105-.5-4.478-.573-6.736-.08-2.423-.535-4.874-1.995-6.665-1.272-1.56-3.276-2.813-5.635-2.048-2.35.762-4.44 1.98-4.486 4.796-.043 2.655-.022 5.368.464 7.962.677 3.61 1.834 7.127 2.734 10.698.195.775.17 1.606.246 2.412-.903-.124-1.81-.233-2.708-.383-.22-.037-.414-.218-.626-.32-3.603-1.73-7.188-3.5-10.816-5.177-1.983-.917-4.046-1.66-6.057-2.52-1.853-.792-2.055-1.78-.704-3.198 1.297-1.362 2.625-2.696 3.886-4.092 2.354-2.61 4.86-5.11 6.95-7.92 2.753-3.7 5.25-7.6 7.7-11.513 3.54-5.646 7.16-11.26 10.3-17.128 1.538-2.873 2.793-5.893 4.587-8.657 1.478-2.277 1.766-5.142 3.348-7.426.57-.82.848-1.85 1.226-2.797.667-1.673 1.06-3.52 2.02-5 1.535-2.365 2.384-4.925 3.095-7.592.322-1.203.696-2.418 1.247-3.53 1.494-3.012 2.086-6.008.753-9.28-1.206-2.962-4.583-4.372-7.55-3.176-2.273.916-3.383 2.868-3.71 4.842-.535 3.247-1.96 6.1-2.935 9.142-1.18 3.69-2.906 7.11-4.354 10.665-.53 1.307-.828 2.728-1.483 3.963-1.392 2.625-3.066 5.106-3.603 8.114-.066.373-.29.728-.486 1.064-1.218 2.098-2.465 4.177-3.67 6.282-1.593 2.788-3.322 5.516-4.682 8.416-1.112 2.37-2.266 4.652-4.025 6.602-.312.346-.56.76-.793 1.17-2.147 3.766-4.86 7.115-7.65 10.406-.333.392-.82.65-1.236.972-.278-.517-.66-1.007-.808-1.56-.137-.512-.052-1.093-.02-1.64.126-2.116.136-4.25.435-6.34.53-3.724 1.072-7.44 1.06-11.213 0-.077.042-.153.05-.23.558-4.424 1.14-8.844 1.658-13.272.22-1.87.324-3.75.452-5.63.176-2.582.525-5.174.435-7.75-.126-3.595-.766-7.174-.85-10.768-.064-2.672-1.21-4.785-2.52-6.904-1.937-3.13-6.676-3.47-8.796-1.182-1.196 1.292-1.787 2.72-2.328 4.26-.68 1.937-.37 3.842.97 5.29 1.256 1.358 1.647 2.914 1.54 4.54-.256 3.886.19 7.758-.46 11.683-.57 3.44-.424 7.01-1.017 10.52-.595 3.524-.662 7.138-.963 10.713-.093 1.096-.086 2.213-.31 3.282-1.19 5.72-1.002 11.563-1.58 17.337-.077.775-.142 1.552-.198 2.33-.175 2.417-.418 4.834-.483 7.255-.043 1.595-.424 2.544-1.87 2.787-2.17.363-4.373.414-6.5-.384-1.06-.396-1.675-1.154-1.777-2.276-.07-.78-.084-1.57-.076-2.356.04-3.523.492-7.045-.006-10.57-.1-.7-.216-1.413-.176-2.112.263-4.694.433-9.38-.24-14.063-.202-1.394-.26-2.812-.342-4.22-.207-3.518-.285-7.046-.646-10.545-.11-1.075-.83-2.18-1.52-3.075-.705-.914-1.69-1.624-2.604-2.36-2.2-1.774-6.447-1.136-7.452 1.18-1.368 3.155-2.97 6.25-3.07 9.814-.01.385-.155.77-.25 1.15-1.02 4.1-2.11 8.183-3.032 12.305-.497 2.214-.44 4.58-1.122 6.72-.667 2.1-.674 4.16-.722 6.272-.027 1.176.12 2.428-.228 3.512-.74 2.31-.706 4.648-.707 7.005 0 3.05.035 6.103-.018 9.155-.023 1.25-.242 2.496-.362 3.745-.158 1.648-1.104 2.72-2.5 3.473-2.298 1.242-3.543 3.49-4.975 5.497-1.127 1.58-1.803 3.476-2.752 5.19-1.1 1.987-2.655 2.023-3.858.026-.682-1.13-1.064-2.438-1.637-3.642-.292-.613-.57-1.406-1.09-1.708-1.554-.902-2.57-2.244-3.627-3.624-.806-1.052-1.777-2.01-2.806-2.85-3.77-3.07-8.005-3.686-12.58-2.18-4.007 1.32-7.012 4.066-9.854 7.03-.318.333-.55.763-.767 1.177-1.565 2.978-3.128 5.958-4.66 8.953-.245.477-.31 1.042-.493 1.554-.53 1.476-1.034 2.964-1.647 4.4-.148.35-.705.764-1.028.728-.32-.035-.76-.563-.838-.938-.352-1.688-.757-3.39-.84-5.102-.184-3.754-.204-7.518-.252-11.277-.038-2.882-.3-5.772.434-8.63.21-.817.068-1.722.13-2.583.092-1.25.162-2.51.348-3.748.77-5.122 1.653-10.23 2.345-15.36.313-2.335.293-4.804-.834-6.906-.847-1.58-.517-2.64.467-3.814 1.66-1.986 3.295-3.994 4.97-5.97 1.672-1.974 3.286-4.012 5.093-5.857 4.11-4.194 8.263-8.346 12.51-12.397 2.945-2.81 5.973-5.552 9.15-8.088 3.424-2.73 7.068-5.184 10.61-7.766 1.646-1.2 3.277-2.418 4.917-3.625 1.51-1.11 2.985-2.274 4.543-3.313 2.212-1.475 4.482-2.86 6.734-4.275 1.256-.79 2.56-1.506 3.78-2.346 2.703-1.86 5.234-4.024 8.1-5.577 1.602-.87 2.597-2.21 3.887-3.294 1.198-1.007 1.588-4 .91-5.063-.92-1.445-2.437-1.224-3.83-1.18-.69.02-1.423.144-2.043.428-4.263 1.95-8.788 3.297-12.786 5.864-2.943 1.89-6.26 3.156-9.042 5.345-.984.773-2.086 1.397-3.14 2.082-3.874 2.517-7.918 4.808-11.586 7.597-5.613 4.27-10.976 8.872-16.428 13.354-1.75 1.438-3.497 2.89-5.15 4.438-.968.904-1.698 2.058-2.624 3.013-2.232 2.302-4.583 4.492-6.763 6.843-2.712 2.926-5.444 5.855-7.894 8.997-1.828 2.345-3.552 4.744-5.566 6.963-5.124 5.646-9.026 12.204-13.216 18.54-1.682 2.544-3.3 5.13-4.94 7.703-.253.396-.514.8-.69 1.233-1.12 2.78-2.442 5.437-4.388 7.75-.286.34-.368.856-.533 1.294-.745 1.98-1.477 3.967-2.23 5.945-.722 1.902-1.458 3.8-2.202 5.695-.658 1.677-1.318 3.353-2.01 5.015-.538 1.3-1.364 2.525-1.642 3.87-.746 3.606-2.555 6.864-3.212 10.493-.29 1.62-.78 3.207-1.264 4.783-.382 1.246-.83 1.322-1.786.387-.333-.327-.683-.684-.882-1.096-.957-1.978-1.967-3.938-2.766-5.98-1.05-2.684-1.79-5.495-2.9-8.152-1.784-4.27-3.556-8.518-4.917-12.958-1.723-5.625-3.963-11.09-5.656-16.723-1.465-4.873-2.5-9.876-3.676-14.834-.396-1.67-.68-3.368-.945-5.065-.255-1.626-.328-3.285-.644-4.897-.66-3.372-1.635-6.694-2.093-10.09-.42-3.1-3.57-5.85-7.165-4.872-2.348.64-3.68 2.176-3.445 4.607.28 2.884.646 5.764 1.1 8.626.305 1.92.68 3.853 1.278 5.698 1.77 5.463 1.74 11.337 3.9 16.712.426 1.06.296 2.335.647 3.44 1.065 3.354 2.243 6.673 3.37 10.008 2.035 6.014 4.008 12.05 6.117 18.037 1.17 3.318 2.518 6.58 3.874 9.83.903 2.162 2 4.244 2.94 6.395 1.13 2.577 2.13 5.213 3.293 7.775.95 2.095.884 2.494-1.395 3.115-2.555.697-5.15 1.248-7.73 1.842-1.223.28-2.46.498-3.686.768-2.216.484-4.455.89-6.63 1.518-1.407.404-2.714.52-4.147.182-1.118-.264-2.34-.422-3.46-.254-1.853.275-3.675.803-5.482 1.32-1.047.3-2.09.7-3.046 1.22-1.57.858-2.86 3.31-2.334 4.774.752 2.097 1.23 4.48 3.74 5.406.354.13.658.428.95.684 1.41 1.236 3.002 1.586 4.82 1.148 4.102-.988 8.21-1.957 12.322-2.902 1.968-.45 3.955-.818 5.927-1.254 1.295-.285 2.576-.643 3.872-.93 2.897-.645 5.802-1.253 8.7-1.898 1.73-.387 3.385-.46 4.985.55 1.95 1.23 4.09 1.92 6.398 2.192 2.053.244 3.52-.55 4.56-2.2.498-.79.756-1.726 1.164-2.574.797-1.658 1.876-2.692 3.964-2.73 1.847-.036 3.684-.674 5.524-1.05.92-.188 1.83-.408 2.754-.574 2.156-.387 4.318-.744 6.476-1.12 1.537-.27 3.072-.548 4.607-.825 3.768-.682 7.54-1.344 11.302-2.06 1.686-.32 3.375-1.124 5.022-1.026 2.04.12 3.863-.35 5.752-.854 1.206-.32 2.45-.508 3.683-.728 1.768-.313 3.54-.598 5.31-.896 1.696-.286 3.39-.596 5.088-.855 1.006-.153 2.036-.164 3.034-.35 3.845-.714 7.668-1.55 11.524-2.197 5.394-.902 10.805-1.696 16.213-2.498 2.542-.377 5.118-.55 7.64-1.026 1.92-.362 2.91.66 3.89 1.976 1.875 2.516 3.764 5.022 5.677 7.51 1.153 1.5 2.407 2.877 4.148 3.766 1.038.53 2.103 1.162 2.894 1.998 2.646 2.794 6.054 3.08 9.542 3.102.63.002 1.364-.365 1.87-.78.78-.645 1.45-1.44 2.08-2.238.948-1.2.806-2.35-.445-3.233-.828-.584-1.755-1.04-2.67-1.486-3.07-1.505-5.668-3.685-8.03-6.08-1.335-1.355-2.25-3.146-3.25-4.802-.688-1.137-.1-2.023 1.37-2.262 2.7-.44 5.4-.875 8.1-1.306 2.26-.358 3.744.567 4.397 2.82.35 1.204.58 2.442.868 3.665.85 3.586 1.89 7.01 5.852 8.474 1.548.57 4.28.165 5.49-1.027 1.16-1.143 1.518-3.406.867-5.064-.74-1.89-1.55-3.767-2.114-5.71-1.174-4.053-.278-5.186 4-5.324.467-.016.938.068 1.407.063.546-.01 1.096-.034 1.635-.114 1.62-.24 3.227-.592 4.854-.754 2.566-.256 5.143-.387 7.715-.578 1.64-.122 3.276-.245 4.912-.39 2.025-.176 4.05-.362 6.072-.562 3.256-.32 6.378-.03 9.31 1.633 4.356 2.47 8.734 4.898 13.158 7.24 3.865 2.045 7.804 3.956 11.723 5.898 1.335.66 2.715 1.228 4.068 1.85 4.125 1.895 8.214 3.87 12.382 5.66 2.365 1.02 4.81 1.953 7.307 2.545 4.205.996 8.48 1.563 12.672-.225 2.482-1.057 2.73-1.53 1.66-4.016-.283-.658-.875-1.354-1.506-1.658-1.543-.745-3.176-1.315-4.8-1.874-2.147-.736-4.384-1.25-6.474-2.12-4.11-1.71-8.166-3.57-12.215-5.43-2.35-1.08-4.66-2.237-6.95-3.44-1.863-.978-3.68-2.053-5.497-3.114-2.025-1.184-4.04-2.385-6.03-3.63-.27-.167-.532-.673-.474-.954.062-.287.5-.656.812-.7.844-.113 1.713-.028 2.564-.1 4.91-.417 9.817-.872 14.728-1.28 2.172-.18 4.37-.135 6.516-.457 2.115-.32 4.166-.556 6.3-.126 1.37.277 2.813.398 4.21.324 4.828-.256 9.65-.654 14.48-.947 4.218-.255 8.438-.433 12.657-.657 1.56-.084 3.117-.28 4.678-.295 3.658-.03 7.318.01 10.98.045 2.968.027 5.937.09 8.903.13 1.016.013 2.033.005 3.05-.003 1.866-.012 3.73-.03 5.6-.047.622-.006 1.245-.018 1.868-.027 2.658-.04 5.32-.19 7.975-.098 4.46.152 8.913.486 13.37.682 1.16.05 2.332-.19 3.496-.182 2.504.02 5.008.123 7.51.19.695.02 1.395 0 2.088.07 1.238.13 2.48.498 3.703.44 3.594-.162 7.176.697 10.775.085.668-.114 1.396.127 2.098.194.467.045 1.018.252 1.387.078 1.91-.908 3.813-.01 5.695.016 4.89.07 9.775.48 14.664.737 2.264.12 4.543.406 6.785.237 3.105-.233 6.155-.407 9.212.345.738.18 1.672.33 2.29.03.87-.42 1.49-1.932 2.41-.09.02.03.353-.008.388-.084.635-1.332 1.162-.268 1.8.012.833.366 1.733.76 2.618.787 1.69.053 3.393-.21 5.092-.212.912 0 1.973.024 2.7.474.98.604 1.694.53 2.59.004.456-.27 1.01-.402 1.538-.503.12-.022.314.34.477.525-.576.402-.635.69.186.69 2.3-.005 4.632-.366 6.796.816.234.13.615-.008.928-.02 5.105-.212 10.146.532 15.203 1.05s10.127.92 15.176 1.516c2.37.278 4.793.053 7.13.8.98.314 2.013.126 2.833-.692.637-.635 1.523-.793 2.12-.158 1.65 1.76 3.765 1.518 5.858 1.753 2.865.32 5.768.77 8.314 2.294 1.066.64 2.027 1.11 3.37 1.27 1.92.224 3.392-.1 5.065-1.03 1.656-.922 3.316-1.49 2.846-3.854-.013-.062.044-.168.1-.203 1.784-1.147 1.172-2.442.3-3.812zm-456.59 10.08c-1.696.284-3.41.46-5.103.763-1.462.262-2.896.686-4.358.95-3.08.56-6.17 1.063-9.26 1.58-.384.063-.778.104-1.168.11-2.12.03-2.814-.867-2.318-2.977.593-2.518.763-5.242 1.874-7.505 1.812-3.69 1.75-7.986 4.083-11.477.71-1.063.804-2.52 1.322-3.738 1.685-3.958 3.238-7.99 5.215-11.798 2.018-3.888 4.474-7.546 6.747-11.3.16-.266.347-.568.6-.714.372-.213.913-.514 1.2-.382.314.145.522.726.587 1.146.07.45-.082.933-.138 1.4l.265.022c-.238 3.59-.643 7.177-.67 10.77-.032 4.136.152 8.284.457 12.41.294 3.98.843 7.938 1.328 11.898.094.768.396 1.513.632 2.26.332 1.05.766 2.07 1.022 3.137.52 2.172-.098 3.07-2.316 3.446zm15.734-3.558c-.81.472-1.592.14-1.966-.623-.504-1.027-.81-2.152-1.252-3.382l.854-1.25c.324.268.74.475.953.812.536.847 1.002 1.737 1.45 2.635.298.594.855 1.29-.04 1.807zm24.098-19.235c-.714 1.87-.945 3.91-2.43 5.515-1.96 2.112-3.655 4.49-6.212 5.95-1.056.603-2.275 1.51-3.447.538-1.08-.895-.957-2.374-.49-3.518.944-2.3 2.048-4.547 3.26-6.717.75-1.346 1.707-2.62 2.785-3.715.65-.66 1.708-.91 2.6-1.355 1.117.404 2.1.653 2.977 1.11.822.43 1.29 1.318.957 2.192zm57.253 6.868c-1.9.41-3.813.76-5.72 1.136l-.072-.385c-.99.16-1.977.345-2.97.474-.696.09-1.407.194-2.1.14-1.377-.114-1.585-.5-1.218-1.823.546-1.965 1.01-3.957 1.614-5.903.342-1.106.9-2.146 1.353-3.217.387-.913 1.13-1.147 2.05-1.3 1.69-.28 3.358-.715 5.032-1.1.61-.142 1.2-.38 1.815-.475 1.583-.242 2.418.416 2.487 1.98.106 2.418.16 4.834.238 7.25.074 2.22-.306 2.746-2.51 3.223zm27.828-3.03c-1.136.28-2.3.492-3.465.6-2.49.23-4.986.372-8.42.618-1.794.086-2-.07-2.33-2.748-.116-.933-.19-1.875-.186-2.814.01-2.042 1.04-2.844 3.057-2.275 1.576.444 3.13 1.007 4.644 1.638 1.948.81 3.848 1.74 5.765 2.625.425.196.877.37 1.246.646.285.215.707.697.633.852-.177.363-.57.766-.947.86zm48.732-4.03c-.36.14-.746.255-1.13.292-2.167.202-4.335.38-6.505.563l-.01-.14c-1.163.06-2.333.223-3.49.153-1.938-.113-2.304-.947-1.177-2.563 1.027-1.47 2.06-2.945 3.194-4.333.98-1.203 1.59-1.2 2.77-.317 1.862 1.397 3.736 2.78 5.61 4.163.312.23.676.4.964.657.765.68.69 1.165-.225 1.524zm61.605-11.54c.793 3.202 3.12 5.054 5.96 6.103 2.58.952 5.286-.377 6.51-2.857.866-1.754 1.49-3.627 2.276-5.422 1.07-2.44 2.102-4.907 3.33-7.266.81-1.55 2.197-1.495 2.707.122.57 1.803 1.797 3.09 2.785 4.577 1.844 2.78 7.72 4.697 10.543 1.535.362-.404.837-.71 1.276-1.04 1.145-.85 1.68-.82 2.623.18.32.34.505.837.868 1.106 1.65 1.22 3.07 3.036 5.54 2.3 2.538-.754 4.08-2.906 3.93-5.71-.24-4.524.26-9.09-.796-13.57-.104-.434.027-.935.102-1.397.703-4.54-1.594-7.987-6.06-9.076-1.823-.444-3.39-.008-4.74 1.316-1.32 1.292-2.204 2.818-2.835 4.55-.185.5-.78 1.17-1.216 1.195-.928.05-.9-.876-.99-1.564-.03-.233-.04-.47-.04-.706V67.96c.1-.025.2-.05.3-.077-.455-1.804-.97-3.596-1.346-5.416-.355-1.73-1.45-2.74-2.965-3.366-.865-.356-1.793-.57-2.703-.808-1.72-.45-3.188.16-4.152 1.512-.8 1.12-1.436 2.448-1.78 3.78-.593 2.274-1.095 4.528-2.364 6.578-.73 1.173-1.05 2.595-1.586 3.89-.48 1.15-.965 2.303-1.535 3.41-.14.273-.666.56-.938.497-.26-.06-.564-.552-.594-.877-.118-1.324-.288-2.672-.163-3.984.285-2.96.703-5.908 1.137-8.85.133-.906.58-1.764.723-2.67.602-3.86 1.146-7.728 1.697-11.597.045-.304.016-.64-.07-.937-.553-1.912-1.656-3.492-3.586-4.006-1.398-.373-2.95-.218-4.434-.21-1.137.006-1.94.625-2.268 1.725-.557 1.874-1.21 3.738-1.543 5.654-.387 2.228-.365 4.527-.717 6.765-.63 4.018-1.58 7.99-2.076 12.022-.635 5.13-.586 10.367-1.52 15.43-.77 4.19.586 8.315-.355 12.42-.064.284.064.62.137.925.303 1.295.607 2.59.928 3.883zm58.736 4.198c.293.043.56.276.844.406 2.04.933 3.887.435 5.04-1.502.517-.862.843-1.855 1.136-2.825.477-1.572.902-3.163 1.252-4.768.232-1.066.275-2.172.432-3.256.223-1.55.328-3.138.742-4.637.648-2.335 1.357-4.68 2.34-6.887.72-1.614 1.895-3.03 2.936-4.486.16-.225.71-.277 1.05-.222.16.026.353.497.35.765-.03 2.894-.165 5.79-.13 8.682.027 2.16-.23 4.356 1.117 6.356 1.186 1.764 2.8 2.982 4.555 3.977 1.646.933 3.463.69 4.758-.716 1.902-2.067 3.76-4.21 5.355-6.518 2.99-4.32 5.75-8.8 8.668-13.174 1.26-1.887 2.448-1.77 3.437.252.754 1.548 1.428 3.136 2.137 4.705.55 1.212 1.15 2.402 1.64 3.638 1.292 3.274 2.718 6.476 4.64 9.44.844 1.303 1.54 2.7 2.373 4.01 1.303 2.044 2.467 4.2 4.568 5.608.97.653 1.924.905 3.096.61 2.56-.642 3.384-1.465 3.772-4.242.137-.98.4-2.145.027-2.958-1.532-3.337-3.302-6.563-4.956-9.844-1.162-2.305-2.352-4.6-3.395-6.96-.817-1.85-1.376-3.815-2.153-5.687-.39-.935-1.05-1.75-1.51-2.66-1.023-2.017-1.867-4.138-3.02-6.077-2.188-3.685-5.39-5.506-9.8-5.047-1.604.167-2.895.797-3.9 1.92-1.618 1.81-3.104 3.74-4.632 5.63-.643.795-1.178 1.687-1.89 2.405-.317.324-1.056.572-1.417.417-.36-.154-.67-.85-.68-1.317-.02-.852.2-1.71.367-2.923-.352-1.597-.662-3.54-1.213-5.413-.84-2.85-5.232-4.744-7.91-3.474-2.025.96-3.432 2.43-3.69 4.8-.21 1.907-.892 3.643-1.983 5.234-.985 1.432-1.606 1.457-2.46-.11-.713-1.31-1.27-2.7-1.97-4.018-.77-1.458-1.647-1.616-2.74-.48-2.814 2.925-5.044 6.192-5.96 10.244-.258 1.14-.715 2.235-1.088 3.35-.67 2.002-1.504 3.966-1.982 6.014-.893 3.8-2.475 7.444-2.63 11.415-.005.15-.073.307-.145.444-1.043 2.004-.547 3.902.164 5.906.784 2.226 2.09 3.624 4.456 3.973zm8.547-55.265c1.428-.744 2.564-2.035 3.963-2.847 2.014-1.168 2.61-3.467 4.215-4.946.222-.206.208-.74.196-1.117-.064-2.22-2.14-5.114-4.154-5.843-2.2-.796-5.25-.006-6.855 1.806-2.248 2.537-3.84 5.347-3.545 7.915-.15 4.853 2.763 6.815 6.18 5.033zM74.546 208.848c-1.8 1.892-2.7 4.403-2.7 7.54 0 2.855.83 5.173 2.492 6.945 1.662 1.775 3.81 2.662 6.443 2.662 1.694 0 3.32-.322 4.878-.97v-1.294c-1.406.692-2.997 1.038-4.77 1.038-2.222 0-4.056-.762-5.502-2.283-1.447-1.523-2.17-3.602-2.17-6.232 0-2.73.757-4.92 2.27-6.563 1.515-1.646 3.48-2.466 5.9-2.466 1.496 0 2.92.305 4.273.916v-1.415c-1.354-.476-2.77-.714-4.247-.714-2.776.002-5.065.946-6.867 2.838zm44.273 6.327h-11.033v-8.84h-1.33v19.324h1.33v-9.272h11.032v9.27h1.316v-19.323h-1.317v8.84zm31.065-9.163c-2.875 0-5.145.928-6.806 2.782-1.663 1.854-2.494 4.322-2.494 7.404 0 2.902.81 5.26 2.426 7.074 1.617 1.814 3.787 2.723 6.51 2.723 2.76 0 4.963-.916 6.61-2.748 1.65-1.834 2.474-4.35 2.474-7.547 0-2.894-.804-5.23-2.412-7.015-1.61-1.782-3.712-2.673-6.31-2.673zm5.267 16.42c-1.39 1.56-3.274 2.338-5.657 2.338-2.284 0-4.112-.788-5.482-2.364-1.37-1.576-2.056-3.695-2.056-6.354 0-2.634.723-4.763 2.17-6.388 1.447-1.627 3.29-2.438 5.53-2.438 2.337 0 4.185.767 5.542 2.297 1.356 1.532 2.035 3.664 2.035 6.396 0 2.782-.694 4.952-2.083 6.512zm30.178-5.722v-.053c1.434-.27 2.548-.873 3.346-1.807.797-.936 1.196-2.098 1.196-3.49 0-1.51-.486-2.725-1.458-3.646-.972-.92-2.31-1.38-4.01-1.38h-5.35v19.323h1.332v-8.61h2.392c.797 0 1.46.2 1.99.6.527.4 1.056 1.185 1.584 2.353l2.567 5.66h1.504l-2.862-6.158c-.728-1.556-1.47-2.485-2.232-2.792zm-1.626-.875h-3.32v-8.274h3.602c1.45 0 2.566.35 3.346 1.046.78.696 1.17 1.66 1.17 2.892 0 1.348-.433 2.408-1.298 3.18-.865.772-2.032 1.157-3.5 1.157zm28.472.687h7.122v-1.213h-7.122v-7.75h7.673v-1.226h-9.004v19.324h9.446v-1.213h-8.116v-7.923zm37.232-10.51c-2.875 0-5.144.928-6.806 2.782s-2.493 4.322-2.493 7.404c0 2.902.808 5.26 2.425 7.074 1.617 1.814 3.787 2.723 6.51 2.723 2.76 0 4.963-.916 6.61-2.748 1.65-1.834 2.473-4.35 2.473-7.547 0-2.894-.804-5.23-2.412-7.015-1.61-1.782-3.712-2.673-6.308-2.673zm5.266 16.42c-1.39 1.56-3.274 2.338-5.657 2.338-2.284 0-4.112-.788-5.482-2.364-1.37-1.576-2.056-3.695-2.056-6.354 0-2.634.722-4.763 2.17-6.388 1.446-1.627 3.29-2.438 5.528-2.438 2.338 0 4.186.767 5.543 2.297 1.358 1.532 2.037 3.664 2.037 6.396 0 2.782-.694 4.952-2.083 6.512zm31.966-5.168h4.542v6.374c-1.308.755-2.83 1.132-4.57 1.132-2.346 0-4.21-.77-5.596-2.312-1.384-1.54-2.076-3.668-2.076-6.38 0-2.58.737-4.7 2.21-6.36 1.474-1.663 3.425-2.493 5.852-2.493 1.666 0 3.373.422 5.12 1.267v-1.455c-1.595-.684-3.24-1.023-4.932-1.023-2.92 0-5.254.98-7 2.938s-2.622 4.402-2.622 7.33c0 2.902.81 5.248 2.432 7.035 1.622 1.787 3.745 2.682 6.37 2.682 2.105 0 4.152-.563 6.14-1.686v-8.26h-5.87v1.21zm33.106-.554v-.053c1.435-.27 2.548-.873 3.347-1.807.797-.936 1.195-2.098 1.195-3.49 0-1.51-.486-2.725-1.46-3.646-.972-.92-2.308-1.38-4.01-1.38h-5.348v19.323h1.33v-8.61h2.392c.798 0 1.462.2 1.99.6.526.4 1.056 1.185 1.585 2.353l2.565 5.66h1.504l-2.86-6.158c-.727-1.556-1.468-2.485-2.23-2.792zm-1.625-.875h-3.318v-8.274h3.602c1.45 0 2.566.35 3.346 1.046s1.168 1.66 1.168 2.892c0 1.348-.432 2.408-1.297 3.18-.866.772-2.032 1.157-3.5 1.157zm32.73-9.5l-7.27 19.324h1.466l2.203-6.013h8.356l2.205 6.012h1.49l-7.187-19.325h-1.262zm-3.13 12.088l3.238-8.963c.145-.367.29-.848.443-1.44h.056c.07.226.14.45.2.675.064.26.146.524.243.795l3.25 8.934h-7.43zm36.01-12.088h-4.65v19.324h1.33v-7.75h2.77c2.104 0 3.743-.577 4.91-1.73 1.17-1.155 1.753-2.63 1.753-4.43 0-1.77-.52-3.113-1.57-4.034-1.05-.922-2.565-1.38-4.544-1.38zm3.386 9.103c-.904.83-2.227 1.247-3.965 1.247h-2.74v-9.124h3.077c3.324 0 4.984 1.452 4.984 4.355.002 1.517-.45 2.69-1.354 3.523zm35.807-.263h-11.03v-8.84h-1.33v19.324h1.33v-9.272h11.03v9.27h1.316v-19.323h-1.317v8.84zm24.103 1.347h7.123v-1.213h-7.124v-7.75h7.674v-1.226h-9.004v19.324h9.447v-1.213h-8.117v-7.923zm35.217.188v-.053c1.434-.27 2.55-.873 3.346-1.807.798-.936 1.196-2.098 1.196-3.49 0-1.51-.488-2.725-1.46-3.646-.972-.92-2.308-1.38-4.01-1.38h-5.35v19.323h1.33v-8.61h2.394c.797 0 1.46.2 1.988.6.527.4 1.06 1.185 1.586 2.353l2.566 5.66h1.504l-2.86-6.158c-.727-1.556-1.47-2.485-2.23-2.792zm-1.625-.875h-3.32v-8.274h3.604c1.45 0 2.564.35 3.346 1.046.78.696 1.17 1.66 1.17 2.892 0 1.348-.434 2.408-1.3 3.18-.865.772-2.033 1.157-3.5 1.157z"/></svg>