<svg xmlns="http://www.w3.org/2000/svg" width="35.007" height="37.016" viewBox="0 0 35.007 37.016"><path fill-rule="evenodd" clip-rule="evenodd" d="M10.946 15.81c.363-1.438-1.715-3.647-1.187-4.57.527-.922 3.218-2.84 6.367-4.305 3.18-1.48 7.43-2.296 8.313-1.558s.652 4.168 2.187 4.245 7.013-.176 7.85-1.633c.84-1.46-.483-4.04-1.5-5.593C31.956.843 30.85-.44 28.104.144s-9.48 1.526-13.85 3.57C9.885 5.755 3.46 9.82 1.667 11.376-.127 12.932-.335 14.52.39 16.515c.728 1.994 1.872 4.748 3.114 4.396s7.078-3.665 7.442-5.1zm21.658 4.184c-.82-1-8.138-5.04-8.235-6.32s-.6-2.973-.6-2.973l-1.862-.226.543 3.45-7.724 1.474-.543-3.45-1.563 1.26s.075 2.033.133 2.916-5.506 6.95-5.298 9.02c.208 2.07.767 11.634 1.873 11.833 2.59.465 25.518-3.508 25.67-4.61.155-1.12-1.576-11.374-2.394-12.373zm-6.884 6.41c-.336 2.896-2.902 4.964-5.73 4.62-2.828-.346-4.848-2.973-4.51-5.867.336-2.896 2.9-4.963 5.73-4.62 2.827.347 4.847 2.973 4.51 5.868z"/></svg>