<svg xmlns="http://www.w3.org/2000/svg" width="60.032" height="36.273" viewBox="0 0 60.032 36.273"><path fill-rule="evenodd" clip-rule="evenodd" d="M58.82 27.936c-3.32 1.263-5.202 2.218-12.668 2.77-7.465.555-18.965-1.12-25.938-1.642-6.975-.52-15.688-.193-19.605-2.258 0 0-.77.797-.58 4.376 1.845.42 8.01 1.666 18 2 9.993.335 21.082.625 29 0s13-3 13-3 .096-1.087-1.21-2.246zm-32.89 7.028c-7.513-.214-15.816-.432-20.294-.767-4.48-.335-5.53-1.026-5.53-1.026s-1.08 2.26 5.027 2.26c3.458.318 15.29.636 20.897.753s14.87.295 23.742-.754c8.87-1.05 10.054-4.004 10.054-4.004s-4.41 2.427-9.753 2.77c-5.302.344-16.644.98-24.143.768zm15.1-10.78c-.183 1.666-4 5-4 5 .003-.014 8.337.494 13.53-.342 5.217-.84 7.47-1.66 7.47-1.66s.376-2.732-1.924-3.146c-2.3-.414-8.076-.853-8.076-.853v3s-6.19-.84-7-2zm-26 3c1.887.086 6.995.35 11 1s9 1 9 1 2-2.197 3-4c.58-1.044 1-2 1-2-2.553-2.037-3.895-2.14-5-3s-1.813-3.562-6-4-5.17-1.72-5-3 1.058-4.188 0-7 .49-3.548 2-4c-1.153-2.928-2.908-2.643-6.827-.73S7.577 4.657 5.937 4.84c-1.64.182-3.374.563-3.318 2.258.055 1.696-.775 5.687-1.207 8.314-.433 2.63-.383 7.394-.383 9.77 2.308 2.212 12.114 1.914 14 2zm9.306-23.165c-.473 1.1 1.695 2.017 1.005 5.233-.69 3.218-.168 4.42.504 5.235s4.422.794 5.73 1.232c1.31.438 2.722 2.018 3.52 2.874.796.855 2.865 1.24 4.222 1.95 1.357.71 1.608 1.25 2.614 2.155 1.007.905 3.604 1.134 4.625 1.334-.162-1.235-.703-1.95-.703-1.95l-.402-.206s.164 1.25-.604.82-1.206-1.642-1.206-1.642l-.704-.308s-.933.97-1.81.308c-.878-.662-.1-1.334-.1-1.334l-1.107-.82s-.745.996-1.81.307c-1.066-.69.1-1.54.1-1.54l-1.508-.82s-1.557 1.142-2.212.307c-.656-.835.604-1.643.604-1.643l-1.51-1.334s-1.337.784-2.11.205c-.772-.578.302-1.643.302-1.643l-1.71-.924s-2.385 1.05-2.513-.205c-.127-1.255 1.51-1.438 1.51-1.438l-.605-1.54s-1.146.704-1.71-.41c-.563-1.113.805-1.54.805-1.54l-.302-.718s-1.518.265-1.81-1.026c-.158-.707 1.208-.82 1.208-.82s-.134-.312-.2-.616c-.462-.82-1.64-.585-2.112.515zm1.81 1.128c.204.42.532.473 1.307.308.775-.164.06-1.1-.402-.924-.36.138-1.11.195-.904.616zm1.105 2.67c.077.435.376.79 1.208.513.83-.277.264-1.573-.503-1.334-.333.103-.78.384-.704.82zm.705 3.284c-.17.428.042.978 1.005.82.964-.156 1.64-1.178.2-1.54-.478-.12-1.035.29-1.205.72zm3.82 3.08c.458.353 1.343.03 1.608-.412.267-.44-.573-1.45-1.407-.82-.473.357-.66.878-.2 1.23zm3.017 2.873c.36.27.97.19 1.608-.41s-.722-1.35-1.206-.924c-.386.34-.763 1.066-.402 1.335zm3.52 1.95c.424.29 1.125.108 1.406-.308.282-.416-.56-1.132-1.105-.72-.444.337-.727.738-.302 1.028zm3.216 1.95c.468.173.697-.054 1.005-.307s-.696-1.43-1.206-.72c-.228.32-.267.856.2 1.028zm3.217 1.438c.434.228.635-.177.402-.514-.232-.337-1.14-1.198-1.106-.514.02.358.272.8.705 1.027z"/></svg>