<svg xmlns="http://www.w3.org/2000/svg" width="39.17" height="39" viewBox="0 0 39.17 39"><path fill-rule="evenodd" clip-rule="evenodd" d="M19.585 0C8.77 0 0 8.73 0 19.5S8.77 39 19.585 39 39.17 30.27 39.17 19.5 30.4 0 19.585 0zM6.265 20.125c-2.787-1.12-4.143-4.304-3.03-7.108C4.35 10.213 7.513 8.847 10.3 9.97c2.786 1.12 4.142 4.304 3.028 7.107-1.115 2.805-4.277 4.17-7.063 3.048zm13.725 12.59c-1.114 2.805-4.276 4.17-7.063 3.05-2.787-1.123-4.143-4.306-3.028-7.11 1.113-2.804 4.275-4.168 7.062-3.047s4.142 4.303 3.028 7.108zm1.452-12.372c-.446 1.122-1.71 1.668-2.826 1.22-1.115-.45-1.657-1.723-1.21-2.844.444-1.123 1.71-1.67 2.824-1.22 1.115.448 1.658 1.72 1.212 2.843zm.36-6.923c-2.786-1.12-4.142-4.304-3.028-7.108 1.114-2.804 4.276-4.17 7.063-3.048 2.786 1.122 4.143 4.305 3.028 7.108-1.114 2.805-4.276 4.17-7.063 3.048zm6.663 15.64c-2.786-1.122-4.142-4.305-3.028-7.11s4.275-4.168 7.063-3.047 4.143 4.304 3.028 7.108-4.277 4.17-7.063 3.05z"/></svg>