<svg xmlns="http://www.w3.org/2000/svg" width="29.807" height="29.925" viewBox="0 0 29.807 29.925"><path d="M14.903 0C6.673 0 0 6.7 0 14.962c0 8.264 6.673 14.963 14.903 14.963s14.903-6.7 14.903-14.963C29.806 6.7 23.134 0 14.903 0zm7.562 11.218c.008.17.012.343.012.516 0 5.26-3.925 11.33-11.1 11.33-2.204 0-4.256-.66-5.98-1.79.303.038.613.056.93.056 1.827 0 3.51-.636 4.844-1.704-1.706-.032-3.146-1.186-3.644-2.767.238.046.482.07.734.07.355 0 .7-.048 1.027-.14-1.784-.367-3.13-1.975-3.13-3.905v-.05c.527.298 1.128.478 1.77.498C6.878 12.62 6.19 11.4 6.19 10.02c0-.73.192-1.414.528-2.004 1.925 2.41 4.8 3.996 8.042 4.162-.066-.292-.102-.596-.102-.907 0-2.198 1.747-3.98 3.902-3.98 1.122 0 2.135.48 2.847 1.257.888-.18 1.724-.51 2.478-.966-.29.93-.91 1.71-1.716 2.203.79-.097 1.54-.31 2.24-.627-.52.798-1.182 1.5-1.945 2.062z"/></svg>