<svg xmlns="http://www.w3.org/2000/svg" width="481" height="439.021" viewBox="0 0 481 439.021"><path fill="#231F20" stroke="#000" stroke-miterlimit="10" d="M480.5 65.06V41.502c0-18.84-6.303-38.89-32.227-40.96v269.122s25.074 2.2 25.074 22.12h-.002c1.124 5.866 1.947 16.726-1.936 32.423 1.62-13.965-2.34-22.226-5.82-26.654-7.996 4.24-18.364 6.552-23.922 7.754V35.87c-126.71 41.775-254.094-8.115-380.216 22.272C50.11 60.875 33.8 65.407 23.3 71.337 11.55 77.977.5 86.095.5 97.184v12.838c0-5.012 2.413-9.244 5.745-13.28v17.946C2.65 119.058.5 125.32.5 127.968v17.52c0-13.308 10.73-26.105 26.956-32.123 3.764-1.396 7.528-2.706 11.292-3.936v224.58c-3.765 1.23-7.53 2.54-11.294 3.936C11.228 343.96.5 357.163.5 370.066v14.706c0-4.9 2.076-10.076 5.306-15.044 0 5.98-.263 11.417-.263 17.4C2.65 392.05.5 399.84.5 405.567v9.363c0 17.016 23.98 28.983 42.39 21.124V386.99c-7.996-.252-14.49.358-19.79 1.574v17.027c-11.4 0-17.09-7.008-15.94-8.916.19-.315.454-.675.765-1.062 2.2-2.93 4.88-5.322 8.153-7.402 2.084-1.503 4.065-2.646 5.39-2.923 1.847-.862 3.835-1.683 5.993-2.48 145.38-53.69 287.27 20.98 432.698-39.336 6.337-3.667 13.803-8.015 18.185-21.198.74-2.23 2.157-11.95 2.157-14.57v-54.225c0-15-16.703-22.2-16.703-22.2V47.658c15.523 5.4 16.703 17.4 16.703 17.4zm-16.703-45.604c10.948 5.7 10.9 14.4 10.9 14.4V44.66c-4.04-6.18-10.9-7.8-10.9-7.8V19.456zM38.75 94.724c-6.905 1.165-13.568 4.792-17.894 7.67V84.45c4.85-3.382 11.865-7 17.893-7.672v17.946zM20.855 373.13v-17.945c5.377-4.068 12.034-6.465 17.826-7.72 0 5.982.067 11.782.066 17.764-6.584 1.76-12.515 4.176-17.892 7.9zm336.65-309.217c5.965-.436 11.93-.99 17.893-1.678V80.18c-5.965.69-11.93 1.244-17.894 1.68V63.913zm-42.08 1.355c5.963.02 11.928-.04 17.892-.188v17.945c-5.964.15-11.93.208-17.893.19V65.267zm101.99 22.284v224.58C299.31 340.372 181.2 298.812 63.09 327.137v-224.58C181.2 74.232 299.308 115.79 417.417 87.552zM273.345 64.118c5.964.274 11.93.515 17.893.705V82.77c-5.964-.19-11.93-.432-17.893-.706V64.118zm-42.082-2.25c5.964.33 11.928.67 17.893 1v17.947c-5.965-.33-11.93-.67-17.893-1V61.867zm-42.08-1.947c5.963.19 11.928.43 17.892.7v17.947c-5.964-.273-11.928-.512-17.893-.7V59.92zm-42.082-.238c5.964-.153 11.93-.213 17.893-.197V77.43c-5.964-.015-11.93.044-17.893.198V59.682zm-42.08 2.873c5.963-.694 11.927-1.252 17.892-1.692V78.81c-5.964.438-11.93.996-17.893 1.69V62.555zm-42.082 7.387c5.964-1.433 11.928-2.688 17.893-3.783v17.945c-5.963 1.095-11.928 2.35-17.892 3.783V69.942zm17.892 286.1c-5.964 1.094-11.93 2.35-17.893 3.783V341.88c5.964-1.435 11.928-2.69 17.893-3.784v17.946zm42.08-5.297c-5.963.44-11.928.998-17.892 1.692V334.49c5.964-.692 11.928-1.25 17.893-1.69v17.945zm42.083-1.377c-5.964-.017-11.93.043-17.893.196V331.62c5.964-.154 11.93-.214 17.893-.198v17.946zm42.08 1.136c-5.963-.273-11.927-.513-17.892-.7v-17.946c5.965.188 11.93.427 17.894.7v17.946zm42.082 2.247c-5.965-.33-11.93-.67-17.893-1v-17.946c5.964.33 11.928.67 17.893 1v17.947zm42.08 1.956c-5.963-.19-11.928-.432-17.892-.705v-17.945c5.964.274 11.93.516 17.893.705v17.946zm42.082.255c-5.964.15-11.93.208-17.893.19v-17.946c5.964.02 11.93-.038 17.893-.188v17.945zm42.08-2.843c-5.963.69-11.927 1.243-17.892 1.68V335.85c5.965-.435 11.93-.988 17.893-1.678v17.945zm42.083-7.35c-5.964 1.428-11.93 2.677-17.893 3.766v-17.945c5.964-1.09 11.93-2.338 17.893-3.766v17.945zm0-271.936c-5.964 1.428-11.93 2.678-17.893 3.767V58.65c5.964-1.088 11.93-2.337 17.893-3.765V72.83zm42.082 258.68c-5.965 2.363-11.93 4.507-17.893 6.448v-17.945c5.963-1.94 11.927-4.086 17.892-6.45v17.946zm15.135-73.232v10.8c-4.04-6.18-10.9-7.8-10.9-7.8v-17.4c10.948 5.7 10.9 14.4 10.9 14.4z"/></svg>