<svg xmlns="http://www.w3.org/2000/svg" width="29.806" height="29.925" viewBox="0 0 29.806 29.925"><path d="M15.146 13.06c.266-.014.505-.143.787-.27.305-.143.52-.345.637-.596.117-.256.178-.55.178-.882 0-.248-.064-.5-.19-.76-.127-.258-.323-.448-.597-.563-.254-.113-.463-.044-.81-.056-.352-.01-.574 0-1.26 0h-.628v3.126h.63c.655 0 .99.013 1.254 0zm1.41 2.743c-.23-.095-.373-.232-.78-.242-.408-.008-1.202 0-1.886 0h-.63v3.754h.63c1.002 0 1.502.015 1.885 0s.53.02.93-.15c.35-.154.603-.372.766-.66.16-.292.24-.623.24-.99 0-.47-.092-.838-.285-1.105-.194-.273-.483-.47-.87-.607zM14.903 0C6.673 0 0 6.7 0 14.962c0 8.264 6.672 14.963 14.903 14.963 8.23 0 14.903-6.7 14.903-14.963C29.806 6.7 23.134 0 14.903 0zm6.347 19.586c-.288.574-.676 1.046-1.163 1.426-.578.45-1.214.77-1.906.96-.69.19-1.337.467-2.404.467H9.488V6.81h5.03c1.126 0 2.29.228 2.872.314.58.084 1.127.262 1.633.535.55.294.963.69 1.23 1.18.27.49.41 1.06.41 1.702 0 .745-.188 1.406-.564 1.987-.376.582-.89 1.01-1.55 1.284v.08c.947.2 1.707.603 2.277 1.217.57.613.855 1.44.855 2.475.002.758-.142 1.424-.432 2z"/></svg>