<svg xmlns="http://www.w3.org/2000/svg" width="48.602" height="38.006" viewBox="0 0 48.602 38.006"><path fill-rule="evenodd" clip-rule="evenodd" d="M48.582 32.655l-11.915-6.712c3.393-8.61.09-18.63-8.164-23.395C19.416-2.698 7.795.415 2.55 9.503-2.7 18.59.415 30.21 9.502 35.457c9.088 5.247 20.708 2.134 25.954-6.954.104-.18.183-.365.28-.546l1.26 5.046 8.585 4.848s1.685-.58 2.416-1.847c.768-1.33.584-3.348.584-3.348zm-16.78-6.263c-4.08 7.068-13.12 9.49-20.188 5.41-7.068-4.082-9.49-13.12-5.41-20.188 4.082-7.068 13.12-9.49 20.19-5.41 7.066 4.082 9.488 13.12 5.407 20.188zM21.02 11.012h-4v6h-6v4h6v6h4v-6h6v-4h-6v-6z"/></svg>